<svg xmlns="http://www.w3.org/2000/svg" xmlns:xlink="http://www.w3.org/1999/xlink" width="500" zoomAndPan="magnify" viewBox="0 0 375 374.999991" height="500" preserveAspectRatio="xMidYMid meet" version="1.0"><defs><g/><clipPath id="46b3e0787c"><path d="M 111 85 L 261 85 L 261 203 L 111 203 Z M 111 85 " clip-rule="nonzero"/></clipPath><clipPath id="f1af9e86f0"><path d="M 79.601562 127.359375 L 221.433594 52.230469 L 261.804688 128.449219 L 119.976562 203.578125 Z M 79.601562 127.359375 " clip-rule="nonzero"/></clipPath><clipPath id="49bb854d87"><path d="M 79.601562 127.359375 L 221.433594 52.230469 L 261.804688 128.449219 L 119.976562 203.578125 Z M 79.601562 127.359375 " clip-rule="nonzero"/></clipPath></defs><rect x="-37.5" width="450" fill="#ffffff" y="-37.499999" height="449.999989" fill-opacity="1"/><rect x="-37.5" width="450" fill="#f4ead9" y="-37.499999" height="449.999989" fill-opacity="1"/><path stroke-linecap="butt" transform="matrix(1.207971, 0, 0, 1.207971, 155.367474, 88.494486)" fill="none" stroke-linejoin="miter" d="M 27.667543 130.200936 C 32.702458 130.200936 37.103562 129.308427 40.735039 127.523409 C 44.434424 125.799832 47.493531 123.442444 49.850919 120.574127 C 52.211541 117.641135 53.996559 114.452679 55.144533 110.947318 C 56.292506 107.441956 56.864876 103.936595 56.864876 100.427999 C 56.864876 96.667173 56.292506 93.226486 55.205973 90.102705 C 54.061234 86.978923 52.593121 84.236721 50.808103 81.814659 C 48.95841 79.454037 46.982602 77.478229 44.816004 75.948675 C 46.665697 73.591287 48.259925 70.975201 49.534014 68.236233 C 50.808103 65.429357 51.445147 62.37025 51.445147 58.991004 C 51.445147 52.998905 49.152434 48.15478 44.56054 44.393954 C 39.907204 40.629894 34.105896 38.783435 27.030498 38.783435 C 22.312488 38.783435 18.040733 39.866734 14.279907 41.968658 C 10.519081 44.073815 7.521415 46.877457 5.290142 50.386053 C 3.05887 53.891414 1.975571 57.65224 1.975571 61.794646 C 1.975571 65.684822 2.86808 69.190183 4.588423 72.252524 C 6.312 75.246956 8.478598 76.77651 11.156125 76.77651 C 13.005818 76.77651 14.981626 75.757885 17.148224 73.782077 C 16.255715 72.951009 15.363206 71.997059 14.535372 70.91376 C 13.707537 69.891902 12.941144 68.682488 12.368774 67.214375 C 11.79317 65.749496 11.537705 63.964478 11.537705 61.794646 C 11.537705 59.628048 12.17475 57.46145 13.452073 55.420968 C 14.726162 53.380485 16.51118 51.724816 18.868568 50.386053 C 21.164515 49.047289 23.906716 48.410245 27.030498 48.410245 C 31.748508 48.410245 35.379985 49.428869 37.996071 51.404677 C 40.544249 53.44516 41.821572 55.996571 41.821572 58.991004 C 41.821572 60.966812 41.375317 62.94262 40.544249 64.727638 C 39.65174 66.577331 38.442326 68.427023 36.974213 70.402831 C 35.444659 72.313965 33.724316 74.354447 31.748508 76.58572 L 29.7727 78.881667 L 29.7727 60.902137 C 29.7727 56.504267 30.600534 53.571275 32.194762 52.041722 L 32.194762 50.832307 L 17.785269 53.700624 L 17.785269 54.910039 C 18.616337 55.741107 19.253381 56.824406 19.634961 58.098495 C 19.9551 59.372584 20.14589 61.096161 20.14589 63.327434 L 20.14589 82.005449 C 15.492555 82.897958 11.537705 84.809091 8.352483 87.806757 C 6.12121 89.908681 4.526982 92.460093 3.379009 95.393084 C 2.29571 98.326076 1.720106 101.449857 1.720106 104.829104 C 1.720106 108.143675 2.29571 111.393572 3.379009 114.452679 C 4.526982 117.576461 6.247326 120.318663 8.478598 122.676051 C 13.387398 127.714199 19.761077 130.200936 27.667543 130.200936 Z M 27.667543 120.574127 C 23.971391 120.574127 20.973725 119.872408 18.551662 118.46897 C 16.1296 117.068765 14.344582 115.154398 13.131934 112.79701 C 11.922519 110.436389 11.346915 107.758862 11.346915 104.829104 C 11.346915 98.005937 14.279907 93.672741 20.14589 91.887723 L 20.14589 106.167867 C 20.14589 108.395906 19.9551 110.119483 19.634961 111.393572 C 19.253381 112.667661 18.616337 113.75096 17.785269 114.582028 L 17.785269 115.791443 L 32.194762 115.791443 L 32.194762 114.582028 C 31.302253 113.75096 30.665209 112.667661 30.34507 111.393572 C 29.96349 110.119483 29.7727 108.395906 29.7727 106.167867 L 29.7727 99.218585 C 30.024931 96.922638 30.72665 94.75604 31.874623 92.586208 C 33.78899 94.054321 35.509334 96.285593 37.103562 99.3447 C 39.65174 97.113428 40.990503 94.75604 40.990503 92.204628 C 40.990503 89.527101 39.716415 87.169713 37.165003 85.064556 L 38.633115 83.408887 C 40.036554 84.301396 41.375317 85.575485 42.714081 87.169713 C 43.98817 88.763941 45.136143 90.6104 45.963978 92.841672 C 46.856487 95.072945 47.302741 97.624357 47.302741 100.427999 C 47.302741 102.788621 46.921161 105.146009 46.219442 107.568072 C 45.517723 109.928693 44.434424 112.095291 42.840196 114.071099 C 41.310643 115.982233 39.27016 117.576461 36.783423 118.789109 C 34.296686 119.998523 31.237579 120.574127 27.667543 120.574127 Z M 27.667543 120.574127 " stroke="#2a4b7e" stroke-width="1.958505" stroke-opacity="1" stroke-miterlimit="4"/><g fill="#2a4b7e" fill-opacity="1"><g transform="translate(155.367474, 233.451002)"><g><path d="M 33.421875 12.320312 C 39.503906 12.320312 44.820312 11.242188 49.207031 9.085938 C 53.675781 7.007812 57.371094 4.160156 60.21875 0.691406 C 63.070312 -2.847656 65.226562 -6.699219 66.613281 -10.933594 C 68 -15.171875 68.691406 -19.40625 68.691406 -23.640625 C 68.691406 -28.183594 68 -32.34375 66.6875 -36.117188 C 65.304688 -39.890625 63.53125 -43.203125 61.375 -46.128906 C 59.140625 -48.976562 56.753906 -51.363281 54.136719 -53.210938 C 56.371094 -56.0625 58.296875 -59.21875 59.835938 -62.53125 C 61.375 -65.917969 62.144531 -69.617188 62.144531 -73.695312 C 62.144531 -80.9375 59.375 -86.789062 53.828125 -91.332031 C 48.207031 -95.875 41.199219 -98.109375 32.652344 -98.109375 C 26.953125 -98.109375 21.792969 -96.800781 17.25 -94.257812 C 12.707031 -91.714844 9.085938 -88.328125 6.390625 -84.09375 C 3.695312 -79.859375 2.386719 -75.3125 2.386719 -70.308594 C 2.386719 -65.609375 3.464844 -61.375 5.542969 -57.679688 C 7.625 -54.058594 10.242188 -52.210938 13.476562 -52.210938 C 15.710938 -52.210938 18.097656 -53.445312 20.714844 -55.832031 C 19.636719 -56.832031 18.558594 -57.988281 17.558594 -59.296875 C 16.558594 -60.527344 15.632812 -61.992188 14.941406 -63.761719 C 14.246094 -65.535156 13.9375 -67.691406 13.9375 -70.308594 C 13.9375 -72.925781 14.707031 -75.546875 16.25 -78.007812 C 17.789062 -80.472656 19.945312 -82.476562 22.792969 -84.09375 C 25.566406 -85.710938 28.878906 -86.480469 32.652344 -86.480469 C 38.351562 -86.480469 42.738281 -85.246094 45.898438 -82.859375 C 48.976562 -80.398438 50.515625 -77.316406 50.515625 -73.695312 C 50.515625 -71.308594 49.976562 -68.921875 48.976562 -66.765625 C 47.898438 -64.53125 46.4375 -62.300781 44.664062 -59.914062 C 42.816406 -57.601562 40.738281 -55.136719 38.351562 -52.441406 L 35.960938 -49.671875 L 35.960938 -71.386719 C 35.960938 -76.699219 36.964844 -80.242188 38.890625 -82.089844 L 38.890625 -83.554688 L 21.484375 -80.089844 L 21.484375 -78.625 C 22.488281 -77.625 23.257812 -76.316406 23.71875 -74.773438 C 24.105469 -73.234375 24.335938 -71.15625 24.335938 -68.460938 L 24.335938 -45.898438 C 18.714844 -44.820312 13.9375 -42.507812 10.089844 -38.890625 C 7.394531 -36.347656 5.46875 -33.265625 4.082031 -29.726562 C 2.773438 -26.183594 2.078125 -22.410156 2.078125 -18.328125 C 2.078125 -14.324219 2.773438 -10.394531 4.082031 -6.699219 C 5.46875 -2.925781 7.546875 0.386719 10.242188 3.234375 C 16.171875 9.316406 23.871094 12.320312 33.421875 12.320312 Z M 33.421875 0.691406 C 28.953125 0.691406 25.335938 -0.152344 22.410156 -1.847656 C 19.484375 -3.542969 17.328125 -5.851562 15.863281 -8.703125 C 14.402344 -11.550781 13.707031 -14.785156 13.707031 -18.328125 C 13.707031 -26.566406 17.25 -31.804688 24.335938 -33.960938 L 24.335938 -16.710938 C 24.335938 -14.015625 24.105469 -11.9375 23.71875 -10.394531 C 23.257812 -8.855469 22.488281 -7.546875 21.484375 -6.546875 L 21.484375 -5.082031 L 38.890625 -5.082031 L 38.890625 -6.546875 C 37.8125 -7.546875 37.039062 -8.855469 36.65625 -10.394531 C 36.195312 -11.9375 35.960938 -14.015625 35.960938 -16.710938 L 35.960938 -25.105469 C 36.269531 -27.875 37.117188 -30.496094 38.503906 -33.113281 C 40.8125 -31.34375 42.894531 -28.648438 44.820312 -24.949219 C 47.898438 -27.644531 49.515625 -30.496094 49.515625 -33.574219 C 49.515625 -36.808594 47.976562 -39.660156 44.894531 -42.199219 L 46.667969 -44.203125 C 48.359375 -43.125 49.976562 -41.585938 51.59375 -39.660156 C 53.136719 -37.734375 54.523438 -35.5 55.523438 -32.804688 C 56.601562 -30.109375 57.140625 -27.03125 57.140625 -23.640625 C 57.140625 -20.792969 56.679688 -17.941406 55.832031 -15.015625 C 54.984375 -12.167969 53.675781 -9.550781 51.75 -7.160156 C 49.902344 -4.851562 47.4375 -2.925781 44.433594 -1.464844 C 41.429688 0 37.734375 0.691406 33.421875 0.691406 Z M 33.421875 0.691406 "/></g></g></g><g clip-path="url(#46b3e0787c)"><g clip-path="url(#f1af9e86f0)"><g clip-path="url(#49bb854d87)"><path fill="#2a4b7e" d="M 212.75 85.808594 C 212.835938 86.78125 212.589844 87.566406 212.359375 88.332031 C 211.035156 92.738281 209.710938 97.144531 208.273438 101.515625 C 206.828125 105.914062 205.640625 110.394531 204.25 114.8125 C 202.65625 119.871094 201.945312 125.160156 200.183594 130.171875 C 200.023438 130.625 200 131.410156 199.339844 131.230469 C 198.738281 131.066406 198.972656 130.328125 199.097656 129.867188 C 199.992188 126.597656 200.886719 123.324219 201.863281 120.078125 C 203.386719 115.035156 204.890625 109.992188 206.242188 104.898438 C 207.121094 101.597656 208.265625 98.367188 209.328125 95.113281 C 210.1875 92.464844 211.097656 89.832031 211.992188 87.195312 C 212.148438 86.746094 212.234375 86.253906 212.75 85.808594 Z M 112.402344 143.597656 C 114.933594 144.4375 117.46875 145.261719 120 146.105469 C 129.144531 149.152344 138.511719 151.457031 147.707031 154.339844 C 149.410156 154.875 151.15625 155.277344 152.929688 155.539062 C 153.21875 155.582031 153.597656 155.667969 153.71875 155.292969 C 153.863281 154.851562 153.449219 154.714844 153.15625 154.613281 C 152.328125 154.320312 151.5 154.011719 150.644531 153.832031 C 140.628906 151.726562 131.070312 148.019531 121.183594 145.464844 C 118.105469 144.667969 115.074219 143.703125 111.808594 143.152344 C 111.988281 143.511719 112.214844 143.535156 112.402344 143.597656 Z M 260.164062 126.9375 C 256.195312 128.886719 252.207031 130.792969 248.261719 132.792969 C 244.371094 134.765625 240.644531 137.027344 236.953125 139.363281 C 233.574219 141.5 229.976562 143.265625 226.476562 145.199219 C 224.730469 146.164062 223.003906 147.175781 221.277344 148.183594 C 220.988281 148.351562 220.445312 148.523438 220.628906 148.917969 C 220.859375 149.414062 221.347656 149.003906 221.660156 148.886719 C 222.742188 148.484375 223.734375 147.886719 224.699219 147.257812 C 229.019531 144.449219 233.507812 141.941406 238.109375 139.621094 C 245.574219 135.851562 252.777344 131.597656 260.09375 127.554688 C 260.402344 127.382812 260.753906 127.234375 260.917969 126.824219 C 260.597656 126.710938 260.378906 126.832031 260.164062 126.9375 Z M 148.90625 91.765625 C 150.34375 94.90625 151.890625 97.992188 153.511719 101.042969 C 156.753906 107.144531 160.445312 112.984375 163.734375 119.058594 C 166.089844 123.402344 168.203125 127.863281 170.347656 132.3125 C 170.582031 132.800781 170.78125 133.320312 171.242188 133.660156 C 171.394531 133.773438 171.554688 133.871094 171.738281 133.761719 C 171.921875 133.648438 171.917969 133.453125 171.867188 133.277344 C 171.796875 133.042969 171.71875 132.8125 171.609375 132.597656 C 170.335938 130.054688 169.082031 127.496094 167.761719 124.976562 C 165.582031 120.816406 163.179688 116.78125 160.859375 112.699219 C 158.253906 108.125 155.828125 103.445312 153.304688 98.820312 C 151.839844 96.136719 150.480469 93.394531 148.699219 90.757812 C 148.632812 91.226562 148.78125 91.492188 148.90625 91.765625 Z M 236.609375 109.050781 C 230.199219 116.316406 223.773438 123.570312 217.390625 130.863281 C 215.675781 132.820312 214.089844 134.890625 212.457031 136.917969 C 212.222656 137.210938 211.84375 137.585938 212.257812 137.941406 C 212.652344 138.28125 212.898438 137.808594 213.136719 137.574219 C 214.042969 136.679688 214.929688 135.769531 215.734375 134.777344 C 222.257812 126.734375 229.015625 118.886719 235.726562 110.996094 C 236.582031 109.992188 237.390625 108.945312 238.027344 107.78125 C 237.40625 108.070312 237.027344 108.582031 236.609375 109.050781 Z M 119.714844 201.9375 C 124.464844 199.59375 129.246094 197.304688 133.992188 194.949219 C 140.152344 191.894531 146.164062 188.550781 152.484375 185.820312 C 153.761719 185.269531 154.976562 184.570312 156.070312 183.691406 C 156.335938 183.480469 156.765625 183.238281 156.523438 182.820312 C 156.28125 182.40625 155.84375 182.628906 155.550781 182.792969 C 153.644531 183.851562 151.621094 184.6875 149.757812 185.832031 C 146.890625 187.589844 143.949219 189.238281 140.886719 190.609375 C 134.464844 193.488281 128.203125 196.667969 122.082031 200.128906 C 121.078125 200.695312 120.039062 201.242188 119.234375 202.132812 C 119.394531 202.070312 119.558594 202.015625 119.714844 201.9375 Z M 131.660156 121.21875 C 136.421875 124.816406 141.015625 128.625 145.628906 132.40625 C 149.628906 135.691406 153.5625 139.0625 157.535156 142.382812 C 158.042969 142.808594 158.613281 143.160156 159.164062 143.535156 C 159.367188 143.675781 159.613281 143.785156 159.820312 143.5625 C 160.046875 143.324219 159.972656 143.050781 159.785156 142.824219 C 159.632812 142.640625 159.453125 142.46875 159.265625 142.320312 C 158.269531 141.527344 157.289062 140.714844 156.265625 139.964844 C 151.011719 136.109375 145.964844 132.007812 141.136719 127.628906 C 138.265625 125.023438 135.320312 122.5 131.960938 120.519531 C 131.550781 120.28125 131.15625 119.976562 130.582031 120.023438 C 130.765625 120.617188 131.242188 120.902344 131.660156 121.21875 Z M 117.394531 174.34375 C 123.152344 173.5625 128.910156 172.746094 134.675781 171.992188 C 139.480469 171.367188 144.332031 171.1875 149.152344 170.707031 C 150.089844 170.617188 151.015625 170.472656 151.925781 170.234375 C 152.199219 170.164062 152.464844 170.019531 152.429688 169.6875 C 152.386719 169.296875 152.078125 169.234375 151.75 169.253906 C 151.570312 169.265625 151.390625 169.300781 151.210938 169.328125 C 145.625 170.273438 140.007812 170.929688 134.359375 171.417969 C 127.816406 171.984375 121.273438 172.652344 114.828125 174.003906 C 114.363281 174.101562 113.867188 174.128906 113.292969 174.601562 C 114.828125 174.6875 116.113281 174.519531 117.394531 174.34375 Z M 180.234375 91.523438 C 180.34375 93.644531 180.628906 95.746094 180.914062 97.84375 C 181.792969 104.351562 182.722656 110.855469 183.585938 117.367188 C 184.089844 121.144531 184.496094 124.9375 184.988281 128.71875 C 185.042969 129.160156 184.984375 129.96875 185.730469 129.832031 C 186.421875 129.707031 186.160156 128.996094 186.078125 128.523438 C 185.644531 125.925781 185.101562 123.34375 184.742188 120.738281 C 183.601562 112.460938 182.535156 104.175781 181.414062 95.898438 C 181.164062 94.050781 180.984375 92.183594 180.425781 90.296875 C 180.121094 90.746094 180.214844 91.144531 180.234375 91.523438 Z M 197.425781 106.34375 C 196.628906 111.339844 196.199219 116.386719 195.214844 121.351562 C 194.734375 123.761719 194.476562 126.203125 194.144531 128.632812 C 194.074219 129.125 193.804688 129.90625 194.519531 130.03125 C 195.277344 130.164062 195.203125 129.328125 195.292969 128.84375 C 195.460938 127.921875 195.574219 126.984375 195.644531 126.050781 C 195.894531 122.878906 196.105469 119.699219 196.722656 116.574219 C 197.503906 112.617188 198.019531 108.625 198.503906 104.628906 C 198.613281 103.714844 198.785156 102.78125 198.4375 101.847656 C 197.875 103.304688 197.664062 104.832031 197.425781 106.34375 Z M 130.398438 188.632812 C 137.179688 185.875 143.96875 183.148438 150.917969 180.828125 C 152.003906 180.464844 153.136719 180.179688 154.105469 179.539062 C 154.382812 179.355469 154.816406 179.125 154.554688 178.6875 C 154.339844 178.324219 153.949219 178.511719 153.648438 178.621094 C 152.28125 179.109375 150.898438 179.566406 149.5625 180.128906 C 144.679688 182.175781 139.710938 184 134.78125 185.929688 C 132.324219 186.890625 130.066406 188.210938 127.847656 189.609375 C 128.710938 189.289062 129.558594 188.972656 130.398438 188.632812 Z M 215.054688 104.96875 C 214.941406 105.179688 214.8125 105.382812 214.714844 105.601562 C 213.203125 109.074219 211.683594 112.542969 210.1875 116.023438 C 209.277344 118.136719 208.441406 120.285156 207.511719 122.390625 C 206.425781 124.859375 205.269531 127.296875 204.164062 129.753906 C 203.828125 130.5 203.554688 131.273438 203.425781 132.089844 C 203.382812 132.367188 203.355469 132.660156 203.695312 132.773438 C 204.023438 132.882812 204.203125 132.660156 204.347656 132.417969 C 204.441406 132.261719 204.511719 132.09375 204.574219 131.925781 C 205.09375 130.53125 205.574219 129.128906 206.132812 127.75 C 207.480469 124.410156 208.746094 121.023438 210.269531 117.757812 C 211.882812 114.292969 213.351562 110.777344 214.644531 107.183594 C 214.898438 106.476562 215.222656 105.800781 215.519531 105.109375 C 215.363281 105.0625 215.210938 105.015625 215.054688 104.96875 Z M 125.992188 156.695312 C 134.285156 158.097656 142.675781 158.851562 150.953125 160.363281 C 151.304688 160.429688 151.675781 160.410156 152.035156 160.394531 C 152.3125 160.378906 152.617188 160.300781 152.617188 159.949219 C 152.617188 159.578125 152.292969 159.566406 152.023438 159.535156 C 150.972656 159.40625 149.921875 159.269531 148.871094 159.15625 C 143.027344 158.539062 137.273438 157.304688 131.429688 156.703125 C 129.339844 156.488281 127.253906 156.105469 124.992188 156.332031 C 125.382812 156.65625 125.699219 156.648438 125.992188 156.695312 Z M 131.730469 142.792969 C 136.296875 144.894531 141.089844 146.4375 145.703125 148.429688 C 148.316406 149.554688 150.945312 150.644531 153.582031 151.707031 C 154 151.875 154.699219 152.285156 154.925781 151.621094 C 155.136719 151.007812 154.347656 150.964844 153.945312 150.808594 C 149.597656 149.121094 145.140625 147.691406 140.953125 145.640625 C 137.765625 144.082031 134.472656 142.980469 130.847656 142.273438 C 131.152344 142.652344 131.46875 142.675781 131.730469 142.792969 Z M 167.511719 110.53125 C 167.769531 111.308594 167.984375 112.101562 168.3125 112.847656 C 170.84375 118.550781 172.964844 124.410156 174.941406 130.324219 C 175.058594 130.664062 175.226562 130.992188 175.402344 131.304688 C 175.523438 131.523438 175.726562 131.695312 176.003906 131.582031 C 176.28125 131.472656 176.308594 131.214844 176.242188 130.96875 C 176.089844 130.382812 175.964844 129.785156 175.746094 129.226562 C 173.628906 123.816406 171.503906 118.40625 169.195312 113.074219 C 168.773438 112.09375 168.269531 111.148438 167.582031 110.171875 C 167.539062 110.382812 167.488281 110.46875 167.511719 110.53125 Z M 154.171875 120.132812 C 155.828125 122.519531 157.742188 124.710938 159.457031 127.050781 C 161.410156 129.707031 163.292969 132.414062 165.210938 135.09375 C 165.472656 135.460938 165.761719 135.816406 166.070312 136.144531 C 166.3125 136.398438 166.59375 136.761719 166.992188 136.484375 C 167.402344 136.195312 167.128906 135.828125 166.953125 135.523438 C 166.804688 135.261719 166.613281 135.023438 166.429688 134.785156 C 163.273438 130.726562 160.128906 126.660156 156.953125 122.621094 C 156.050781 121.472656 155.207031 120.253906 153.914062 119.328125 C 153.832031 119.78125 154.039062 119.945312 154.171875 120.132812 Z M 135.109375 165.820312 C 137.316406 165.816406 139.527344 165.796875 141.734375 165.707031 C 144.640625 165.585938 147.53125 166.078125 150.4375 165.890625 C 150.921875 165.859375 151.410156 165.871094 151.855469 165.628906 C 152.042969 165.527344 152.238281 165.40625 152.1875 165.148438 C 152.140625 164.914062 151.960938 164.792969 151.730469 164.773438 C 151.160156 164.730469 150.582031 164.660156 150.011719 164.671875 C 145.082031 164.777344 140.15625 164.886719 135.226562 165.027344 C 134.585938 165.042969 133.90625 165.015625 133.257812 165.410156 C 133.839844 165.910156 134.503906 165.824219 135.109375 165.820312 Z M 176.332031 113.597656 C 176.765625 115.550781 177.113281 117.523438 177.664062 119.4375 C 178.582031 122.609375 179.003906 125.910156 180.183594 129.007812 C 180.367188 129.5 180.429688 130.398438 181.136719 130.210938 C 181.964844 129.988281 181.539062 129.148438 181.347656 128.652344 C 179.875 124.886719 179.136719 120.914062 178.070312 117.035156 C 177.660156 115.539062 177.058594 114.109375 176.238281 112.742188 C 176.269531 113.027344 176.273438 113.320312 176.332031 113.597656 Z M 240.320312 129.84375 C 239.195312 130.605469 238.039062 131.324219 236.953125 132.136719 C 233 135.097656 228.949219 137.910156 224.777344 140.554688 C 222.886719 141.75 220.980469 142.9375 219.261719 144.390625 C 218.976562 144.632812 218.46875 144.933594 218.738281 145.320312 C 219.066406 145.785156 219.441406 145.265625 219.71875 145.070312 C 221.96875 143.476562 224.171875 141.816406 226.441406 140.257812 C 230.339844 137.589844 234.214844 134.894531 237.996094 132.058594 C 238.847656 131.421875 239.625 130.679688 240.4375 129.984375 C 240.398438 129.9375 240.359375 129.890625 240.320312 129.84375 Z M 189.386719 112.078125 C 189.265625 115.316406 189.503906 118.550781 189.324219 121.789062 C 189.210938 123.777344 189.304688 125.78125 189.316406 127.777344 C 189.316406 128.203125 189.347656 128.628906 189.523438 129.023438 C 189.621094 129.242188 189.730469 129.496094 190.035156 129.441406 C 190.292969 129.394531 190.34375 129.152344 190.351562 128.945312 C 190.382812 128.21875 190.429688 127.492188 190.398438 126.769531 C 190.242188 122.898438 190.015625 119.035156 190.234375 115.15625 C 190.308594 113.835938 190.367188 112.492188 190.082031 111.175781 C 190.039062 110.976562 190.089844 110.636719 189.652344 110.78125 C 189.40625 111.171875 189.402344 111.628906 189.386719 112.078125 Z M 151.242188 129.695312 C 154.433594 132.960938 157.621094 136.222656 160.816406 139.480469 C 161.152344 139.824219 161.5 140.171875 161.945312 140.382812 C 162.214844 140.507812 162.488281 140.519531 162.683594 140.261719 C 162.851562 140.035156 162.769531 139.789062 162.613281 139.59375 C 162.386719 139.308594 162.148438 139.035156 161.890625 138.78125 C 158.617188 135.554688 155.152344 132.535156 151.742188 129.457031 C 151.492188 129.230469 151.261719 128.90625 150.828125 128.949219 C 150.777344 129.316406 151.046875 129.492188 151.242188 129.695312 Z M 143.695312 140.007812 C 147.234375 141.9375 150.5 144.320312 154.023438 146.273438 C 154.816406 146.710938 155.644531 147.089844 156.46875 147.472656 C 156.714844 147.589844 157.03125 147.652344 157.199219 147.351562 C 157.359375 147.058594 157.15625 146.820312 156.929688 146.65625 C 156.660156 146.464844 156.371094 146.289062 156.078125 146.132812 C 152.242188 144.121094 148.515625 141.921875 144.792969 139.710938 C 144.003906 139.242188 143.164062 138.945312 142.023438 138.660156 C 142.621094 139.351562 143.148438 139.710938 143.695312 140.007812 Z M 137.675781 177.992188 C 137.761719 178.347656 138.136719 178.207031 138.378906 178.183594 C 138.886719 178.132812 139.40625 178.070312 139.898438 177.933594 C 142.785156 177.113281 145.714844 176.492188 148.660156 175.929688 C 149.90625 175.691406 151.132812 175.328125 152.355469 174.980469 C 152.710938 174.878906 153.195312 174.738281 153.0625 174.207031 C 152.921875 173.648438 152.429688 173.722656 152.007812 173.796875 C 151.59375 173.871094 151.179688 173.984375 150.78125 174.121094 C 147.917969 175.113281 145 175.917969 142.023438 176.507812 C 140.71875 176.765625 139.417969 177.0625 138.121094 177.5625 C 138.027344 177.730469 137.605469 177.691406 137.675781 177.992188 Z M 227.476562 131.53125 C 227.316406 131.617188 227.144531 131.679688 227.003906 131.785156 C 224.035156 133.984375 221.070312 136.183594 218.113281 138.394531 C 217.242188 139.042969 216.328125 139.65625 215.652344 140.53125 C 215.4375 140.804688 215.089844 141.144531 215.425781 141.484375 C 215.757812 141.828125 216.105469 141.484375 216.382812 141.277344 C 219.078125 139.222656 221.730469 137.109375 224.234375 134.816406 C 225.363281 133.78125 226.464844 132.71875 227.582031 131.671875 C 227.546875 131.625 227.511719 131.578125 227.476562 131.53125 Z M 216.039062 123.5 C 213.804688 126.617188 211.570312 129.738281 209.359375 132.875 C 208.976562 133.414062 208.703125 134.03125 208.394531 134.617188 C 208.265625 134.867188 208.15625 135.15625 208.429688 135.359375 C 208.757812 135.601562 208.988281 135.335938 209.195312 135.117188 C 209.320312 134.988281 209.421875 134.835938 209.527344 134.691406 C 212.089844 131.269531 214.199219 127.566406 216.390625 123.910156 C 216.566406 123.613281 216.796875 123.304688 216.679688 122.898438 C 216.324219 122.957031 216.207031 123.265625 216.039062 123.5 Z M 132.855469 179.382812 C 133.121094 179.894531 133.582031 179.992188 134.085938 179.742188 C 134.527344 179.523438 134.695312 179.148438 134.453125 178.691406 C 134.179688 178.179688 133.71875 178.136719 133.222656 178.292969 C 132.789062 178.566406 132.628906 178.941406 132.855469 179.382812 Z M 129.308594 164.582031 C 128.882812 164.824219 128.746094 165.246094 128.992188 165.671875 C 129.253906 166.125 129.695312 166.242188 130.164062 165.992188 C 130.613281 165.75 130.671875 165.355469 130.46875 164.882812 C 130.175781 164.464844 129.769531 164.320312 129.308594 164.582031 Z M 175.125 108.164062 C 174.703125 108.394531 174.636719 108.84375 174.816406 109.265625 C 175.019531 109.742188 175.425781 109.949219 175.910156 109.710938 C 176.359375 109.488281 176.40625 109.074219 176.21875 108.601562 C 175.957031 108.242188 175.628906 107.886719 175.125 108.164062 Z M 233.691406 125.050781 C 233.257812 125.320312 233.066406 125.722656 233.335938 126.195312 C 233.589844 126.640625 234.011719 126.671875 234.421875 126.421875 C 234.863281 126.15625 235.015625 125.765625 234.773438 125.246094 C 234.488281 124.871094 234.109375 124.789062 233.691406 125.050781 Z M 174.285156 103.414062 C 173.808594 103.707031 173.726562 104.183594 173.988281 104.667969 C 174.207031 105.070312 174.589844 105.171875 174.984375 104.953125 C 175.480469 104.679688 175.449219 104.242188 175.222656 103.738281 C 175.003906 103.445312 174.710938 103.144531 174.285156 103.414062 Z M 219.21875 119.355469 C 219 118.949219 218.621094 118.851562 218.21875 119.074219 C 217.792969 119.308594 217.613281 119.695312 217.875 120.132812 C 218.109375 120.527344 218.503906 120.546875 218.910156 120.363281 C 219.265625 120.105469 219.4375 119.761719 219.21875 119.355469 Z M 145.226562 124.140625 C 145.429688 124.542969 145.78125 124.71875 146.203125 124.535156 C 146.65625 124.335938 146.800781 123.949219 146.601562 123.492188 C 146.398438 123.03125 146.023438 122.914062 145.519531 123.070312 C 145.160156 123.335938 145.003906 123.695312 145.226562 124.140625 Z M 138.558594 137.597656 C 138.808594 138.035156 139.207031 138.128906 139.636719 137.898438 C 140.011719 137.695312 140.09375 137.335938 139.890625 136.972656 C 139.644531 136.539062 139.257812 136.464844 138.816406 136.652344 C 138.476562 136.90625 138.347656 137.226562 138.558594 137.597656 Z M 229.925781 129.1875 C 230.117188 129.554688 230.460938 129.664062 230.839844 129.476562 C 231.246094 129.269531 231.378906 128.90625 231.195312 128.496094 C 231.011719 128.085938 230.652344 128.089844 230.273438 128.222656 C 229.898438 128.449219 229.703125 128.765625 229.925781 129.1875 Z M 128.925781 179.539062 C 128.5625 179.769531 128.46875 180.109375 128.699219 180.472656 C 128.933594 180.835938 129.289062 180.863281 129.648438 180.667969 C 130.023438 180.464844 130.128906 180.148438 129.949219 179.757812 C 129.667969 179.382812 129.320312 179.292969 128.925781 179.539062 Z M 220.59375 115.609375 C 220.191406 115.832031 220.058594 116.199219 220.300781 116.605469 C 220.5 116.9375 220.839844 116.984375 221.171875 116.796875 C 221.546875 116.582031 221.617188 116.25 221.460938 115.867188 C 221.238281 115.542969 220.9375 115.425781 220.59375 115.609375 Z M 148.128906 125.972656 C 147.761719 126.1875 147.679688 126.53125 147.886719 126.902344 C 148.074219 127.242188 148.386719 127.332031 148.730469 127.152344 C 149.105469 126.957031 149.195312 126.632812 149.039062 126.199219 C 148.8125 125.910156 148.5 125.753906 148.128906 125.972656 Z M 189.246094 107.210938 C 188.910156 107.394531 188.777344 107.6875 188.941406 108.050781 C 189.105469 108.414062 189.410156 108.535156 189.761719 108.378906 C 190.15625 108.203125 190.230469 107.859375 190.089844 107.433594 C 189.878906 107.148438 189.597656 107.019531 189.246094 107.210938 Z M 189.246094 107.210938 " fill-opacity="1" fill-rule="nonzero"/><path fill="#2a4b7e" d="M 212.75 85.808594 C 212.835938 86.78125 212.589844 87.566406 212.359375 88.332031 C 211.035156 92.738281 209.710938 97.144531 208.273438 101.515625 C 206.828125 105.914062 205.640625 110.394531 204.25 114.8125 C 202.65625 119.871094 201.945312 125.160156 200.183594 130.171875 C 200.023438 130.625 200 131.410156 199.339844 131.230469 C 198.738281 131.066406 198.972656 130.328125 199.097656 129.867188 C 199.992188 126.597656 200.886719 123.324219 201.863281 120.078125 C 203.386719 115.035156 204.890625 109.992188 206.242188 104.898438 C 207.121094 101.597656 208.265625 98.367188 209.328125 95.113281 C 210.1875 92.464844 211.097656 89.832031 211.992188 87.195312 C 212.148438 86.746094 212.234375 86.253906 212.75 85.808594 Z M 112.402344 143.597656 C 114.933594 144.4375 117.46875 145.261719 120 146.105469 C 129.144531 149.152344 138.511719 151.457031 147.707031 154.339844 C 149.410156 154.875 151.15625 155.277344 152.929688 155.539062 C 153.21875 155.582031 153.597656 155.667969 153.71875 155.292969 C 153.863281 154.851562 153.449219 154.714844 153.15625 154.613281 C 152.328125 154.320312 151.5 154.011719 150.644531 153.832031 C 140.628906 151.726562 131.070312 148.019531 121.183594 145.464844 C 118.105469 144.667969 115.074219 143.703125 111.808594 143.152344 C 111.988281 143.511719 112.214844 143.535156 112.402344 143.597656 Z M 260.164062 126.9375 C 256.195312 128.886719 252.207031 130.792969 248.261719 132.792969 C 244.371094 134.765625 240.644531 137.027344 236.953125 139.363281 C 233.574219 141.5 229.976562 143.265625 226.476562 145.199219 C 224.730469 146.164062 223.003906 147.175781 221.277344 148.183594 C 220.988281 148.351562 220.445312 148.523438 220.628906 148.917969 C 220.859375 149.414062 221.347656 149.003906 221.660156 148.886719 C 222.742188 148.484375 223.734375 147.886719 224.699219 147.257812 C 229.019531 144.449219 233.507812 141.941406 238.109375 139.621094 C 245.574219 135.851562 252.777344 131.597656 260.09375 127.554688 C 260.402344 127.382812 260.753906 127.234375 260.917969 126.824219 C 260.597656 126.710938 260.378906 126.832031 260.164062 126.9375 Z M 148.90625 91.765625 C 150.34375 94.90625 151.890625 97.992188 153.511719 101.042969 C 156.753906 107.144531 160.445312 112.984375 163.734375 119.058594 C 166.089844 123.402344 168.203125 127.863281 170.347656 132.3125 C 170.582031 132.800781 170.78125 133.320312 171.242188 133.660156 C 171.394531 133.773438 171.554688 133.871094 171.738281 133.761719 C 171.921875 133.648438 171.917969 133.453125 171.867188 133.277344 C 171.796875 133.042969 171.71875 132.8125 171.609375 132.597656 C 170.335938 130.054688 169.082031 127.496094 167.761719 124.976562 C 165.582031 120.816406 163.179688 116.78125 160.859375 112.699219 C 158.253906 108.125 155.828125 103.445312 153.304688 98.820312 C 151.839844 96.136719 150.480469 93.394531 148.699219 90.757812 C 148.632812 91.226562 148.78125 91.492188 148.90625 91.765625 Z M 236.609375 109.050781 C 230.199219 116.316406 223.773438 123.570312 217.390625 130.863281 C 215.675781 132.820312 214.089844 134.890625 212.457031 136.917969 C 212.222656 137.210938 211.84375 137.585938 212.257812 137.941406 C 212.652344 138.28125 212.898438 137.808594 213.136719 137.574219 C 214.042969 136.679688 214.929688 135.769531 215.734375 134.777344 C 222.257812 126.734375 229.015625 118.886719 235.726562 110.996094 C 236.582031 109.992188 237.390625 108.945312 238.027344 107.78125 C 237.40625 108.070312 237.027344 108.582031 236.609375 109.050781 Z M 119.714844 201.9375 C 124.464844 199.59375 129.246094 197.304688 133.992188 194.949219 C 140.152344 191.894531 146.164062 188.550781 152.484375 185.820312 C 153.761719 185.269531 154.976562 184.570312 156.070312 183.691406 C 156.335938 183.480469 156.765625 183.238281 156.523438 182.820312 C 156.28125 182.40625 155.84375 182.628906 155.550781 182.792969 C 153.644531 183.851562 151.621094 184.6875 149.757812 185.832031 C 146.890625 187.589844 143.949219 189.238281 140.886719 190.609375 C 134.464844 193.488281 128.203125 196.667969 122.082031 200.128906 C 121.078125 200.695312 120.039062 201.242188 119.234375 202.132812 C 119.394531 202.070312 119.558594 202.015625 119.714844 201.9375 Z M 131.660156 121.21875 C 136.421875 124.816406 141.015625 128.625 145.628906 132.40625 C 149.628906 135.691406 153.5625 139.0625 157.535156 142.382812 C 158.042969 142.808594 158.613281 143.160156 159.164062 143.535156 C 159.367188 143.675781 159.613281 143.785156 159.820312 143.5625 C 160.046875 143.324219 159.972656 143.050781 159.785156 142.824219 C 159.632812 142.640625 159.453125 142.46875 159.265625 142.320312 C 158.269531 141.527344 157.289062 140.714844 156.265625 139.964844 C 151.011719 136.109375 145.964844 132.007812 141.136719 127.628906 C 138.265625 125.023438 135.320312 122.5 131.960938 120.519531 C 131.550781 120.28125 131.15625 119.976562 130.582031 120.023438 C 130.765625 120.617188 131.242188 120.902344 131.660156 121.21875 Z M 117.394531 174.34375 C 123.152344 173.5625 128.910156 172.746094 134.675781 171.992188 C 139.480469 171.367188 144.332031 171.1875 149.152344 170.707031 C 150.089844 170.617188 151.015625 170.472656 151.925781 170.234375 C 152.199219 170.164062 152.464844 170.019531 152.429688 169.6875 C 152.386719 169.296875 152.078125 169.234375 151.75 169.253906 C 151.570312 169.265625 151.390625 169.300781 151.210938 169.328125 C 145.625 170.273438 140.007812 170.929688 134.359375 171.417969 C 127.816406 171.984375 121.273438 172.652344 114.828125 174.003906 C 114.363281 174.101562 113.867188 174.128906 113.292969 174.601562 C 114.828125 174.6875 116.113281 174.519531 117.394531 174.34375 Z M 180.234375 91.523438 C 180.34375 93.644531 180.628906 95.746094 180.914062 97.84375 C 181.792969 104.351562 182.722656 110.855469 183.585938 117.367188 C 184.089844 121.144531 184.496094 124.9375 184.988281 128.71875 C 185.042969 129.160156 184.984375 129.96875 185.730469 129.832031 C 186.421875 129.707031 186.160156 128.996094 186.078125 128.523438 C 185.644531 125.925781 185.101562 123.34375 184.742188 120.738281 C 183.601562 112.460938 182.535156 104.175781 181.414062 95.898438 C 181.164062 94.050781 180.984375 92.183594 180.425781 90.296875 C 180.121094 90.746094 180.214844 91.144531 180.234375 91.523438 Z M 197.425781 106.34375 C 196.628906 111.339844 196.199219 116.386719 195.214844 121.351562 C 194.734375 123.761719 194.476562 126.203125 194.144531 128.632812 C 194.074219 129.125 193.804688 129.90625 194.519531 130.03125 C 195.277344 130.164062 195.203125 129.328125 195.292969 128.84375 C 195.460938 127.921875 195.574219 126.984375 195.644531 126.050781 C 195.894531 122.878906 196.105469 119.699219 196.722656 116.574219 C 197.503906 112.617188 198.019531 108.625 198.503906 104.628906 C 198.613281 103.714844 198.785156 102.78125 198.4375 101.847656 C 197.875 103.304688 197.664062 104.832031 197.425781 106.34375 Z M 130.398438 188.632812 C 137.179688 185.875 143.96875 183.148438 150.917969 180.828125 C 152.003906 180.464844 153.136719 180.179688 154.105469 179.539062 C 154.382812 179.355469 154.816406 179.125 154.554688 178.6875 C 154.339844 178.324219 153.949219 178.511719 153.648438 178.621094 C 152.28125 179.109375 150.898438 179.566406 149.5625 180.128906 C 144.679688 182.175781 139.710938 184 134.78125 185.929688 C 132.324219 186.890625 130.066406 188.210938 127.847656 189.609375 C 128.710938 189.289062 129.558594 188.972656 130.398438 188.632812 Z M 215.054688 104.96875 C 214.941406 105.179688 214.8125 105.382812 214.714844 105.601562 C 213.203125 109.074219 211.683594 112.542969 210.1875 116.023438 C 209.277344 118.136719 208.441406 120.285156 207.511719 122.390625 C 206.425781 124.859375 205.269531 127.296875 204.164062 129.753906 C 203.828125 130.5 203.554688 131.273438 203.425781 132.089844 C 203.382812 132.367188 203.355469 132.660156 203.695312 132.773438 C 204.023438 132.882812 204.203125 132.660156 204.347656 132.417969 C 204.441406 132.261719 204.511719 132.09375 204.574219 131.925781 C 205.09375 130.53125 205.574219 129.128906 206.132812 127.75 C 207.480469 124.410156 208.746094 121.023438 210.269531 117.757812 C 211.882812 114.292969 213.351562 110.777344 214.644531 107.183594 C 214.898438 106.476562 215.222656 105.800781 215.519531 105.109375 C 215.363281 105.0625 215.210938 105.015625 215.054688 104.96875 Z M 125.992188 156.695312 C 134.285156 158.097656 142.675781 158.851562 150.953125 160.363281 C 151.304688 160.429688 151.675781 160.410156 152.035156 160.394531 C 152.3125 160.378906 152.617188 160.300781 152.617188 159.949219 C 152.617188 159.578125 152.292969 159.566406 152.023438 159.535156 C 150.972656 159.40625 149.921875 159.269531 148.871094 159.15625 C 143.027344 158.539062 137.273438 157.304688 131.429688 156.703125 C 129.339844 156.488281 127.253906 156.105469 124.992188 156.332031 C 125.382812 156.65625 125.699219 156.648438 125.992188 156.695312 Z M 131.730469 142.792969 C 136.296875 144.894531 141.089844 146.4375 145.703125 148.429688 C 148.316406 149.554688 150.945312 150.644531 153.582031 151.707031 C 154 151.875 154.699219 152.285156 154.925781 151.621094 C 155.136719 151.007812 154.347656 150.964844 153.945312 150.808594 C 149.597656 149.121094 145.140625 147.691406 140.953125 145.640625 C 137.765625 144.082031 134.472656 142.980469 130.847656 142.273438 C 131.152344 142.652344 131.46875 142.675781 131.730469 142.792969 Z M 167.511719 110.53125 C 167.769531 111.308594 167.984375 112.101562 168.3125 112.847656 C 170.84375 118.550781 172.964844 124.410156 174.941406 130.324219 C 175.058594 130.664062 175.226562 130.992188 175.402344 131.304688 C 175.523438 131.523438 175.726562 131.695312 176.003906 131.582031 C 176.28125 131.472656 176.308594 131.214844 176.242188 130.96875 C 176.089844 130.382812 175.964844 129.785156 175.746094 129.226562 C 173.628906 123.816406 171.503906 118.40625 169.195312 113.074219 C 168.773438 112.09375 168.269531 111.148438 167.582031 110.171875 C 167.539062 110.382812 167.488281 110.46875 167.511719 110.53125 Z M 154.171875 120.132812 C 155.828125 122.519531 157.742188 124.710938 159.457031 127.050781 C 161.410156 129.707031 163.292969 132.414062 165.210938 135.09375 C 165.472656 135.460938 165.761719 135.816406 166.070312 136.144531 C 166.3125 136.398438 166.59375 136.761719 166.992188 136.484375 C 167.402344 136.195312 167.128906 135.828125 166.953125 135.523438 C 166.804688 135.261719 166.613281 135.023438 166.429688 134.785156 C 163.273438 130.726562 160.128906 126.660156 156.953125 122.621094 C 156.050781 121.472656 155.207031 120.253906 153.914062 119.328125 C 153.832031 119.78125 154.039062 119.945312 154.171875 120.132812 Z M 135.109375 165.820312 C 137.316406 165.816406 139.527344 165.796875 141.734375 165.707031 C 144.640625 165.585938 147.53125 166.078125 150.4375 165.890625 C 150.921875 165.859375 151.410156 165.871094 151.855469 165.628906 C 152.042969 165.527344 152.238281 165.40625 152.1875 165.148438 C 152.140625 164.914062 151.960938 164.792969 151.730469 164.773438 C 151.160156 164.730469 150.582031 164.660156 150.011719 164.671875 C 145.082031 164.777344 140.15625 164.886719 135.226562 165.027344 C 134.585938 165.042969 133.90625 165.015625 133.257812 165.410156 C 133.839844 165.910156 134.503906 165.824219 135.109375 165.820312 Z M 176.332031 113.597656 C 176.765625 115.550781 177.113281 117.523438 177.664062 119.4375 C 178.582031 122.609375 179.003906 125.910156 180.183594 129.007812 C 180.367188 129.5 180.429688 130.398438 181.136719 130.210938 C 181.964844 129.988281 181.539062 129.148438 181.347656 128.652344 C 179.875 124.886719 179.136719 120.914062 178.070312 117.035156 C 177.660156 115.539062 177.058594 114.109375 176.238281 112.742188 C 176.269531 113.027344 176.273438 113.320312 176.332031 113.597656 Z M 240.320312 129.84375 C 239.195312 130.605469 238.039062 131.324219 236.953125 132.136719 C 233 135.097656 228.949219 137.910156 224.777344 140.554688 C 222.886719 141.75 220.980469 142.9375 219.261719 144.390625 C 218.976562 144.632812 218.46875 144.933594 218.738281 145.320312 C 219.066406 145.785156 219.441406 145.265625 219.71875 145.070312 C 221.96875 143.476562 224.171875 141.816406 226.441406 140.257812 C 230.339844 137.589844 234.214844 134.894531 237.996094 132.058594 C 238.847656 131.421875 239.625 130.679688 240.4375 129.984375 C 240.398438 129.9375 240.359375 129.890625 240.320312 129.84375 Z M 189.386719 112.078125 C 189.265625 115.316406 189.503906 118.550781 189.324219 121.789062 C 189.210938 123.777344 189.304688 125.78125 189.316406 127.777344 C 189.316406 128.203125 189.347656 128.628906 189.523438 129.023438 C 189.621094 129.242188 189.730469 129.496094 190.035156 129.441406 C 190.292969 129.394531 190.34375 129.152344 190.351562 128.945312 C 190.382812 128.21875 190.429688 127.492188 190.398438 126.769531 C 190.242188 122.898438 190.015625 119.035156 190.234375 115.15625 C 190.308594 113.835938 190.367188 112.492188 190.082031 111.175781 C 190.039062 110.976562 190.089844 110.636719 189.652344 110.78125 C 189.40625 111.171875 189.402344 111.628906 189.386719 112.078125 Z M 151.242188 129.695312 C 154.433594 132.960938 157.621094 136.222656 160.816406 139.480469 C 161.152344 139.824219 161.5 140.171875 161.945312 140.382812 C 162.214844 140.507812 162.488281 140.519531 162.683594 140.261719 C 162.851562 140.035156 162.769531 139.789062 162.613281 139.59375 C 162.386719 139.308594 162.148438 139.035156 161.890625 138.78125 C 158.617188 135.554688 155.152344 132.535156 151.742188 129.457031 C 151.492188 129.230469 151.261719 128.90625 150.828125 128.949219 C 150.777344 129.316406 151.046875 129.492188 151.242188 129.695312 Z M 143.695312 140.007812 C 147.234375 141.9375 150.5 144.320312 154.023438 146.273438 C 154.816406 146.710938 155.644531 147.089844 156.46875 147.472656 C 156.714844 147.589844 157.03125 147.652344 157.199219 147.351562 C 157.359375 147.058594 157.15625 146.820312 156.929688 146.65625 C 156.660156 146.464844 156.371094 146.289062 156.078125 146.132812 C 152.242188 144.121094 148.515625 141.921875 144.792969 139.710938 C 144.003906 139.242188 143.164062 138.945312 142.023438 138.660156 C 142.621094 139.351562 143.148438 139.710938 143.695312 140.007812 Z M 137.675781 177.992188 C 137.761719 178.347656 138.136719 178.207031 138.378906 178.183594 C 138.886719 178.132812 139.40625 178.070312 139.898438 177.933594 C 142.785156 177.113281 145.714844 176.492188 148.660156 175.929688 C 149.90625 175.691406 151.132812 175.328125 152.355469 174.980469 C 152.710938 174.878906 153.195312 174.738281 153.0625 174.207031 C 152.921875 173.648438 152.429688 173.722656 152.007812 173.796875 C 151.59375 173.871094 151.179688 173.984375 150.78125 174.121094 C 147.917969 175.113281 145 175.917969 142.023438 176.507812 C 140.71875 176.765625 139.417969 177.0625 138.121094 177.5625 C 138.027344 177.730469 137.605469 177.691406 137.675781 177.992188 Z M 227.476562 131.53125 C 227.316406 131.617188 227.144531 131.679688 227.003906 131.785156 C 224.035156 133.984375 221.070312 136.183594 218.113281 138.394531 C 217.242188 139.042969 216.328125 139.65625 215.652344 140.53125 C 215.4375 140.804688 215.089844 141.144531 215.425781 141.484375 C 215.757812 141.828125 216.105469 141.484375 216.382812 141.277344 C 219.078125 139.222656 221.730469 137.109375 224.234375 134.816406 C 225.363281 133.78125 226.464844 132.71875 227.582031 131.671875 C 227.546875 131.625 227.511719 131.578125 227.476562 131.53125 Z M 216.039062 123.5 C 213.804688 126.617188 211.570312 129.738281 209.359375 132.875 C 208.976562 133.414062 208.703125 134.03125 208.394531 134.617188 C 208.265625 134.867188 208.15625 135.15625 208.429688 135.359375 C 208.757812 135.601562 208.988281 135.335938 209.195312 135.117188 C 209.320312 134.988281 209.421875 134.835938 209.527344 134.691406 C 212.089844 131.269531 214.199219 127.566406 216.390625 123.910156 C 216.566406 123.613281 216.796875 123.304688 216.679688 122.898438 C 216.324219 122.957031 216.207031 123.265625 216.039062 123.5 Z M 132.855469 179.382812 C 133.121094 179.894531 133.582031 179.992188 134.085938 179.742188 C 134.527344 179.523438 134.695312 179.148438 134.453125 178.691406 C 134.179688 178.179688 133.71875 178.136719 133.222656 178.292969 C 132.789062 178.566406 132.628906 178.941406 132.855469 179.382812 Z M 129.308594 164.582031 C 128.882812 164.824219 128.746094 165.246094 128.992188 165.671875 C 129.253906 166.125 129.695312 166.242188 130.164062 165.992188 C 130.613281 165.75 130.671875 165.355469 130.46875 164.882812 C 130.175781 164.464844 129.769531 164.320312 129.308594 164.582031 Z M 175.125 108.164062 C 174.703125 108.394531 174.636719 108.84375 174.816406 109.265625 C 175.019531 109.742188 175.425781 109.949219 175.910156 109.710938 C 176.359375 109.488281 176.40625 109.074219 176.21875 108.601562 C 175.957031 108.242188 175.628906 107.886719 175.125 108.164062 Z M 233.691406 125.050781 C 233.257812 125.320312 233.066406 125.722656 233.335938 126.195312 C 233.589844 126.640625 234.011719 126.671875 234.421875 126.421875 C 234.863281 126.15625 235.015625 125.765625 234.773438 125.246094 C 234.488281 124.871094 234.109375 124.789062 233.691406 125.050781 Z M 174.285156 103.414062 C 173.808594 103.707031 173.726562 104.183594 173.988281 104.667969 C 174.207031 105.070312 174.589844 105.171875 174.984375 104.953125 C 175.480469 104.679688 175.449219 104.242188 175.222656 103.738281 C 175.003906 103.445312 174.710938 103.144531 174.285156 103.414062 Z M 219.21875 119.355469 C 219 118.949219 218.621094 118.851562 218.21875 119.074219 C 217.792969 119.308594 217.613281 119.695312 217.875 120.132812 C 218.109375 120.527344 218.503906 120.546875 218.910156 120.363281 C 219.265625 120.105469 219.4375 119.761719 219.21875 119.355469 Z M 145.226562 124.140625 C 145.429688 124.542969 145.78125 124.71875 146.203125 124.535156 C 146.65625 124.335938 146.800781 123.949219 146.601562 123.492188 C 146.398438 123.03125 146.023438 122.914062 145.519531 123.070312 C 145.160156 123.335938 145.003906 123.695312 145.226562 124.140625 Z M 138.558594 137.597656 C 138.808594 138.035156 139.207031 138.128906 139.636719 137.898438 C 140.011719 137.695312 140.09375 137.335938 139.890625 136.972656 C 139.644531 136.539062 139.257812 136.464844 138.816406 136.652344 C 138.476562 136.90625 138.347656 137.226562 138.558594 137.597656 Z M 229.925781 129.1875 C 230.117188 129.554688 230.460938 129.664062 230.839844 129.476562 C 231.246094 129.269531 231.378906 128.90625 231.195312 128.496094 C 231.011719 128.085938 230.652344 128.089844 230.273438 128.222656 C 229.898438 128.449219 229.703125 128.765625 229.925781 129.1875 Z M 128.925781 179.539062 C 128.5625 179.769531 128.46875 180.109375 128.699219 180.472656 C 128.933594 180.835938 129.289062 180.863281 129.648438 180.667969 C 130.023438 180.464844 130.128906 180.148438 129.949219 179.757812 C 129.667969 179.382812 129.320312 179.292969 128.925781 179.539062 Z M 220.59375 115.609375 C 220.191406 115.832031 220.058594 116.199219 220.300781 116.605469 C 220.5 116.9375 220.839844 116.984375 221.171875 116.796875 C 221.546875 116.582031 221.617188 116.25 221.460938 115.867188 C 221.238281 115.542969 220.9375 115.425781 220.59375 115.609375 Z M 148.128906 125.972656 C 147.761719 126.1875 147.679688 126.53125 147.886719 126.902344 C 148.074219 127.242188 148.386719 127.332031 148.730469 127.152344 C 149.105469 126.957031 149.195312 126.632812 149.039062 126.199219 C 148.8125 125.910156 148.5 125.753906 148.128906 125.972656 Z M 189.246094 107.210938 C 188.910156 107.394531 188.777344 107.6875 188.941406 108.050781 C 189.105469 108.414062 189.410156 108.535156 189.761719 108.378906 C 190.15625 108.203125 190.230469 107.859375 190.089844 107.433594 C 189.878906 107.148438 189.597656 107.019531 189.246094 107.210938 Z M 189.246094 107.210938 " fill-opacity="1" fill-rule="nonzero"/></g></g></g><path stroke-linecap="butt" transform="matrix(0.540469, 0, 0, 0.540469, 90.320346, 254.999633)" fill="none" stroke-linejoin="miter" d="M 41.67383 54.763613 C 41.464232 54.763613 41.276317 54.835889 41.110084 55.002122 C 38.833414 57.271564 35.624394 60.834732 32.321417 64.636409 C 32.249142 64.701456 32.205776 64.723139 32.111819 64.723139 C 29.271403 64.607498 26.322574 64.607498 23.438792 64.701456 L 23.366517 64.701456 C 23.3882 64.701456 23.41711 64.679774 23.438792 64.658091 C 25.831102 61.911633 28.122227 59.403683 29.813467 57.71967 C 29.95079 57.553437 30.044747 57.365521 30.044747 57.155923 C 30.044747 56.736727 29.719509 56.382578 29.300313 56.382578 C 29.061804 56.382578 28.873889 56.476536 28.736566 56.613859 C 26.814045 58.56529 24.139862 61.492436 21.371721 64.679774 C 21.306673 64.773731 21.256081 64.795414 21.14044 64.817097 C 17.974786 64.98333 15.257237 65.315796 13.009478 65.807267 C 12.633647 65.872315 12.373456 66.183098 12.373456 66.551702 C 12.373456 66.978126 12.727605 67.303364 13.146801 67.303364 C 13.219076 67.303364 13.262441 67.303364 13.313034 67.281682 C 15.16328 66.90585 17.345991 66.623977 19.853941 66.414379 L 19.897307 66.414379 C 19.897307 66.414379 19.875624 66.414379 19.875624 66.436062 C 18.401209 68.170667 16.948478 69.905272 15.560793 71.596512 C 15.495746 71.69047 15.445153 71.712153 15.329513 71.712153 C 12.583054 71.921751 10.219655 72.203624 8.224858 72.65173 C 7.877937 72.716778 7.617747 73.049244 7.617747 73.396165 C 7.617747 73.822589 7.942985 74.16951 8.369409 74.16951 C 8.434457 74.16951 8.485049 74.16951 8.557324 74.147827 C 10.125697 73.793679 11.997625 73.540716 14.108061 73.331117 L 14.158654 73.331117 C 14.129744 73.331117 14.129744 73.3528 14.108061 73.374483 C 11.975942 76.026983 10.40757 78.086827 9.612543 79.308278 C 9.518585 79.445601 9.467992 79.561241 9.467992 79.749157 C 9.467992 80.168353 9.822141 80.500819 10.241337 80.500819 C 10.501528 80.500819 10.732809 80.356269 10.877359 80.146671 C 11.809709 78.744531 13.76114 76.207671 16.146223 73.302207 C 16.218498 73.20825 16.26909 73.164884 16.384731 73.164884 C 19.080597 72.998651 22.080018 72.955286 25.19508 73.049244 L 25.267355 73.049244 C 25.245673 73.049244 25.216763 73.070927 25.19508 73.092609 C 22.029425 76.937651 19.384152 80.356269 18.162701 82.213742 C 18.068743 82.351065 17.996468 82.495615 17.996468 82.654621 C 17.996468 83.081045 18.372299 83.406283 18.777041 83.406283 C 19.030004 83.406283 19.268512 83.290643 19.427518 83.081045 C 20.721244 81.107931 23.64839 77.356847 27.067008 73.20825 C 27.139284 73.114292 27.189876 73.092609 27.305517 73.092609 C 29.741191 73.186567 32.133501 73.3528 34.222255 73.562398 L 34.308985 73.562398 C 34.735409 73.562398 35.08233 73.23716 35.08233 72.810736 C 35.08233 72.413222 34.778774 72.087984 34.381261 72.037391 C 32.552698 71.878386 30.565129 71.733835 28.454693 71.618195 L 28.382417 71.618195 L 28.43301 71.567602 C 29.885742 69.832997 31.360156 68.076709 32.834571 66.392696 C 32.885164 66.320421 32.928529 66.298739 33.044169 66.298739 C 35.08233 66.392696 37.127719 66.551702 39.02133 66.717935 L 39.093605 66.717935 C 39.512801 66.717935 39.845267 66.392696 39.845267 65.94459 C 39.845267 65.568759 39.541711 65.24352 39.16588 65.192928 C 37.568598 65.055605 35.906268 64.911054 34.222255 64.846007 L 34.171662 64.846007 C 34.193345 64.846007 34.193345 64.817097 34.222255 64.795414 C 37.221677 61.326203 40.09823 58.160549 42.208667 56.05734 C 42.353217 55.934472 42.447175 55.724874 42.447175 55.515276 C 42.447175 55.096079 42.093027 54.763613 41.67383 54.763613 Z M 30.91205 66.248146 C 29.459318 67.961069 27.984904 69.717356 26.553854 71.451962 C 26.481579 71.524237 26.438214 71.524237 26.344256 71.524237 C 23.460475 71.451962 20.461053 71.451962 17.598955 71.567602 L 17.533907 71.567602 C 17.555589 71.567602 17.555589 71.54592 17.577272 71.524237 C 18.986639 69.832997 20.461053 68.098392 21.935468 66.392696 C 21.98606 66.298739 22.051108 66.269829 22.173976 66.269829 C 24.869842 66.154188 27.840353 66.132506 30.890367 66.204781 C 31.006008 66.204781 31.006008 66.183098 30.91205 66.248146 Z M 30.875912 90.951816 C 31.208378 90.951816 31.461342 90.763901 31.576982 90.482027 C 31.743215 90.135106 31.981723 89.687 32.306962 89.123253 C 32.379237 88.964248 32.473195 88.913655 32.6322 88.891972 C 33.456138 88.84138 34.2078 88.819697 34.814912 88.819697 C 37.185539 88.819697 38.775594 89.007613 39.505574 89.332851 C 39.621214 89.405126 39.736854 89.426809 39.852495 89.426809 C 40.278919 89.426809 40.604157 89.10157 40.604157 88.682374 C 40.604157 88.371591 40.437924 88.096945 40.156051 87.974077 C 39.2237 87.533198 37.41682 87.29469 34.814912 87.29469 C 34.460763 87.29469 34.06325 87.29469 33.593461 87.3236 C 33.405545 87.345283 33.405545 87.29469 33.47782 87.135685 C 37.980567 80.103306 48.735119 65.734992 57.314188 56.245255 C 57.458738 56.100705 57.502103 56.079022 57.711702 56.100705 C 59.258391 56.310303 60.971314 56.686134 62.655327 57.155923 C 62.749284 57.177606 62.82156 57.206516 62.893835 57.206516 C 63.313031 57.206516 63.66718 56.852367 63.66718 56.433171 C 63.66718 56.100705 63.428671 55.775467 63.08175 55.703191 C 61.766341 55.32736 60.385885 55.023804 58.954835 54.741931 C 58.788602 54.720248 58.76692 54.698566 58.860878 54.575698 L 59.684815 53.708395 C 59.800455 53.571072 59.894413 53.383157 59.894413 53.195241 C 59.894413 52.776045 59.540265 52.421896 59.121068 52.421896 C 58.91147 52.421896 58.723555 52.515854 58.579004 52.653177 C 58.369406 52.870003 58.181491 53.057918 57.993575 53.267516 C 57.690019 53.592755 57.364781 53.925221 57.032315 54.293825 C 56.938357 54.416692 56.822716 54.460058 56.656483 54.438375 C 55.630175 54.344417 54.690597 54.272142 53.86666 54.272142 C 50.917831 54.272142 48.359288 54.554015 47.470303 54.951529 C 47.239022 55.067169 47.022197 55.349043 47.022197 55.659826 C 47.022197 56.079022 47.376345 56.404261 47.795541 56.404261 C 47.918409 56.404261 48.03405 56.382578 48.128007 56.339213 C 48.785712 56.02843 51.243069 55.797149 53.86666 55.797149 C 54.336449 55.797149 54.82792 55.818832 55.369984 55.869424 C 55.579583 55.891107 55.579583 55.912789 55.463942 56.02843 C 46.559635 65.995183 35.682215 80.667052 31.605892 87.29469 C 31.533617 87.43924 31.439659 87.482606 31.273426 87.504288 C 29.141307 87.721114 26.65504 88.096945 24.551831 88.704057 C 24.219365 88.798015 23.988084 89.123253 23.988084 89.455719 C 23.988084 89.874915 24.313322 90.229064 24.739746 90.229064 C 24.833704 90.229064 24.898752 90.200154 24.971027 90.178471 C 26.445441 89.780958 28.274004 89.405126 30.341076 89.123253 C 30.528991 89.123253 30.528991 89.123253 30.456716 89.311169 L 30.174843 89.874915 C 30.12425 89.990556 30.102568 90.084513 30.102568 90.200154 C 30.102568 90.626578 30.456716 90.951816 30.875912 90.951816 Z M 90.748705 62.61993 C 82.986346 62.287464 74.949342 62.309146 67.100253 62.59102 C 72.210111 56.664452 77.341651 50.947482 82.335869 45.461793 C 82.494875 45.346152 82.545467 45.158237 82.545467 44.970321 C 82.545467 44.543897 82.213001 44.196976 81.793805 44.196976 C 81.584207 44.196976 81.374609 44.290934 81.230058 44.44994 C 75.556453 50.593333 70.143039 56.686134 65.011499 62.663295 C 56.483023 63.039126 48.164145 63.718513 40.661977 64.658091 C 40.264463 64.701456 39.98259 65.055605 39.98259 65.431436 C 39.98259 65.850632 40.307829 66.183098 40.734252 66.183098 L 40.849893 66.183098 C 47.853362 65.286886 55.637403 64.607498 63.674407 64.260577 C 51.748996 78.318108 40.192188 93.271851 31.099966 107.661847 C 30.91205 107.922038 30.7675 108.203911 30.673542 108.435192 L 30.673542 108.464102 C 30.442261 109.165172 30.724134 109.60605 31.403522 109.60605 C 31.894993 109.60605 32.502105 109.020621 33.138127 107.965403 C 33.326042 107.640164 33.347725 107.358291 33.232085 107.170375 C 42.396582 92.874337 53.902798 78.065144 65.763161 64.16662 C 74.226589 63.812471 82.7117 63.812471 90.676429 64.13771 L 90.727022 64.13771 C 91.146218 64.13771 91.471457 63.790788 91.471457 63.364365 C 91.471457 62.966851 91.167901 62.61993 90.748705 62.61993 Z M 96.219939 76.395587 C 96.060933 76.395587 95.916383 76.424497 95.77906 76.540137 C 90.409011 80.573095 81.95281 83.760432 78.975071 83.760432 C 77.450064 83.760432 76.842952 83.312325 76.842952 82.213742 C 76.842952 80.428544 78.339049 78.22415 79.466543 76.634095 C 80.14593 75.651152 80.565126 75.01513 80.565126 74.523659 C 80.565126 74.010505 80.167612 73.634673 79.654458 73.634673 C 79.184669 73.634673 78.45469 74.075552 76.069607 75.810158 C 75.505861 74.877807 74.732516 74.501976 73.373742 74.501976 C 70.020172 74.501976 61.209822 80.009348 61.209822 83.384601 C 61.209822 84.439819 61.954257 85.119206 63.132343 85.119206 C 65.893256 85.119206 71.942692 80.667052 75.997332 77.754361 C 76.300888 77.544763 76.604444 77.313482 76.864635 77.103884 C 77.218783 76.865376 77.356106 77.009926 77.146508 77.356847 C 76.185248 78.881854 75.296263 80.61646 75.296263 82.213742 C 75.296263 84.201311 76.604444 85.278211 78.975071 85.278211 C 82.415372 85.278211 91.297996 81.628313 96.668045 77.783271 C 96.877643 77.638721 96.993284 77.40744 96.993284 77.147249 C 96.993284 76.749735 96.646363 76.395587 96.219939 76.395587 Z M 74.826474 76.70637 C 69.478107 80.573095 65.170504 83.572516 63.132343 83.572516 C 62.872152 83.572516 62.734829 83.478558 62.734829 83.218368 C 62.734829 81.252482 70.208087 76.026983 73.373742 76.026983 C 74.241044 76.026983 74.494008 76.164306 74.826474 76.70637 Z M 141.059485 37.677751 C 141.059485 36.318977 140.148817 35.52395 138.674403 35.52395 C 130.586806 35.52395 91.232949 75.036813 91.232949 86.456297 C 91.232949 88.516141 92.338759 89.477402 94.658794 89.477402 C 98.453243 89.477402 109.330664 83.478558 117.504991 77.826636 C 117.721817 77.689313 117.837457 77.450805 117.837457 77.197842 C 117.837457 76.771418 117.504991 76.424497 117.085795 76.424497 C 116.897879 76.424497 116.760556 76.467862 116.637688 76.583502 C 107.523783 82.893129 97.701581 87.952394 94.658794 87.952394 C 93.155469 87.952394 92.757956 87.627156 92.757956 86.456297 C 92.757956 84.6711 93.885449 81.902959 96.111526 78.296425 C 112.445726 68.409175 141.059485 43.351356 141.059485 37.677751 Z M 138.674403 37.048957 C 139.35379 37.048957 139.541706 37.207963 139.541706 37.677751 C 139.541706 42.035947 115.213867 64.072662 98.193052 75.159681 C 109.113838 59.620508 133.044163 37.048957 138.674403 37.048957 Z M 121.921007 72.861329 C 122.152288 72.861329 122.390796 72.767371 122.528119 72.579455 C 122.600394 72.463815 122.716034 72.319264 122.853357 72.131349 C 123.164141 71.733835 123.539972 71.191771 123.74957 70.982173 C 123.843528 70.84485 123.908576 70.656934 123.908576 70.490701 C 123.908576 70.071505 123.561655 69.739039 123.135231 69.739039 C 122.90395 69.739039 122.694352 69.832997 122.549801 69.99923 L 121.306668 71.639877 C 121.21271 71.755518 121.147662 71.943433 121.147662 72.109666 C 121.147662 72.528863 121.494583 72.861329 121.921007 72.861329 Z M 115.755931 85.77691 C 118.986633 85.77691 129.162984 81.064566 134.294525 77.804954 C 134.504123 77.689313 134.670356 77.40744 134.670356 77.147249 C 134.670356 76.749735 134.294525 76.395587 133.897011 76.395587 C 133.781371 76.395587 133.63682 76.424497 133.499497 76.489545 C 128.433004 79.705792 118.639712 84.222993 115.755931 84.222993 C 114.816353 84.222993 114.440522 83.897755 114.440522 83.081045 C 114.440522 81.765636 116.666599 78.621664 119.926211 75.297003 L 119.947894 75.275321 C 120.070761 75.109088 120.135809 74.942855 120.135809 74.754939 C 120.135809 74.357426 119.759978 73.981594 119.362464 73.981594 C 119.152866 73.981594 118.964951 74.075552 118.827628 74.220103 C 115.076544 78.086827 112.922742 81.317529 112.922742 83.081045 C 112.922742 84.765057 113.970733 85.77691 115.755931 85.77691 Z M 161.918114 76.395587 C 161.759108 76.395587 161.614558 76.424497 161.477235 76.540137 C 156.107186 80.573095 147.643758 83.760432 144.673246 83.760432 C 143.148239 83.760432 142.5339 83.312325 142.5339 82.213742 C 142.5339 80.428544 144.037224 78.22415 145.164718 76.634095 C 145.844105 75.651152 146.263301 75.01513 146.263301 74.523659 C 146.263301 74.010505 145.865787 73.634673 145.352633 73.634673 C 144.882844 73.634673 144.152865 74.075552 141.760555 75.810158 C 141.204036 74.877807 140.430691 74.501976 139.071917 74.501976 C 135.718347 74.501976 126.907997 80.009348 126.907997 83.384601 C 126.907997 84.439819 127.652432 85.119206 128.823291 85.119206 C 131.591431 85.119206 137.640867 80.667052 141.695507 77.754361 C 141.999063 77.544763 142.302619 77.313482 142.56281 77.103884 C 142.909731 76.865376 143.054281 77.009926 142.844683 77.356847 C 141.883423 78.881854 140.98721 80.61646 140.98721 82.213742 C 140.98721 84.201311 142.302619 85.278211 144.673246 85.278211 C 148.113547 85.278211 156.996171 81.628313 162.36622 77.783271 C 162.575818 77.638721 162.691459 77.40744 162.691459 77.147249 C 162.691459 76.749735 162.344538 76.395587 161.918114 76.395587 Z M 140.524649 76.70637 C 135.176282 80.573095 130.868679 83.572516 128.823291 83.572516 C 128.570327 83.572516 128.425777 83.478558 128.425777 83.218368 C 128.425777 81.252482 135.906262 76.026983 139.071917 76.026983 C 139.939219 76.026983 140.192183 76.164306 140.524649 76.70637 Z M 209.142742 76.373904 C 208.983737 76.373904 208.817504 76.424497 208.701864 76.489545 C 202.348872 80.854968 194.051677 83.760432 190.654741 83.760432 C 189.108052 83.760432 188.522622 83.312325 188.522622 82.213742 C 188.522622 81.505445 189.223692 79.987665 190.604149 77.754361 C 190.719789 77.992869 190.958297 78.10851 191.24017 78.10851 C 191.637684 78.10851 191.991833 77.783271 191.991833 77.385757 C 192.035198 76.887058 191.991833 76.424497 191.775007 75.954708 C 192.295389 75.181363 192.880818 74.335743 193.48793 73.46844 C 207.805651 60.133662 227.587379 39.621955 227.587379 36.998364 C 227.587379 36.066014 227.030859 35.52395 225.997324 35.52395 C 222.412473 35.52395 202.580153 58.189459 192.67122 72.109666 L 192.714585 72.087984 C 191.8256 72.904694 190.97998 73.699721 190.206635 74.429701 C 189.715163 74.241785 189.202009 74.147827 188.638263 74.147827 C 184.229474 74.147827 177.435603 79.864797 177.435603 83.594199 C 177.435603 84.533777 178.064398 85.119206 179.076251 85.119206 C 180.059194 85.119206 183.152573 82.770261 188.190156 78.318108 C 188.493712 78.014552 188.681628 78.159102 188.47203 78.527706 C 187.489087 80.262311 186.997615 81.534355 186.997615 82.213742 C 186.997615 84.201311 188.284114 85.278211 190.654741 85.278211 C 194.311867 85.278211 202.955984 82.257107 209.540256 77.783271 C 209.778764 77.617038 209.894405 77.385757 209.894405 77.125567 C 209.894405 76.70637 209.569166 76.373904 209.142742 76.373904 Z M 225.997324 37.048957 C 226.091282 37.048957 226.091282 37.092322 226.091282 37.164597 C 226.091282 38.783562 207.34309 57.950951 199.23381 65.850632 C 210.313601 51.691917 223.886887 37.048957 225.997324 37.048957 Z M 179.170209 83.572516 C 179.076251 83.572516 178.960611 83.543606 178.960611 83.384601 C 178.960611 80.7321 185.096777 75.672835 188.638263 75.672835 L 188.847861 75.672835 C 183.318806 80.7321 179.777321 83.572516 179.170209 83.572516 Z M 237.134935 76.395587 C 236.97593 76.395587 236.831379 76.424497 236.694056 76.540137 C 231.324007 80.573095 222.867807 83.760432 219.890068 83.760432 C 218.365061 83.760432 217.757949 83.312325 217.757949 82.213742 C 217.757949 80.428544 219.254046 78.22415 220.381539 76.634095 C 221.060926 75.651152 221.480123 75.01513 221.480123 74.523659 C 221.480123 74.010505 221.082609 73.634673 220.569455 73.634673 C 220.099666 73.634673 219.369686 74.075552 216.984604 75.810158 C 216.420857 74.877807 215.647512 74.501976 214.288738 74.501976 C 210.935168 74.501976 202.124819 80.009348 202.124819 83.384601 C 202.124819 84.439819 202.869253 85.119206 204.047339 85.119206 C 206.808253 85.119206 212.857689 80.667052 216.912329 77.754361 C 217.215885 77.544763 217.51944 77.313482 217.779631 77.103884 C 218.13378 76.865376 218.271103 77.009926 218.061505 77.356847 C 217.100244 78.881854 216.211259 80.61646 216.211259 82.213742 C 216.211259 84.201311 217.51944 85.278211 219.890068 85.278211 C 223.330368 85.278211 232.212993 81.628313 237.583042 77.783271 C 237.79264 77.638721 237.90828 77.40744 237.90828 77.147249 C 237.90828 76.749735 237.561359 76.395587 237.134935 76.395587 Z M 215.74147 76.70637 C 210.393104 80.573095 206.085501 83.572516 204.047339 83.572516 C 203.787149 83.572516 203.642598 83.478558 203.642598 83.218368 C 203.642598 81.252482 211.123084 76.026983 214.288738 76.026983 C 215.156041 76.026983 215.409004 76.164306 215.74147 76.70637 Z M 283.99096 76.395587 C 283.868092 76.395587 283.709087 76.424497 283.593447 76.518455 C 279.350891 79.120363 273.792927 80.218946 269.0589 80.898333 C 270.186393 79.423919 270.793505 77.971187 270.793505 76.749735 C 270.793505 75.557194 270.092435 74.848897 268.921577 74.848897 C 267.186972 74.848897 264.27428 76.373904 260.060635 79.517876 C 258.578993 80.61646 257.220219 81.765636 256.099953 82.726896 C 255.297698 83.449648 255.23265 83.081045 255.651847 82.401658 C 256.475784 81.064566 257.59605 79.445601 258.983734 77.544763 C 278.902785 64.607498 298.193041 42.765927 298.193041 37.822302 C 298.193041 36.694808 297.672659 36.066014 296.342795 36.066014 C 292.049647 36.066014 268.567428 61.846585 257.877923 76.446179 L 257.950199 76.395587 C 257.899606 76.424497 257.856241 76.467862 257.856241 76.540137 C 254.38703 81.274164 252.58015 84.439819 252.58015 85.77691 C 252.58015 86.311747 253.006573 86.730943 253.563093 86.730943 C 253.967834 86.730943 254.480988 86.268382 254.972459 85.77691 L 255.297698 85.51672 C 256.540832 84.367544 258.607903 82.495615 260.971303 80.7321 C 264.816344 77.877229 267.490528 76.301629 268.849302 76.301629 C 269.17454 76.301629 269.268498 76.467862 269.268498 76.749735 C 269.268498 77.920594 268.32892 79.611834 266.81114 81.201889 L 266.319669 81.274164 C 261.585642 81.902959 259.099375 82.27879 259.099375 83.948347 C 259.099375 85.068613 260.010042 85.863641 261.303769 85.863641 C 263.081739 85.863641 265.452366 84.649417 267.490528 82.654621 C 272.571476 81.996916 279.350891 80.920016 284.366791 77.804954 C 284.598072 77.689313 284.764305 77.40744 284.764305 77.147249 C 284.764305 76.728053 284.410157 76.395587 283.99096 76.395587 Z M 296.342795 37.583794 C 296.595759 37.583794 296.668034 37.706662 296.668034 37.959625 C 296.668034 41.898624 280.189284 60.834732 261.860288 73.750314 C 273.207497 59.26636 293.155458 37.583794 296.342795 37.583794 Z M 260.624382 84.042305 C 260.624382 83.760432 262.265029 83.406283 264.585064 83.081045 C 263.363613 83.897755 262.214437 84.345861 261.303769 84.345861 C 260.855662 84.345861 260.624382 84.179628 260.624382 84.042305 Z M 303.700413 76.395587 C 303.53418 76.395587 303.367947 76.424497 303.252306 76.540137 C 296.646351 81.346439 287.763727 83.97003 285.017268 83.97003 C 282.863467 83.97003 281.808249 83.384601 281.808249 82.329382 C 281.808249 81.295847 282.581593 79.821432 283.84641 78.440976 C 284.482432 78.693939 285.183501 78.809579 286.188127 78.809579 C 288.16124 78.809579 290.387317 77.241207 290.387317 75.839068 C 290.387317 74.827215 289.613972 74.147827 288.414204 74.147827 C 285.111226 74.147827 280.283242 78.997495 280.283242 82.329382 C 280.283242 84.345861 281.996164 85.495037 285.017268 85.495037 C 287.973325 85.495037 297.325738 82.748579 304.141292 77.754361 C 304.329207 77.638721 304.452075 77.385757 304.452075 77.147249 C 304.452075 76.728053 304.119609 76.395587 303.700413 76.395587 Z M 288.86231 75.839068 C 288.86231 76.301629 287.785409 77.2918 286.188127 77.2918 C 285.747248 77.2918 285.414782 77.262889 285.111226 77.219524 C 286.332677 76.236581 287.525219 75.672835 288.414204 75.672835 C 288.818945 75.672835 288.86231 75.74511 288.86231 75.839068 Z M 302.74638 95.570203 C 308.629583 95.570203 325.368524 84.721692 334.952218 77.754361 C 335.140133 77.638721 335.277456 77.40744 335.277456 77.147249 C 335.277456 76.728053 334.930535 76.395587 334.504112 76.395587 C 334.345106 76.395587 334.178873 76.424497 334.063233 76.540137 C 324.501221 83.449648 308.159794 94.023513 302.74638 94.023513 C 301.81403 94.023513 301.481564 93.74164 301.481564 92.852654 C 301.481564 90.135106 306.287866 85.422762 311.00021 80.782693 C 315.148808 76.67746 319.275723 72.62282 319.275723 70.187145 C 319.275723 69.29816 318.451785 68.56818 317.396567 67.60692 C 317.071328 67.353957 316.738862 67.072083 316.413624 66.739617 C 320.352623 62.525972 322.694341 59.26636 322.694341 57.950951 C 322.694341 57.112558 322.202869 56.592177 321.378932 56.592177 C 318.285552 56.592177 311.513364 61.795992 311.513364 64.209985 C 311.513364 65.055605 312.149386 65.734992 314.115272 67.021491 C 310.927935 70.331696 307.039528 73.865954 303.237851 76.540137 C 303.028253 76.67746 302.912613 76.915968 302.912613 77.168932 C 302.912613 77.595355 303.237851 77.942277 303.664275 77.942277 C 303.852191 77.942277 303.989514 77.898911 304.105154 77.783271 C 307.603275 75.318686 311.81692 71.502554 315.358406 67.845428 C 317.093011 69.016287 317.750716 69.645081 317.750716 70.187145 C 317.750716 71.972343 314.071907 75.600559 309.894399 79.705792 C 305.210965 84.345861 299.956556 89.499084 299.956556 92.852654 C 299.956556 94.58726 300.968409 95.570203 302.74638 95.570203 Z M 315.148808 65.901225 C 313.790033 64.98333 313.038371 64.376218 313.038371 64.209985 C 313.038371 62.829528 318.430103 58.702613 320.634497 58.232824 C 320.91637 58.189459 321.075376 58.305099 321.0031 58.56529 C 320.417671 59.945747 317.165286 63.740196 315.148808 65.901225 Z M 354.213564 76.395587 C 354.047331 76.395587 353.881098 76.424497 353.765458 76.540137 C 347.159503 81.346439 338.276878 83.97003 335.53042 83.97003 C 333.376618 83.97003 332.3214 83.384601 332.3214 82.329382 C 332.3214 81.295847 333.094745 79.821432 334.359561 78.440976 C 334.995583 78.693939 335.696653 78.809579 336.701278 78.809579 C 338.674392 78.809579 340.900468 77.241207 340.900468 75.839068 C 340.900468 74.827215 340.127124 74.147827 338.927355 74.147827 C 335.624377 74.147827 330.796393 78.997495 330.796393 82.329382 C 330.796393 84.345861 332.509315 85.495037 335.53042 85.495037 C 338.486476 85.495037 347.83889 82.748579 354.654443 77.754361 C 354.842358 77.638721 354.965226 77.385757 354.965226 77.147249 C 354.965226 76.728053 354.63276 76.395587 354.213564 76.395587 Z M 339.375461 75.839068 C 339.375461 76.301629 338.298561 77.2918 336.701278 77.2918 C 336.260399 77.2918 335.927933 77.262889 335.624377 77.219524 C 336.845829 76.236581 338.03837 75.672835 338.927355 75.672835 C 339.332096 75.672835 339.375461 75.74511 339.375461 75.839068 Z M 339.375461 75.839068 " stroke="#2a4b7e" stroke-width="1.8" stroke-opacity="1" stroke-miterlimit="4"/><g fill="#2a4b7e" fill-opacity="1"><g transform="translate(90.320346, 300.939479)"><g><path d="M 22.519531 -16.34375 C 22.40625 -16.34375 22.304688 -16.296875 22.222656 -16.21875 C 20.984375 -14.980469 19.253906 -13.066406 17.46875 -11.003906 C 17.433594 -10.96875 17.410156 -10.957031 17.351562 -10.957031 C 15.816406 -11.015625 14.222656 -11.027344 12.664062 -10.96875 L 12.628906 -10.96875 C 12.640625 -10.96875 12.652344 -10.980469 12.664062 -10.992188 C 13.960938 -12.480469 15.199219 -13.832031 16.113281 -14.75 C 16.195312 -14.832031 16.242188 -14.933594 16.242188 -15.046875 C 16.242188 -15.277344 16.058594 -15.460938 15.828125 -15.460938 C 15.714844 -15.460938 15.609375 -15.414062 15.53125 -15.335938 C 14.488281 -14.292969 13.042969 -12.699219 11.554688 -10.980469 C 11.519531 -10.933594 11.484375 -10.921875 11.425781 -10.910156 C 9.71875 -10.820312 8.242188 -10.636719 7.027344 -10.371094 C 6.832031 -10.339844 6.695312 -10.167969 6.695312 -9.972656 C 6.695312 -9.742188 6.875 -9.558594 7.105469 -9.558594 C 7.140625 -9.558594 7.175781 -9.558594 7.199219 -9.570312 C 8.195312 -9.777344 9.375 -9.9375 10.726562 -10.039062 L 10.75 -10.039062 C 10.75 -10.039062 10.738281 -10.039062 10.738281 -10.027344 C 9.949219 -9.101562 9.15625 -8.160156 8.414062 -7.242188 C 8.378906 -7.199219 8.34375 -7.1875 8.285156 -7.1875 C 6.808594 -7.070312 5.523438 -6.910156 4.445312 -6.671875 C 4.253906 -6.636719 4.113281 -6.464844 4.113281 -6.269531 C 4.113281 -6.039062 4.296875 -5.855469 4.527344 -5.855469 C 4.5625 -5.855469 4.585938 -5.855469 4.617188 -5.867188 C 5.476562 -6.050781 6.488281 -6.199219 7.621094 -6.304688 L 7.644531 -6.304688 C 7.632812 -6.304688 7.632812 -6.292969 7.621094 -6.28125 C 6.476562 -4.847656 5.628906 -3.738281 5.191406 -3.082031 C 5.144531 -3.003906 5.125 -2.933594 5.125 -2.84375 C 5.125 -2.613281 5.304688 -2.429688 5.535156 -2.429688 C 5.671875 -2.429688 5.800781 -2.511719 5.878906 -2.625 C 6.382812 -3.382812 7.4375 -4.757812 8.722656 -6.328125 C 8.769531 -6.371094 8.789062 -6.394531 8.847656 -6.394531 C 10.316406 -6.488281 11.929688 -6.511719 13.617188 -6.464844 L 13.648438 -6.464844 C 13.640625 -6.464844 13.628906 -6.453125 13.617188 -6.441406 C 11.910156 -4.355469 10.476562 -2.511719 9.8125 -1.5 C 9.765625 -1.433594 9.730469 -1.351562 9.730469 -1.273438 C 9.730469 -1.042969 9.925781 -0.859375 10.144531 -0.859375 C 10.28125 -0.859375 10.417969 -0.929688 10.5 -1.042969 C 11.199219 -2.109375 12.777344 -4.125 14.636719 -6.371094 C 14.671875 -6.417969 14.691406 -6.429688 14.761719 -6.429688 C 16.082031 -6.382812 17.363281 -6.292969 18.5 -6.175781 L 18.542969 -6.175781 C 18.773438 -6.175781 18.957031 -6.359375 18.957031 -6.589844 C 18.957031 -6.808594 18.796875 -6.980469 18.578125 -7.003906 C 17.59375 -7.09375 16.515625 -7.175781 15.382812 -7.230469 L 15.335938 -7.230469 L 15.371094 -7.253906 C 16.148438 -8.195312 16.949219 -9.144531 17.742188 -10.050781 C 17.777344 -10.097656 17.800781 -10.109375 17.855469 -10.109375 C 18.96875 -10.050781 20.070312 -9.972656 21.089844 -9.878906 L 21.125 -9.878906 C 21.351562 -9.878906 21.535156 -10.0625 21.535156 -10.292969 C 21.535156 -10.5 21.375 -10.683594 21.167969 -10.703125 C 20.308594 -10.785156 19.402344 -10.855469 18.5 -10.898438 L 18.464844 -10.898438 C 18.476562 -10.898438 18.488281 -10.910156 18.5 -10.921875 C 20.113281 -12.789062 21.671875 -14.5 22.808594 -15.644531 C 22.886719 -15.714844 22.933594 -15.816406 22.933594 -15.929688 C 22.933594 -16.160156 22.75 -16.34375 22.519531 -16.34375 Z M 16.710938 -10.132812 C 15.917969 -9.203125 15.128906 -8.261719 14.347656 -7.324219 C 14.316406 -7.289062 14.292969 -7.277344 14.234375 -7.277344 C 12.675781 -7.324219 11.058594 -7.324219 9.511719 -7.253906 L 9.476562 -7.253906 C 9.488281 -7.253906 9.488281 -7.265625 9.5 -7.277344 C 10.257812 -8.195312 11.058594 -9.132812 11.851562 -10.0625 C 11.886719 -10.109375 11.917969 -10.121094 11.976562 -10.121094 C 13.445312 -10.1875 15.046875 -10.199219 16.699219 -10.15625 C 16.757812 -10.15625 16.757812 -10.175781 16.710938 -10.132812 Z M 16.710938 -10.132812 "/></g></g></g><g fill="#2a4b7e" fill-opacity="1"><g transform="translate(106.881859, 300.939479)"><g><path d="M 0.125 3.21875 C 0.296875 3.21875 0.445312 3.117188 0.503906 2.96875 C 0.597656 2.773438 0.722656 2.53125 0.894531 2.222656 C 0.941406 2.144531 0.984375 2.121094 1.078125 2.109375 C 1.523438 2.074219 1.925781 2.0625 2.257812 2.0625 C 3.53125 2.0625 4.402344 2.167969 4.789062 2.347656 C 4.847656 2.382812 4.917969 2.394531 4.972656 2.394531 C 5.203125 2.394531 5.386719 2.210938 5.386719 1.984375 C 5.386719 1.824219 5.296875 1.671875 5.144531 1.605469 C 4.628906 1.363281 3.65625 1.238281 2.257812 1.238281 C 2.0625 1.238281 1.84375 1.238281 1.59375 1.25 C 1.488281 1.261719 1.488281 1.238281 1.535156 1.15625 C 3.964844 -2.648438 9.777344 -10.417969 14.417969 -15.542969 C 14.488281 -15.621094 14.519531 -15.632812 14.625 -15.621094 C 15.460938 -15.507812 16.390625 -15.300781 17.304688 -15.046875 C 17.351562 -15.039062 17.386719 -15.027344 17.433594 -15.027344 C 17.660156 -15.027344 17.84375 -15.210938 17.84375 -15.4375 C 17.84375 -15.621094 17.71875 -15.792969 17.535156 -15.839844 C 16.824219 -16.035156 16.070312 -16.207031 15.300781 -16.355469 C 15.210938 -16.367188 15.199219 -16.378906 15.253906 -16.445312 L 15.691406 -16.90625 C 15.757812 -16.984375 15.804688 -17.089844 15.804688 -17.191406 C 15.804688 -17.421875 15.621094 -17.605469 15.390625 -17.605469 C 15.277344 -17.605469 15.175781 -17.558594 15.09375 -17.476562 C 14.992188 -17.363281 14.886719 -17.261719 14.785156 -17.15625 C 14.613281 -16.972656 14.441406 -16.789062 14.269531 -16.597656 C 14.210938 -16.527344 14.15625 -16.503906 14.0625 -16.515625 C 13.5 -16.574219 12.996094 -16.605469 12.550781 -16.605469 C 10.957031 -16.605469 9.570312 -16.457031 9.101562 -16.242188 C 8.960938 -16.171875 8.859375 -16.023438 8.859375 -15.863281 C 8.859375 -15.632812 9.042969 -15.449219 9.273438 -15.449219 C 9.328125 -15.449219 9.398438 -15.460938 9.457031 -15.496094 C 9.800781 -15.65625 11.128906 -15.78125 12.550781 -15.78125 C 12.800781 -15.78125 13.078125 -15.769531 13.363281 -15.746094 C 13.476562 -15.734375 13.476562 -15.726562 13.410156 -15.65625 C 8.597656 -10.269531 2.726562 -2.347656 0.515625 1.238281 C 0.480469 1.316406 0.433594 1.339844 0.34375 1.351562 C -0.8125 1.46875 -2.15625 1.671875 -3.289062 2.003906 C -3.472656 2.050781 -3.597656 2.222656 -3.597656 2.40625 C -3.597656 2.636719 -3.414062 2.820312 -3.1875 2.820312 C -3.140625 2.820312 -3.105469 2.808594 -3.058594 2.796875 C -2.269531 2.578125 -1.285156 2.382812 -0.160156 2.234375 C -0.0703125 2.222656 -0.0585938 2.234375 -0.101562 2.328125 L -0.253906 2.636719 C -0.273438 2.695312 -0.285156 2.75 -0.285156 2.808594 C -0.285156 3.039062 -0.101562 3.21875 0.125 3.21875 Z M 0.125 3.21875 "/></g></g></g><g fill="#2a4b7e" fill-opacity="1"><g transform="translate(118.262885, 300.939479)"><g><path d="M 21.101562 -12.101562 C 16.90625 -12.273438 12.5625 -12.261719 8.320312 -12.113281 C 11.082031 -15.3125 13.855469 -18.40625 16.5625 -21.363281 C 16.640625 -21.433594 16.675781 -21.535156 16.675781 -21.640625 C 16.675781 -21.867188 16.492188 -22.050781 16.261719 -22.050781 C 16.148438 -22.050781 16.035156 -22.003906 15.964844 -21.914062 C 12.894531 -18.589844 9.972656 -15.300781 7.199219 -12.070312 C 2.589844 -11.875 -1.914062 -11.507812 -5.972656 -10.992188 C -6.175781 -10.96875 -6.339844 -10.785156 -6.339844 -10.578125 C -6.339844 -10.347656 -6.15625 -10.167969 -5.925781 -10.167969 L -5.867188 -10.167969 C -2.074219 -10.660156 2.132812 -11.015625 6.476562 -11.210938 C 0.0234375 -3.609375 -6.222656 4.46875 -11.140625 12.253906 C -11.230469 12.390625 -11.3125 12.539062 -11.359375 12.664062 L -11.359375 12.675781 C -11.484375 13.054688 -11.335938 13.296875 -10.96875 13.296875 C -10.703125 13.296875 -10.371094 12.984375 -10.027344 12.414062 C -9.9375 12.242188 -9.914062 12.082031 -9.984375 11.976562 C -5.03125 4.253906 1.191406 -3.746094 7.597656 -11.253906 C 12.171875 -11.449219 16.757812 -11.449219 21.066406 -11.277344 L 21.089844 -11.277344 C 21.316406 -11.277344 21.5 -11.460938 21.5 -11.691406 C 21.5 -11.910156 21.328125 -12.089844 21.101562 -12.101562 Z M 21.101562 -12.101562 "/></g></g></g><g fill="#2a4b7e" fill-opacity="1"><g transform="translate(126.010698, 300.939479)"><g><path d="M 16.320312 -4.652344 C 16.230469 -4.652344 16.148438 -4.628906 16.082031 -4.574219 C 13.167969 -2.394531 8.597656 -0.675781 6.992188 -0.675781 C 6.167969 -0.675781 5.832031 -0.917969 5.832031 -1.5 C 5.832031 -2.464844 6.648438 -3.65625 7.253906 -4.527344 C 7.621094 -5.054688 7.851562 -5.398438 7.851562 -5.660156 C 7.851562 -5.9375 7.632812 -6.144531 7.359375 -6.144531 C 7.105469 -6.144531 6.714844 -5.902344 5.421875 -4.960938 C 5.113281 -5.46875 4.699219 -5.671875 3.964844 -5.671875 C 2.15625 -5.671875 -2.613281 -2.695312 -2.613281 -0.871094 C -2.613281 -0.308594 -2.199219 0.0585938 -1.570312 0.0585938 C -0.0820312 0.0585938 3.199219 -2.339844 5.386719 -3.917969 C 5.546875 -4.035156 5.707031 -4.148438 5.855469 -4.261719 C 6.039062 -4.402344 6.121094 -4.320312 6.003906 -4.125 C 5.488281 -3.300781 5.007812 -2.371094 5.007812 -1.5 C 5.007812 -0.433594 5.707031 0.148438 6.992188 0.148438 C 8.847656 0.148438 13.648438 -1.824219 16.550781 -3.898438 C 16.664062 -3.976562 16.734375 -4.101562 16.734375 -4.242188 C 16.734375 -4.457031 16.539062 -4.652344 16.320312 -4.652344 Z M 4.746094 -4.480469 C 1.867188 -2.394531 -0.46875 -0.769531 -1.570312 -0.769531 C -1.707031 -0.769531 -1.789062 -0.824219 -1.789062 -0.960938 C -1.789062 -2.027344 2.257812 -4.847656 3.964844 -4.847656 C 4.433594 -4.847656 4.574219 -4.78125 4.746094 -4.480469 Z M 4.746094 -4.480469 "/></g></g></g><g fill="#2a4b7e" fill-opacity="1"><g transform="translate(141.162478, 300.939479)"><g><path d="M 25.398438 -25.570312 C 25.398438 -26.304688 24.90625 -26.738281 24.101562 -26.738281 C 19.734375 -26.738281 -1.535156 -5.386719 -1.535156 0.789062 C -1.535156 1.902344 -0.941406 2.417969 0.320312 2.417969 C 2.371094 2.417969 8.253906 -0.824219 12.664062 -3.875 C 12.777344 -3.953125 12.847656 -4.082031 12.847656 -4.21875 C 12.847656 -4.445312 12.664062 -4.628906 12.433594 -4.628906 C 12.34375 -4.628906 12.261719 -4.605469 12.195312 -4.550781 C 7.265625 -1.144531 1.960938 1.59375 0.320312 1.59375 C -0.492188 1.59375 -0.710938 1.421875 -0.710938 0.789062 C -0.710938 -0.183594 -0.101562 -1.671875 1.101562 -3.621094 C 9.9375 -8.972656 25.398438 -22.511719 25.398438 -25.570312 Z M 24.101562 -25.914062 C 24.46875 -25.914062 24.574219 -25.820312 24.574219 -25.570312 C 24.574219 -23.21875 11.425781 -11.3125 2.234375 -5.316406 C 8.136719 -13.71875 21.066406 -25.914062 24.101562 -25.914062 Z M 24.101562 -25.914062 "/></g></g></g><g fill="#2a4b7e" fill-opacity="1"><g transform="translate(152.451815, 300.939479)"><g><path d="M 3.757812 -6.554688 C 3.886719 -6.554688 4.011719 -6.613281 4.089844 -6.714844 C 4.125 -6.773438 4.195312 -6.855469 4.261719 -6.957031 C 4.433594 -7.175781 4.640625 -7.460938 4.746094 -7.574219 C 4.800781 -7.65625 4.835938 -7.746094 4.835938 -7.839844 C 4.835938 -8.070312 4.652344 -8.253906 4.425781 -8.253906 C 4.296875 -8.253906 4.183594 -8.195312 4.101562 -8.101562 L 3.4375 -7.21875 C 3.382812 -7.152344 3.347656 -7.058594 3.347656 -6.96875 C 3.347656 -6.738281 3.53125 -6.554688 3.757812 -6.554688 Z M 0.433594 0.414062 C 2.175781 0.414062 7.679688 -2.132812 10.453125 -3.886719 C 10.566406 -3.953125 10.648438 -4.101562 10.648438 -4.242188 C 10.648438 -4.457031 10.453125 -4.652344 10.234375 -4.652344 C 10.167969 -4.652344 10.097656 -4.628906 10.015625 -4.597656 C 7.277344 -2.867188 1.996094 -0.414062 0.433594 -0.414062 C -0.0820312 -0.414062 -0.273438 -0.597656 -0.273438 -1.042969 C -0.273438 -1.742188 0.929688 -3.449219 2.683594 -5.25 L 2.695312 -5.261719 C 2.761719 -5.339844 2.796875 -5.433594 2.796875 -5.535156 C 2.796875 -5.753906 2.601562 -5.949219 2.382812 -5.949219 C 2.269531 -5.949219 2.167969 -5.902344 2.085938 -5.824219 C 0.0703125 -3.738281 -1.101562 -1.996094 -1.101562 -1.042969 C -1.101562 -0.125 -0.527344 0.414062 0.433594 0.414062 Z M 0.433594 0.414062 "/></g></g></g><g fill="#2a4b7e" fill-opacity="1"><g transform="translate(161.517673, 300.939479)"><g><path d="M 16.320312 -4.652344 C 16.230469 -4.652344 16.148438 -4.628906 16.082031 -4.574219 C 13.167969 -2.394531 8.597656 -0.675781 6.992188 -0.675781 C 6.167969 -0.675781 5.832031 -0.917969 5.832031 -1.5 C 5.832031 -2.464844 6.648438 -3.65625 7.253906 -4.527344 C 7.621094 -5.054688 7.851562 -5.398438 7.851562 -5.660156 C 7.851562 -5.9375 7.632812 -6.144531 7.359375 -6.144531 C 7.105469 -6.144531 6.714844 -5.902344 5.421875 -4.960938 C 5.113281 -5.46875 4.699219 -5.671875 3.964844 -5.671875 C 2.15625 -5.671875 -2.613281 -2.695312 -2.613281 -0.871094 C -2.613281 -0.308594 -2.199219 0.0585938 -1.570312 0.0585938 C -0.0820312 0.0585938 3.199219 -2.339844 5.386719 -3.917969 C 5.546875 -4.035156 5.707031 -4.148438 5.855469 -4.261719 C 6.039062 -4.402344 6.121094 -4.320312 6.003906 -4.125 C 5.488281 -3.300781 5.007812 -2.371094 5.007812 -1.5 C 5.007812 -0.433594 5.707031 0.148438 6.992188 0.148438 C 8.847656 0.148438 13.648438 -1.824219 16.550781 -3.898438 C 16.664062 -3.976562 16.734375 -4.101562 16.734375 -4.242188 C 16.734375 -4.457031 16.539062 -4.652344 16.320312 -4.652344 Z M 4.746094 -4.480469 C 1.867188 -2.394531 -0.46875 -0.769531 -1.570312 -0.769531 C -1.707031 -0.769531 -1.789062 -0.824219 -1.789062 -0.960938 C -1.789062 -2.027344 2.257812 -4.847656 3.964844 -4.847656 C 4.433594 -4.847656 4.574219 -4.78125 4.746094 -4.480469 Z M 4.746094 -4.480469 "/></g></g></g><g fill="#2a4b7e" fill-opacity="1"><g transform="translate(176.669453, 300.939479)"><g/></g></g><g fill="#2a4b7e" fill-opacity="1"><g transform="translate(188.130713, 300.939479)"><g><path d="M 15.21875 -4.664062 C 15.140625 -4.664062 15.046875 -4.640625 14.992188 -4.597656 C 11.554688 -2.246094 7.070312 -0.675781 5.238281 -0.675781 C 4.402344 -0.675781 4.082031 -0.917969 4.082031 -1.5 C 4.082031 -1.890625 4.457031 -2.703125 5.203125 -3.910156 C 5.273438 -3.792969 5.398438 -3.726562 5.546875 -3.726562 C 5.765625 -3.726562 5.949219 -3.898438 5.960938 -4.113281 C 5.984375 -4.378906 5.949219 -4.640625 5.832031 -4.894531 C 6.121094 -5.304688 6.429688 -5.765625 6.761719 -6.234375 C 14.5 -13.445312 25.191406 -24.527344 25.191406 -25.949219 C 25.191406 -26.453125 24.894531 -26.738281 24.332031 -26.738281 C 22.394531 -26.738281 11.679688 -14.488281 6.328125 -6.96875 L 6.347656 -6.980469 C 5.867188 -6.53125 5.410156 -6.109375 4.984375 -5.707031 C 4.722656 -5.8125 4.445312 -5.867188 4.136719 -5.867188 C 1.765625 -5.867188 -1.914062 -2.773438 -1.914062 -0.757812 C -1.914062 -0.253906 -1.570312 0.0585938 -1.019531 0.0585938 C -0.492188 0.0585938 1.179688 -1.203125 3.898438 -3.609375 C 4.070312 -3.769531 4.171875 -3.703125 4.058594 -3.496094 C 3.519531 -2.554688 3.253906 -1.878906 3.253906 -1.5 C 3.253906 -0.433594 3.953125 0.148438 5.238281 0.148438 C 7.210938 0.148438 11.886719 -1.476562 15.4375 -3.898438 C 15.5625 -3.988281 15.632812 -4.113281 15.632812 -4.253906 C 15.632812 -4.480469 15.449219 -4.664062 15.21875 -4.664062 Z M 24.332031 -25.914062 C 24.378906 -25.914062 24.390625 -25.890625 24.390625 -25.855469 C 24.390625 -24.984375 14.246094 -14.613281 9.867188 -10.347656 C 15.863281 -18.003906 23.199219 -25.914062 24.332031 -25.914062 Z M -0.972656 -0.769531 C -1.03125 -0.769531 -1.089844 -0.78125 -1.089844 -0.871094 C -1.089844 -2.304688 2.234375 -5.042969 4.136719 -5.042969 L 4.253906 -5.042969 C 1.261719 -2.304688 -0.640625 -0.769531 -0.972656 -0.769531 Z M -0.972656 -0.769531 "/></g></g></g><g fill="#2a4b7e" fill-opacity="1"><g transform="translate(202.170753, 300.939479)"><g><path d="M 16.320312 -4.652344 C 16.230469 -4.652344 16.148438 -4.628906 16.082031 -4.574219 C 13.167969 -2.394531 8.597656 -0.675781 6.992188 -0.675781 C 6.167969 -0.675781 5.832031 -0.917969 5.832031 -1.5 C 5.832031 -2.464844 6.648438 -3.65625 7.253906 -4.527344 C 7.621094 -5.054688 7.851562 -5.398438 7.851562 -5.660156 C 7.851562 -5.9375 7.632812 -6.144531 7.359375 -6.144531 C 7.105469 -6.144531 6.714844 -5.902344 5.421875 -4.960938 C 5.113281 -5.46875 4.699219 -5.671875 3.964844 -5.671875 C 2.15625 -5.671875 -2.613281 -2.695312 -2.613281 -0.871094 C -2.613281 -0.308594 -2.199219 0.0585938 -1.570312 0.0585938 C -0.0820312 0.0585938 3.199219 -2.339844 5.386719 -3.917969 C 5.546875 -4.035156 5.707031 -4.148438 5.855469 -4.261719 C 6.039062 -4.402344 6.121094 -4.320312 6.003906 -4.125 C 5.488281 -3.300781 5.007812 -2.371094 5.007812 -1.5 C 5.007812 -0.433594 5.707031 0.148438 6.992188 0.148438 C 8.847656 0.148438 13.648438 -1.824219 16.550781 -3.898438 C 16.664062 -3.976562 16.734375 -4.101562 16.734375 -4.242188 C 16.734375 -4.457031 16.539062 -4.652344 16.320312 -4.652344 Z M 4.746094 -4.480469 C 1.867188 -2.394531 -0.46875 -0.769531 -1.570312 -0.769531 C -1.707031 -0.769531 -1.789062 -0.824219 -1.789062 -0.960938 C -1.789062 -2.027344 2.257812 -4.847656 3.964844 -4.847656 C 4.433594 -4.847656 4.574219 -4.78125 4.746094 -4.480469 Z M 4.746094 -4.480469 "/></g></g></g><g fill="#2a4b7e" fill-opacity="1"><g transform="translate(217.322533, 300.939479)"><g/></g></g><g fill="#2a4b7e" fill-opacity="1"><g transform="translate(228.783801, 300.939479)"><g><path d="M 15.027344 -4.652344 C 14.957031 -4.652344 14.875 -4.628906 14.808594 -4.585938 C 12.515625 -3.175781 9.511719 -2.589844 6.957031 -2.210938 C 7.5625 -3.015625 7.898438 -3.804688 7.898438 -4.457031 C 7.898438 -5.101562 7.507812 -5.488281 6.875 -5.488281 C 5.9375 -5.488281 4.367188 -4.664062 2.085938 -2.96875 C 1.296875 -2.371094 0.5625 -1.753906 -0.046875 -1.226562 C -0.480469 -0.835938 -0.515625 -1.042969 -0.285156 -1.410156 C 0.148438 -2.132812 0.757812 -3.003906 1.511719 -4.035156 C 12.273438 -11.027344 22.703125 -22.832031 22.703125 -25.5 C 22.703125 -26.109375 22.417969 -26.453125 21.695312 -26.453125 C 19.382812 -26.453125 6.695312 -12.515625 0.917969 -4.617188 L 0.953125 -4.652344 C 0.929688 -4.628906 0.90625 -4.605469 0.894531 -4.574219 C -0.972656 -2.015625 -1.949219 -0.308594 -1.949219 0.414062 C -1.949219 0.710938 -1.71875 0.941406 -1.421875 0.941406 C -1.203125 0.941406 -0.929688 0.6875 -0.652344 0.425781 L -0.480469 0.273438 C 0.195312 -0.34375 1.304688 -1.351562 2.589844 -2.304688 C 4.664062 -3.851562 6.109375 -4.699219 6.84375 -4.699219 C 7.015625 -4.699219 7.070312 -4.605469 7.070312 -4.457031 C 7.070312 -3.828125 6.566406 -2.910156 5.742188 -2.050781 L 5.46875 -2.015625 C 2.910156 -1.671875 1.570312 -1.46875 1.570312 -0.574219 C 1.570312 0.0351562 2.0625 0.46875 2.761719 0.46875 C 3.726562 0.46875 5.007812 -0.195312 6.109375 -1.261719 C 8.847656 -1.628906 12.515625 -2.199219 15.230469 -3.886719 C 15.359375 -3.953125 15.4375 -4.101562 15.4375 -4.242188 C 15.4375 -4.46875 15.253906 -4.652344 15.027344 -4.652344 Z M 21.695312 -25.628906 C 21.832031 -25.628906 21.878906 -25.558594 21.878906 -25.421875 C 21.878906 -23.300781 12.972656 -13.066406 3.070312 -6.085938 C 9.191406 -13.914062 19.976562 -25.628906 21.695312 -25.628906 Z M 2.394531 -0.515625 C 2.394531 -0.675781 3.277344 -0.859375 4.539062 -1.042969 C 3.875 -0.597656 3.253906 -0.355469 2.761719 -0.355469 C 2.519531 -0.355469 2.394531 -0.445312 2.394531 -0.515625 Z M 2.394531 -0.515625 "/></g></g></g><g fill="#2a4b7e" fill-opacity="1"><g transform="translate(242.628992, 300.939479)"><g><path d="M 11.828125 -4.652344 C 11.734375 -4.652344 11.65625 -4.628906 11.585938 -4.574219 C 8.023438 -1.972656 3.21875 -0.5625 1.730469 -0.5625 C 0.574219 -0.5625 0 -0.871094 0 -1.445312 C 0 -2.003906 0.414062 -2.796875 1.101562 -3.554688 C 1.445312 -3.402344 1.824219 -3.347656 2.371094 -3.347656 C 3.425781 -3.347656 4.640625 -4.195312 4.640625 -4.953125 C 4.640625 -5.5 4.21875 -5.867188 3.574219 -5.867188 C 1.789062 -5.867188 -0.824219 -3.242188 -0.824219 -1.445312 C -0.824219 -0.355469 0.101562 0.261719 1.730469 0.261719 C 3.335938 0.261719 8.390625 -1.214844 12.070312 -3.910156 C 12.171875 -3.976562 12.242188 -4.113281 12.242188 -4.242188 C 12.242188 -4.46875 12.058594 -4.652344 11.828125 -4.652344 Z M 3.816406 -4.953125 C 3.816406 -4.699219 3.230469 -4.171875 2.371094 -4.171875 C 2.132812 -4.171875 1.949219 -4.183594 1.789062 -4.207031 C 2.441406 -4.734375 3.09375 -5.042969 3.574219 -5.042969 C 3.78125 -5.042969 3.816406 -5.007812 3.816406 -4.953125 Z M 3.816406 -4.953125 "/></g></g></g><g fill="#2a4b7e" fill-opacity="1"><g transform="translate(253.287961, 300.939479)"><g><path d="M 0.664062 5.707031 C 3.839844 5.707031 12.882812 -0.148438 18.0625 -3.910156 C 18.167969 -3.976562 18.234375 -4.101562 18.234375 -4.242188 C 18.234375 -4.46875 18.050781 -4.652344 17.820312 -4.652344 C 17.730469 -4.652344 17.648438 -4.628906 17.582031 -4.574219 C 12.414062 -0.835938 3.585938 4.882812 0.664062 4.882812 C 0.148438 4.882812 -0.0234375 4.722656 -0.0234375 4.242188 C -0.0234375 2.773438 2.566406 0.230469 5.113281 -2.28125 C 7.359375 -4.492188 9.59375 -6.695312 9.59375 -8 C 9.59375 -8.492188 9.144531 -8.882812 8.574219 -9.398438 C 8.402344 -9.535156 8.21875 -9.695312 8.046875 -9.867188 C 10.175781 -12.148438 11.4375 -13.902344 11.4375 -14.613281 C 11.4375 -15.070312 11.175781 -15.347656 10.726562 -15.347656 C 9.054688 -15.347656 5.398438 -12.539062 5.398438 -11.230469 C 5.398438 -10.785156 5.742188 -10.417969 6.796875 -9.71875 C 5.078125 -7.929688 2.980469 -6.015625 0.929688 -4.574219 C 0.8125 -4.492188 0.746094 -4.367188 0.746094 -4.230469 C 0.746094 -4 0.929688 -3.816406 1.15625 -3.816406 C 1.25 -3.816406 1.328125 -3.839844 1.398438 -3.898438 C 3.277344 -5.226562 5.558594 -7.300781 7.472656 -9.273438 C 8.414062 -8.640625 8.769531 -8.296875 8.769531 -8 C 8.769531 -7.046875 6.773438 -5.078125 4.527344 -2.867188 C 1.984375 -0.355469 -0.847656 2.429688 -0.847656 4.242188 C -0.847656 5.179688 -0.308594 5.707031 0.664062 5.707031 Z M 7.359375 -10.328125 C 6.625 -10.820312 6.222656 -11.152344 6.222656 -11.230469 C 6.222656 -11.976562 9.132812 -14.210938 10.328125 -14.464844 C 10.476562 -14.488281 10.566406 -14.429688 10.519531 -14.292969 C 10.210938 -13.546875 8.445312 -11.484375 7.359375 -10.328125 Z M 7.359375 -10.328125 "/></g></g></g><g fill="#2a4b7e" fill-opacity="1"><g transform="translate(269.929709, 300.939479)"><g><path d="M 11.828125 -4.652344 C 11.734375 -4.652344 11.65625 -4.628906 11.585938 -4.574219 C 8.023438 -1.972656 3.21875 -0.5625 1.730469 -0.5625 C 0.574219 -0.5625 0 -0.871094 0 -1.445312 C 0 -2.003906 0.414062 -2.796875 1.101562 -3.554688 C 1.445312 -3.402344 1.824219 -3.347656 2.371094 -3.347656 C 3.425781 -3.347656 4.640625 -4.195312 4.640625 -4.953125 C 4.640625 -5.5 4.21875 -5.867188 3.574219 -5.867188 C 1.789062 -5.867188 -0.824219 -3.242188 -0.824219 -1.445312 C -0.824219 -0.355469 0.101562 0.261719 1.730469 0.261719 C 3.335938 0.261719 8.390625 -1.214844 12.070312 -3.910156 C 12.171875 -3.976562 12.242188 -4.113281 12.242188 -4.242188 C 12.242188 -4.46875 12.058594 -4.652344 11.828125 -4.652344 Z M 3.816406 -4.953125 C 3.816406 -4.699219 3.230469 -4.171875 2.371094 -4.171875 C 2.132812 -4.171875 1.949219 -4.183594 1.789062 -4.207031 C 2.441406 -4.734375 3.09375 -5.042969 3.574219 -5.042969 C 3.78125 -5.042969 3.816406 -5.007812 3.816406 -4.953125 Z M 3.816406 -4.953125 "/></g></g></g></svg>