<svg xmlns="http://www.w3.org/2000/svg" xmlns:xlink="http://www.w3.org/1999/xlink" width="500" zoomAndPan="magnify" viewBox="0 0 375 374.999991" height="500" preserveAspectRatio="xMidYMid meet" version="1.0"><defs><g/><clipPath id="4326a69018"><path d="M 111 85 L 261 85 L 261 203 L 111 203 Z M 111 85 " clip-rule="nonzero"/></clipPath><clipPath id="c3998840c1"><path d="M 79.601562 127.359375 L 221.433594 52.230469 L 261.804688 128.449219 L 119.976562 203.578125 Z M 79.601562 127.359375 " clip-rule="nonzero"/></clipPath><clipPath id="356edd5a6b"><path d="M 79.601562 127.359375 L 221.433594 52.230469 L 261.804688 128.449219 L 119.976562 203.578125 Z M 79.601562 127.359375 " clip-rule="nonzero"/></clipPath></defs><rect x="-37.5" width="450" fill="#ffffff" y="-37.499999" height="449.999989" fill-opacity="1"/><rect x="-37.5" width="450" fill="#f4ead9" y="-37.499999" height="449.999989" fill-opacity="1"/><path stroke-linecap="butt" transform="matrix(1.207971, 0, 0, 1.207971, 155.367474, 88.494486)" fill="none" stroke-linejoin="miter" d="M 27.667543 130.200936 C 32.702458 130.200936 37.103562 129.308427 40.735039 127.523409 C 44.434424 125.799832 47.493531 123.442444 49.850919 120.574127 C 52.211541 117.641135 53.996559 114.452679 55.144533 110.947318 C 56.292506 107.441956 56.864876 103.936595 56.864876 100.427999 C 56.864876 96.667173 56.292506 93.226486 55.205973 90.102705 C 54.061234 86.978923 52.593121 84.236721 50.808103 81.814659 C 48.95841 79.454037 46.982602 77.478229 44.816004 75.948675 C 46.665697 73.591287 48.259925 70.975201 49.534014 68.236233 C 50.808103 65.429357 51.445147 62.37025 51.445147 58.991004 C 51.445147 52.998905 49.152434 48.15478 44.56054 44.393954 C 39.907204 40.629894 34.105896 38.783435 27.030498 38.783435 C 22.312488 38.783435 18.040733 39.866734 14.279907 41.968658 C 10.519081 44.073815 7.521415 46.877457 5.290142 50.386053 C 3.05887 53.891414 1.975571 57.65224 1.975571 61.794646 C 1.975571 65.684822 2.86808 69.190183 4.588423 72.252524 C 6.312 75.246956 8.478598 76.77651 11.156125 76.77651 C 13.005818 76.77651 14.981626 75.757885 17.148224 73.782077 C 16.255715 72.951009 15.363206 71.997059 14.535372 70.91376 C 13.707537 69.891902 12.941144 68.682488 12.368774 67.214375 C 11.79317 65.749496 11.537705 63.964478 11.537705 61.794646 C 11.537705 59.628048 12.17475 57.46145 13.452073 55.420968 C 14.726162 53.380485 16.51118 51.724816 18.868568 50.386053 C 21.164515 49.047289 23.906716 48.410245 27.030498 48.410245 C 31.748508 48.410245 35.379985 49.428869 37.996071 51.404677 C 40.544249 53.44516 41.821572 55.996571 41.821572 58.991004 C 41.821572 60.966812 41.375317 62.94262 40.544249 64.727638 C 39.65174 66.577331 38.442326 68.427023 36.974213 70.402831 C 35.444659 72.313965 33.724316 74.354447 31.748508 76.58572 L 29.7727 78.881667 L 29.7727 60.902137 C 29.7727 56.504267 30.600534 53.571275 32.194762 52.041722 L 32.194762 50.832307 L 17.785269 53.700624 L 17.785269 54.910039 C 18.616337 55.741107 19.253381 56.824406 19.634961 58.098495 C 19.9551 59.372584 20.14589 61.096161 20.14589 63.327434 L 20.14589 82.005449 C 15.492555 82.897958 11.537705 84.809091 8.352483 87.806757 C 6.12121 89.908681 4.526982 92.460093 3.379009 95.393084 C 2.29571 98.326076 1.720106 101.449857 1.720106 104.829104 C 1.720106 108.143675 2.29571 111.393572 3.379009 114.452679 C 4.526982 117.576461 6.247326 120.318663 8.478598 122.676051 C 13.387398 127.714199 19.761077 130.200936 27.667543 130.200936 Z M 27.667543 120.574127 C 23.971391 120.574127 20.973725 119.872408 18.551662 118.46897 C 16.1296 117.068765 14.344582 115.154398 13.131934 112.79701 C 11.922519 110.436389 11.346915 107.758862 11.346915 104.829104 C 11.346915 98.005937 14.279907 93.672741 20.14589 91.887723 L 20.14589 106.167867 C 20.14589 108.395906 19.9551 110.119483 19.634961 111.393572 C 19.253381 112.667661 18.616337 113.75096 17.785269 114.582028 L 17.785269 115.791443 L 32.194762 115.791443 L 32.194762 114.582028 C 31.302253 113.75096 30.665209 112.667661 30.34507 111.393572 C 29.96349 110.119483 29.7727 108.395906 29.7727 106.167867 L 29.7727 99.218585 C 30.024931 96.922638 30.72665 94.75604 31.874623 92.586208 C 33.78899 94.054321 35.509334 96.285593 37.103562 99.3447 C 39.65174 97.113428 40.990503 94.75604 40.990503 92.204628 C 40.990503 89.527101 39.716415 87.169713 37.165003 85.064556 L 38.633115 83.408887 C 40.036554 84.301396 41.375317 85.575485 42.714081 87.169713 C 43.98817 88.763941 45.136143 90.6104 45.963978 92.841672 C 46.856487 95.072945 47.302741 97.624357 47.302741 100.427999 C 47.302741 102.788621 46.921161 105.146009 46.219442 107.568072 C 45.517723 109.928693 44.434424 112.095291 42.840196 114.071099 C 41.310643 115.982233 39.27016 117.576461 36.783423 118.789109 C 34.296686 119.998523 31.237579 120.574127 27.667543 120.574127 Z M 27.667543 120.574127 " stroke="#2a4b7e" stroke-width="1.958505" stroke-opacity="1" stroke-miterlimit="4"/><g fill="#2a4b7e" fill-opacity="1"><g transform="translate(155.367474, 233.451002)"><g><path d="M 33.421875 12.320312 C 39.503906 12.320312 44.820312 11.242188 49.207031 9.085938 C 53.675781 7.007812 57.371094 4.160156 60.21875 0.691406 C 63.070312 -2.847656 65.226562 -6.699219 66.613281 -10.933594 C 68 -15.171875 68.691406 -19.40625 68.691406 -23.640625 C 68.691406 -28.183594 68 -32.34375 66.6875 -36.117188 C 65.304688 -39.890625 63.53125 -43.203125 61.375 -46.128906 C 59.140625 -48.976562 56.753906 -51.363281 54.136719 -53.210938 C 56.371094 -56.0625 58.296875 -59.21875 59.835938 -62.53125 C 61.375 -65.917969 62.144531 -69.617188 62.144531 -73.695312 C 62.144531 -80.9375 59.375 -86.789062 53.828125 -91.332031 C 48.207031 -95.875 41.199219 -98.109375 32.652344 -98.109375 C 26.953125 -98.109375 21.792969 -96.800781 17.25 -94.257812 C 12.707031 -91.714844 9.085938 -88.328125 6.390625 -84.09375 C 3.695312 -79.859375 2.386719 -75.3125 2.386719 -70.308594 C 2.386719 -65.609375 3.464844 -61.375 5.542969 -57.679688 C 7.625 -54.058594 10.242188 -52.210938 13.476562 -52.210938 C 15.710938 -52.210938 18.097656 -53.445312 20.714844 -55.832031 C 19.636719 -56.832031 18.558594 -57.988281 17.558594 -59.296875 C 16.558594 -60.527344 15.632812 -61.992188 14.941406 -63.761719 C 14.246094 -65.535156 13.9375 -67.691406 13.9375 -70.308594 C 13.9375 -72.925781 14.707031 -75.546875 16.25 -78.007812 C 17.789062 -80.472656 19.945312 -82.476562 22.792969 -84.09375 C 25.566406 -85.710938 28.878906 -86.480469 32.652344 -86.480469 C 38.351562 -86.480469 42.738281 -85.246094 45.898438 -82.859375 C 48.976562 -80.398438 50.515625 -77.316406 50.515625 -73.695312 C 50.515625 -71.308594 49.976562 -68.921875 48.976562 -66.765625 C 47.898438 -64.53125 46.4375 -62.300781 44.664062 -59.914062 C 42.816406 -57.601562 40.738281 -55.136719 38.351562 -52.441406 L 35.960938 -49.671875 L 35.960938 -71.386719 C 35.960938 -76.699219 36.964844 -80.242188 38.890625 -82.089844 L 38.890625 -83.554688 L 21.484375 -80.089844 L 21.484375 -78.625 C 22.488281 -77.625 23.257812 -76.316406 23.71875 -74.773438 C 24.105469 -73.234375 24.335938 -71.15625 24.335938 -68.460938 L 24.335938 -45.898438 C 18.714844 -44.820312 13.9375 -42.507812 10.089844 -38.890625 C 7.394531 -36.347656 5.46875 -33.265625 4.082031 -29.726562 C 2.773438 -26.183594 2.078125 -22.410156 2.078125 -18.328125 C 2.078125 -14.324219 2.773438 -10.394531 4.082031 -6.699219 C 5.46875 -2.925781 7.546875 0.386719 10.242188 3.234375 C 16.171875 9.316406 23.871094 12.320312 33.421875 12.320312 Z M 33.421875 0.691406 C 28.953125 0.691406 25.335938 -0.152344 22.410156 -1.847656 C 19.484375 -3.542969 17.328125 -5.851562 15.863281 -8.703125 C 14.402344 -11.550781 13.707031 -14.785156 13.707031 -18.328125 C 13.707031 -26.566406 17.25 -31.804688 24.335938 -33.960938 L 24.335938 -16.710938 C 24.335938 -14.015625 24.105469 -11.9375 23.71875 -10.394531 C 23.257812 -8.855469 22.488281 -7.546875 21.484375 -6.546875 L 21.484375 -5.082031 L 38.890625 -5.082031 L 38.890625 -6.546875 C 37.8125 -7.546875 37.039062 -8.855469 36.65625 -10.394531 C 36.195312 -11.9375 35.960938 -14.015625 35.960938 -16.710938 L 35.960938 -25.105469 C 36.269531 -27.875 37.117188 -30.496094 38.503906 -33.113281 C 40.8125 -31.34375 42.894531 -28.648438 44.820312 -24.949219 C 47.898438 -27.644531 49.515625 -30.496094 49.515625 -33.574219 C 49.515625 -36.808594 47.976562 -39.660156 44.894531 -42.199219 L 46.667969 -44.203125 C 48.359375 -43.125 49.976562 -41.585938 51.59375 -39.660156 C 53.136719 -37.734375 54.523438 -35.5 55.523438 -32.804688 C 56.601562 -30.109375 57.140625 -27.03125 57.140625 -23.640625 C 57.140625 -20.792969 56.679688 -17.941406 55.832031 -15.015625 C 54.984375 -12.167969 53.675781 -9.550781 51.75 -7.160156 C 49.902344 -4.851562 47.4375 -2.925781 44.433594 -1.464844 C 41.429688 0 37.734375 0.691406 33.421875 0.691406 Z M 33.421875 0.691406 "/></g></g></g><g clip-path="url(#4326a69018)"><g clip-path="url(#c3998840c1)"><g clip-path="url(#356edd5a6b)"><path fill="#2a4b7e" d="M 212.75 85.808594 C 212.835938 86.78125 212.589844 87.566406 212.359375 88.332031 C 211.035156 92.738281 209.710938 97.144531 208.273438 101.515625 C 206.828125 105.914062 205.640625 110.398438 204.25 114.8125 C 202.65625 119.871094 201.945312 125.160156 200.183594 130.171875 C 200.023438 130.625 200 131.410156 199.339844 131.230469 C 198.738281 131.066406 198.972656 130.328125 199.097656 129.867188 C 199.992188 126.597656 200.886719 123.324219 201.863281 120.078125 C 203.386719 115.035156 204.890625 109.992188 206.242188 104.898438 C 207.121094 101.597656 208.265625 98.367188 209.328125 95.113281 C 210.1875 92.464844 211.097656 89.832031 211.992188 87.195312 C 212.148438 86.746094 212.234375 86.253906 212.75 85.808594 Z M 112.402344 143.597656 C 114.933594 144.4375 117.46875 145.261719 120 146.105469 C 129.144531 149.152344 138.511719 151.457031 147.707031 154.339844 C 149.410156 154.875 151.15625 155.277344 152.929688 155.539062 C 153.21875 155.582031 153.597656 155.667969 153.71875 155.292969 C 153.863281 154.851562 153.449219 154.714844 153.15625 154.613281 C 152.328125 154.320312 151.5 154.011719 150.644531 153.832031 C 140.628906 151.726562 131.070312 148.019531 121.183594 145.464844 C 118.105469 144.667969 115.074219 143.703125 111.808594 143.152344 C 111.988281 143.511719 112.214844 143.535156 112.402344 143.597656 Z M 260.164062 126.9375 C 256.195312 128.886719 252.207031 130.792969 248.261719 132.792969 C 244.371094 134.765625 240.644531 137.027344 236.953125 139.363281 C 233.574219 141.5 229.976562 143.265625 226.476562 145.199219 C 224.730469 146.164062 223.003906 147.175781 221.277344 148.183594 C 220.988281 148.351562 220.445312 148.523438 220.628906 148.917969 C 220.859375 149.414062 221.347656 149.003906 221.660156 148.886719 C 222.742188 148.484375 223.734375 147.886719 224.699219 147.257812 C 229.019531 144.449219 233.507812 141.941406 238.109375 139.621094 C 245.574219 135.851562 252.777344 131.597656 260.09375 127.554688 C 260.402344 127.382812 260.753906 127.234375 260.917969 126.824219 C 260.597656 126.710938 260.378906 126.832031 260.164062 126.9375 Z M 148.90625 91.765625 C 150.34375 94.90625 151.890625 97.992188 153.511719 101.046875 C 156.753906 107.144531 160.445312 112.984375 163.734375 119.058594 C 166.089844 123.402344 168.203125 127.863281 170.347656 132.3125 C 170.582031 132.800781 170.78125 133.320312 171.242188 133.660156 C 171.394531 133.773438 171.554688 133.871094 171.738281 133.761719 C 171.921875 133.648438 171.917969 133.453125 171.867188 133.277344 C 171.796875 133.042969 171.71875 132.8125 171.609375 132.597656 C 170.335938 130.054688 169.082031 127.496094 167.761719 124.976562 C 165.582031 120.816406 163.179688 116.78125 160.859375 112.699219 C 158.253906 108.125 155.828125 103.445312 153.304688 98.820312 C 151.839844 96.136719 150.480469 93.394531 148.699219 90.757812 C 148.632812 91.226562 148.78125 91.492188 148.90625 91.765625 Z M 236.609375 109.050781 C 230.199219 116.316406 223.773438 123.570312 217.390625 130.863281 C 215.675781 132.820312 214.089844 134.890625 212.457031 136.917969 C 212.222656 137.210938 211.84375 137.585938 212.257812 137.941406 C 212.652344 138.28125 212.898438 137.808594 213.136719 137.574219 C 214.042969 136.679688 214.929688 135.769531 215.734375 134.777344 C 222.257812 126.734375 229.015625 118.886719 235.726562 110.996094 C 236.582031 109.992188 237.390625 108.945312 238.027344 107.78125 C 237.40625 108.070312 237.027344 108.582031 236.609375 109.050781 Z M 119.714844 201.9375 C 124.464844 199.59375 129.246094 197.304688 133.992188 194.949219 C 140.152344 191.894531 146.164062 188.550781 152.484375 185.820312 C 153.761719 185.269531 154.976562 184.570312 156.070312 183.691406 C 156.335938 183.480469 156.765625 183.238281 156.523438 182.824219 C 156.28125 182.40625 155.84375 182.628906 155.550781 182.792969 C 153.644531 183.851562 151.621094 184.6875 149.757812 185.832031 C 146.890625 187.589844 143.949219 189.238281 140.886719 190.609375 C 134.464844 193.488281 128.203125 196.667969 122.082031 200.128906 C 121.078125 200.695312 120.039062 201.242188 119.234375 202.132812 C 119.394531 202.070312 119.558594 202.015625 119.714844 201.9375 Z M 131.660156 121.21875 C 136.421875 124.816406 141.015625 128.625 145.628906 132.40625 C 149.628906 135.691406 153.5625 139.0625 157.535156 142.382812 C 158.042969 142.808594 158.613281 143.160156 159.164062 143.535156 C 159.367188 143.675781 159.613281 143.785156 159.820312 143.5625 C 160.046875 143.324219 159.972656 143.050781 159.785156 142.824219 C 159.632812 142.640625 159.453125 142.46875 159.265625 142.320312 C 158.269531 141.527344 157.289062 140.714844 156.265625 139.964844 C 151.011719 136.109375 145.964844 132.007812 141.136719 127.628906 C 138.265625 125.023438 135.320312 122.5 131.960938 120.519531 C 131.550781 120.28125 131.15625 119.976562 130.582031 120.023438 C 130.765625 120.617188 131.242188 120.902344 131.660156 121.21875 Z M 117.394531 174.34375 C 123.152344 173.5625 128.910156 172.746094 134.675781 171.992188 C 139.480469 171.367188 144.332031 171.1875 149.152344 170.710938 C 150.089844 170.617188 151.015625 170.472656 151.925781 170.234375 C 152.199219 170.164062 152.464844 170.019531 152.429688 169.6875 C 152.386719 169.296875 152.078125 169.234375 151.75 169.253906 C 151.570312 169.265625 151.390625 169.300781 151.210938 169.328125 C 145.625 170.273438 140.007812 170.929688 134.359375 171.417969 C 127.816406 171.984375 121.273438 172.652344 114.828125 174.003906 C 114.363281 174.101562 113.867188 174.128906 113.292969 174.601562 C 114.828125 174.6875 116.113281 174.519531 117.394531 174.34375 Z M 180.234375 91.523438 C 180.34375 93.644531 180.628906 95.746094 180.914062 97.84375 C 181.792969 104.351562 182.722656 110.855469 183.585938 117.367188 C 184.089844 121.144531 184.496094 124.9375 184.988281 128.71875 C 185.042969 129.160156 184.984375 129.96875 185.730469 129.832031 C 186.421875 129.707031 186.160156 128.996094 186.078125 128.523438 C 185.644531 125.925781 185.101562 123.34375 184.742188 120.738281 C 183.601562 112.460938 182.535156 104.175781 181.414062 95.898438 C 181.164062 94.050781 180.984375 92.183594 180.425781 90.296875 C 180.121094 90.746094 180.214844 91.144531 180.234375 91.523438 Z M 197.425781 106.34375 C 196.628906 111.339844 196.199219 116.386719 195.214844 121.355469 C 194.734375 123.761719 194.476562 126.203125 194.144531 128.632812 C 194.074219 129.125 193.804688 129.90625 194.519531 130.03125 C 195.277344 130.164062 195.203125 129.328125 195.292969 128.84375 C 195.460938 127.921875 195.574219 126.984375 195.644531 126.050781 C 195.894531 122.878906 196.105469 119.699219 196.722656 116.578125 C 197.503906 112.617188 198.019531 108.625 198.503906 104.628906 C 198.613281 103.714844 198.785156 102.78125 198.4375 101.847656 C 197.875 103.304688 197.664062 104.832031 197.425781 106.34375 Z M 130.398438 188.632812 C 137.179688 185.875 143.96875 183.148438 150.917969 180.828125 C 152.003906 180.464844 153.136719 180.179688 154.105469 179.539062 C 154.382812 179.355469 154.816406 179.125 154.554688 178.6875 C 154.339844 178.324219 153.949219 178.511719 153.648438 178.621094 C 152.28125 179.109375 150.898438 179.566406 149.5625 180.128906 C 144.679688 182.175781 139.710938 184 134.78125 185.929688 C 132.324219 186.890625 130.066406 188.210938 127.847656 189.609375 C 128.710938 189.289062 129.558594 188.972656 130.398438 188.632812 Z M 215.054688 104.96875 C 214.941406 105.179688 214.8125 105.382812 214.714844 105.601562 C 213.203125 109.074219 211.683594 112.542969 210.1875 116.023438 C 209.277344 118.136719 208.441406 120.285156 207.511719 122.390625 C 206.425781 124.859375 205.269531 127.296875 204.164062 129.753906 C 203.828125 130.5 203.554688 131.277344 203.425781 132.089844 C 203.382812 132.367188 203.355469 132.660156 203.695312 132.773438 C 204.023438 132.882812 204.203125 132.660156 204.347656 132.417969 C 204.441406 132.261719 204.511719 132.09375 204.574219 131.925781 C 205.09375 130.53125 205.574219 129.128906 206.132812 127.75 C 207.480469 124.410156 208.746094 121.023438 210.269531 117.757812 C 211.882812 114.292969 213.351562 110.777344 214.644531 107.183594 C 214.898438 106.476562 215.222656 105.800781 215.519531 105.109375 C 215.363281 105.0625 215.210938 105.015625 215.054688 104.96875 Z M 125.992188 156.699219 C 134.285156 158.097656 142.675781 158.855469 150.953125 160.363281 C 151.304688 160.429688 151.675781 160.410156 152.035156 160.394531 C 152.3125 160.378906 152.617188 160.300781 152.617188 159.949219 C 152.617188 159.578125 152.292969 159.566406 152.023438 159.535156 C 150.972656 159.40625 149.921875 159.269531 148.871094 159.15625 C 143.027344 158.539062 137.273438 157.304688 131.429688 156.703125 C 129.339844 156.488281 127.253906 156.105469 124.992188 156.332031 C 125.382812 156.65625 125.699219 156.648438 125.992188 156.699219 Z M 131.730469 142.792969 C 136.296875 144.894531 141.089844 146.4375 145.703125 148.429688 C 148.316406 149.554688 150.945312 150.644531 153.582031 151.707031 C 154 151.875 154.699219 152.285156 154.925781 151.621094 C 155.136719 151.007812 154.347656 150.964844 153.945312 150.808594 C 149.597656 149.121094 145.140625 147.691406 140.953125 145.640625 C 137.765625 144.082031 134.472656 142.980469 130.847656 142.273438 C 131.152344 142.652344 131.46875 142.675781 131.730469 142.792969 Z M 167.511719 110.53125 C 167.769531 111.308594 167.984375 112.101562 168.3125 112.847656 C 170.84375 118.550781 172.964844 124.410156 174.941406 130.324219 C 175.058594 130.664062 175.226562 130.992188 175.402344 131.304688 C 175.523438 131.523438 175.726562 131.695312 176.003906 131.582031 C 176.28125 131.472656 176.308594 131.214844 176.242188 130.96875 C 176.089844 130.382812 175.964844 129.785156 175.746094 129.226562 C 173.628906 123.816406 171.503906 118.40625 169.195312 113.074219 C 168.773438 112.09375 168.269531 111.148438 167.582031 110.175781 C 167.539062 110.382812 167.488281 110.46875 167.511719 110.53125 Z M 154.171875 120.132812 C 155.828125 122.519531 157.742188 124.710938 159.457031 127.050781 C 161.410156 129.707031 163.292969 132.414062 165.210938 135.09375 C 165.472656 135.460938 165.761719 135.816406 166.070312 136.144531 C 166.3125 136.398438 166.59375 136.761719 166.992188 136.484375 C 167.402344 136.195312 167.128906 135.828125 166.953125 135.523438 C 166.804688 135.261719 166.613281 135.023438 166.429688 134.785156 C 163.273438 130.726562 160.128906 126.660156 156.953125 122.621094 C 156.050781 121.472656 155.207031 120.253906 153.914062 119.328125 C 153.832031 119.78125 154.039062 119.945312 154.171875 120.132812 Z M 135.109375 165.820312 C 137.316406 165.816406 139.527344 165.800781 141.734375 165.707031 C 144.640625 165.585938 147.53125 166.082031 150.4375 165.890625 C 150.921875 165.859375 151.410156 165.871094 151.855469 165.628906 C 152.042969 165.527344 152.238281 165.40625 152.1875 165.148438 C 152.140625 164.914062 151.960938 164.792969 151.730469 164.773438 C 151.160156 164.730469 150.582031 164.660156 150.011719 164.675781 C 145.082031 164.777344 140.15625 164.886719 135.226562 165.027344 C 134.585938 165.042969 133.90625 165.015625 133.257812 165.410156 C 133.839844 165.910156 134.503906 165.824219 135.109375 165.820312 Z M 176.332031 113.597656 C 176.765625 115.550781 177.113281 117.523438 177.664062 119.4375 C 178.582031 122.609375 179.003906 125.910156 180.183594 129.007812 C 180.367188 129.5 180.429688 130.398438 181.136719 130.210938 C 181.964844 129.988281 181.539062 129.148438 181.347656 128.652344 C 179.875 124.886719 179.136719 120.914062 178.070312 117.035156 C 177.660156 115.539062 177.058594 114.109375 176.238281 112.742188 C 176.269531 113.027344 176.273438 113.320312 176.332031 113.597656 Z M 240.320312 129.84375 C 239.195312 130.605469 238.039062 131.324219 236.953125 132.136719 C 233 135.097656 228.949219 137.910156 224.777344 140.554688 C 222.886719 141.75 220.980469 142.9375 219.261719 144.390625 C 218.976562 144.632812 218.46875 144.933594 218.738281 145.320312 C 219.066406 145.785156 219.441406 145.265625 219.71875 145.070312 C 221.96875 143.476562 224.171875 141.816406 226.441406 140.257812 C 230.339844 137.589844 234.214844 134.894531 237.996094 132.058594 C 238.847656 131.421875 239.625 130.679688 240.4375 129.984375 C 240.398438 129.9375 240.359375 129.890625 240.320312 129.84375 Z M 189.386719 112.078125 C 189.265625 115.316406 189.503906 118.550781 189.324219 121.789062 C 189.210938 123.777344 189.304688 125.78125 189.316406 127.777344 C 189.316406 128.203125 189.347656 128.628906 189.523438 129.023438 C 189.621094 129.242188 189.730469 129.496094 190.035156 129.441406 C 190.292969 129.394531 190.34375 129.152344 190.351562 128.945312 C 190.382812 128.21875 190.429688 127.492188 190.398438 126.769531 C 190.242188 122.898438 190.015625 119.035156 190.234375 115.15625 C 190.308594 113.835938 190.367188 112.492188 190.082031 111.175781 C 190.039062 110.976562 190.089844 110.640625 189.652344 110.78125 C 189.40625 111.171875 189.402344 111.628906 189.386719 112.078125 Z M 151.242188 129.695312 C 154.433594 132.960938 157.621094 136.222656 160.816406 139.480469 C 161.152344 139.824219 161.5 140.171875 161.945312 140.382812 C 162.214844 140.507812 162.488281 140.519531 162.683594 140.261719 C 162.851562 140.035156 162.769531 139.789062 162.613281 139.59375 C 162.386719 139.308594 162.148438 139.035156 161.890625 138.78125 C 158.617188 135.554688 155.152344 132.539062 151.742188 129.460938 C 151.492188 129.230469 151.261719 128.90625 150.828125 128.949219 C 150.777344 129.316406 151.046875 129.492188 151.242188 129.695312 Z M 143.695312 140.007812 C 147.234375 141.9375 150.5 144.320312 154.023438 146.273438 C 154.816406 146.710938 155.644531 147.089844 156.46875 147.472656 C 156.714844 147.589844 157.03125 147.652344 157.199219 147.351562 C 157.359375 147.058594 157.15625 146.824219 156.929688 146.65625 C 156.660156 146.464844 156.371094 146.289062 156.078125 146.132812 C 152.242188 144.121094 148.515625 141.921875 144.792969 139.710938 C 144.003906 139.242188 143.164062 138.945312 142.023438 138.660156 C 142.621094 139.351562 143.148438 139.710938 143.695312 140.007812 Z M 137.675781 177.992188 C 137.761719 178.347656 138.136719 178.207031 138.378906 178.183594 C 138.886719 178.136719 139.40625 178.070312 139.898438 177.933594 C 142.785156 177.113281 145.714844 176.492188 148.660156 175.929688 C 149.90625 175.691406 151.132812 175.328125 152.355469 174.980469 C 152.710938 174.878906 153.195312 174.738281 153.0625 174.207031 C 152.921875 173.648438 152.429688 173.722656 152.007812 173.796875 C 151.59375 173.871094 151.179688 173.984375 150.78125 174.121094 C 147.917969 175.113281 145 175.917969 142.023438 176.507812 C 140.71875 176.765625 139.417969 177.0625 138.121094 177.5625 C 138.027344 177.730469 137.605469 177.691406 137.675781 177.992188 Z M 227.476562 131.53125 C 227.316406 131.617188 227.144531 131.679688 227.003906 131.785156 C 224.035156 133.984375 221.070312 136.183594 218.113281 138.394531 C 217.242188 139.042969 216.328125 139.65625 215.652344 140.53125 C 215.4375 140.804688 215.089844 141.144531 215.425781 141.484375 C 215.757812 141.828125 216.105469 141.484375 216.382812 141.277344 C 219.078125 139.222656 221.730469 137.109375 224.234375 134.816406 C 225.363281 133.78125 226.464844 132.71875 227.582031 131.671875 C 227.546875 131.625 227.511719 131.578125 227.476562 131.53125 Z M 216.039062 123.5 C 213.804688 126.617188 211.570312 129.738281 209.359375 132.875 C 208.976562 133.414062 208.703125 134.03125 208.394531 134.617188 C 208.265625 134.867188 208.15625 135.15625 208.429688 135.359375 C 208.757812 135.601562 208.988281 135.335938 209.195312 135.117188 C 209.320312 134.988281 209.421875 134.835938 209.527344 134.691406 C 212.089844 131.269531 214.199219 127.566406 216.390625 123.910156 C 216.566406 123.613281 216.796875 123.304688 216.679688 122.898438 C 216.324219 122.957031 216.207031 123.265625 216.039062 123.5 Z M 132.855469 179.382812 C 133.121094 179.894531 133.582031 179.992188 134.085938 179.742188 C 134.527344 179.523438 134.695312 179.148438 134.453125 178.691406 C 134.179688 178.179688 133.71875 178.136719 133.222656 178.292969 C 132.789062 178.566406 132.628906 178.941406 132.855469 179.382812 Z M 129.308594 164.582031 C 128.882812 164.824219 128.746094 165.246094 128.992188 165.671875 C 129.253906 166.125 129.695312 166.242188 130.164062 165.992188 C 130.613281 165.75 130.671875 165.355469 130.46875 164.882812 C 130.175781 164.464844 129.769531 164.320312 129.308594 164.582031 Z M 175.125 108.164062 C 174.703125 108.394531 174.636719 108.84375 174.816406 109.265625 C 175.019531 109.742188 175.425781 109.949219 175.910156 109.710938 C 176.359375 109.488281 176.40625 109.074219 176.21875 108.601562 C 175.957031 108.242188 175.628906 107.886719 175.125 108.164062 Z M 233.691406 125.050781 C 233.257812 125.320312 233.066406 125.722656 233.335938 126.195312 C 233.589844 126.640625 234.011719 126.671875 234.421875 126.421875 C 234.863281 126.15625 235.015625 125.765625 234.773438 125.246094 C 234.488281 124.871094 234.109375 124.789062 233.691406 125.050781 Z M 174.285156 103.414062 C 173.808594 103.707031 173.726562 104.183594 173.988281 104.667969 C 174.207031 105.070312 174.589844 105.171875 174.984375 104.953125 C 175.480469 104.679688 175.449219 104.242188 175.222656 103.738281 C 175.003906 103.445312 174.710938 103.144531 174.285156 103.414062 Z M 219.21875 119.355469 C 219 118.949219 218.621094 118.851562 218.21875 119.074219 C 217.792969 119.308594 217.613281 119.695312 217.875 120.132812 C 218.109375 120.527344 218.503906 120.546875 218.910156 120.363281 C 219.265625 120.105469 219.4375 119.761719 219.21875 119.355469 Z M 145.226562 124.140625 C 145.429688 124.542969 145.78125 124.71875 146.203125 124.535156 C 146.65625 124.335938 146.800781 123.949219 146.601562 123.492188 C 146.398438 123.03125 146.023438 122.914062 145.519531 123.074219 C 145.160156 123.335938 145.003906 123.695312 145.226562 124.140625 Z M 138.558594 137.597656 C 138.808594 138.035156 139.207031 138.128906 139.636719 137.898438 C 140.011719 137.695312 140.09375 137.335938 139.890625 136.972656 C 139.644531 136.539062 139.257812 136.464844 138.816406 136.652344 C 138.476562 136.910156 138.347656 137.226562 138.558594 137.597656 Z M 229.925781 129.1875 C 230.117188 129.554688 230.460938 129.664062 230.839844 129.476562 C 231.246094 129.269531 231.378906 128.910156 231.195312 128.496094 C 231.011719 128.085938 230.652344 128.089844 230.273438 128.222656 C 229.898438 128.449219 229.703125 128.765625 229.925781 129.1875 Z M 128.925781 179.539062 C 128.5625 179.769531 128.46875 180.109375 128.699219 180.472656 C 128.933594 180.835938 129.289062 180.863281 129.648438 180.667969 C 130.023438 180.464844 130.128906 180.148438 129.949219 179.757812 C 129.667969 179.382812 129.320312 179.292969 128.925781 179.539062 Z M 220.59375 115.609375 C 220.191406 115.832031 220.058594 116.199219 220.300781 116.605469 C 220.5 116.9375 220.839844 116.984375 221.171875 116.796875 C 221.546875 116.582031 221.617188 116.25 221.460938 115.867188 C 221.238281 115.542969 220.9375 115.425781 220.59375 115.609375 Z M 148.128906 125.972656 C 147.761719 126.1875 147.679688 126.53125 147.886719 126.902344 C 148.074219 127.242188 148.386719 127.332031 148.730469 127.152344 C 149.105469 126.957031 149.195312 126.632812 149.039062 126.199219 C 148.8125 125.910156 148.5 125.753906 148.128906 125.972656 Z M 189.246094 107.210938 C 188.910156 107.394531 188.777344 107.6875 188.941406 108.050781 C 189.105469 108.414062 189.410156 108.539062 189.761719 108.378906 C 190.15625 108.203125 190.230469 107.859375 190.089844 107.433594 C 189.878906 107.148438 189.597656 107.019531 189.246094 107.210938 Z M 189.246094 107.210938 " fill-opacity="1" fill-rule="nonzero"/><path fill="#2a4b7e" d="M 212.75 85.808594 C 212.835938 86.78125 212.589844 87.566406 212.359375 88.332031 C 211.035156 92.738281 209.710938 97.144531 208.273438 101.515625 C 206.828125 105.914062 205.640625 110.398438 204.25 114.8125 C 202.65625 119.871094 201.945312 125.160156 200.183594 130.171875 C 200.023438 130.625 200 131.410156 199.339844 131.230469 C 198.738281 131.066406 198.972656 130.328125 199.097656 129.867188 C 199.992188 126.597656 200.886719 123.324219 201.863281 120.078125 C 203.386719 115.035156 204.890625 109.992188 206.242188 104.898438 C 207.121094 101.597656 208.265625 98.367188 209.328125 95.113281 C 210.1875 92.464844 211.097656 89.832031 211.992188 87.195312 C 212.148438 86.746094 212.234375 86.253906 212.75 85.808594 Z M 112.402344 143.597656 C 114.933594 144.4375 117.46875 145.261719 120 146.105469 C 129.144531 149.152344 138.511719 151.457031 147.707031 154.339844 C 149.410156 154.875 151.15625 155.277344 152.929688 155.539062 C 153.21875 155.582031 153.597656 155.667969 153.71875 155.292969 C 153.863281 154.851562 153.449219 154.714844 153.15625 154.613281 C 152.328125 154.320312 151.5 154.011719 150.644531 153.832031 C 140.628906 151.726562 131.070312 148.019531 121.183594 145.464844 C 118.105469 144.667969 115.074219 143.703125 111.808594 143.152344 C 111.988281 143.511719 112.214844 143.535156 112.402344 143.597656 Z M 260.164062 126.9375 C 256.195312 128.886719 252.207031 130.792969 248.261719 132.792969 C 244.371094 134.765625 240.644531 137.027344 236.953125 139.363281 C 233.574219 141.5 229.976562 143.265625 226.476562 145.199219 C 224.730469 146.164062 223.003906 147.175781 221.277344 148.183594 C 220.988281 148.351562 220.445312 148.523438 220.628906 148.917969 C 220.859375 149.414062 221.347656 149.003906 221.660156 148.886719 C 222.742188 148.484375 223.734375 147.886719 224.699219 147.257812 C 229.019531 144.449219 233.507812 141.941406 238.109375 139.621094 C 245.574219 135.851562 252.777344 131.597656 260.09375 127.554688 C 260.402344 127.382812 260.753906 127.234375 260.917969 126.824219 C 260.597656 126.710938 260.378906 126.832031 260.164062 126.9375 Z M 148.90625 91.765625 C 150.34375 94.90625 151.890625 97.992188 153.511719 101.046875 C 156.753906 107.144531 160.445312 112.984375 163.734375 119.058594 C 166.089844 123.402344 168.203125 127.863281 170.347656 132.3125 C 170.582031 132.800781 170.78125 133.320312 171.242188 133.660156 C 171.394531 133.773438 171.554688 133.871094 171.738281 133.761719 C 171.921875 133.648438 171.917969 133.453125 171.867188 133.277344 C 171.796875 133.042969 171.71875 132.8125 171.609375 132.597656 C 170.335938 130.054688 169.082031 127.496094 167.761719 124.976562 C 165.582031 120.816406 163.179688 116.78125 160.859375 112.699219 C 158.253906 108.125 155.828125 103.445312 153.304688 98.820312 C 151.839844 96.136719 150.480469 93.394531 148.699219 90.757812 C 148.632812 91.226562 148.78125 91.492188 148.90625 91.765625 Z M 236.609375 109.050781 C 230.199219 116.316406 223.773438 123.570312 217.390625 130.863281 C 215.675781 132.820312 214.089844 134.890625 212.457031 136.917969 C 212.222656 137.210938 211.84375 137.585938 212.257812 137.941406 C 212.652344 138.28125 212.898438 137.808594 213.136719 137.574219 C 214.042969 136.679688 214.929688 135.769531 215.734375 134.777344 C 222.257812 126.734375 229.015625 118.886719 235.726562 110.996094 C 236.582031 109.992188 237.390625 108.945312 238.027344 107.78125 C 237.40625 108.070312 237.027344 108.582031 236.609375 109.050781 Z M 119.714844 201.9375 C 124.464844 199.59375 129.246094 197.304688 133.992188 194.949219 C 140.152344 191.894531 146.164062 188.550781 152.484375 185.820312 C 153.761719 185.269531 154.976562 184.570312 156.070312 183.691406 C 156.335938 183.480469 156.765625 183.238281 156.523438 182.824219 C 156.28125 182.40625 155.84375 182.628906 155.550781 182.792969 C 153.644531 183.851562 151.621094 184.6875 149.757812 185.832031 C 146.890625 187.589844 143.949219 189.238281 140.886719 190.609375 C 134.464844 193.488281 128.203125 196.667969 122.082031 200.128906 C 121.078125 200.695312 120.039062 201.242188 119.234375 202.132812 C 119.394531 202.070312 119.558594 202.015625 119.714844 201.9375 Z M 131.660156 121.21875 C 136.421875 124.816406 141.015625 128.625 145.628906 132.40625 C 149.628906 135.691406 153.5625 139.0625 157.535156 142.382812 C 158.042969 142.808594 158.613281 143.160156 159.164062 143.535156 C 159.367188 143.675781 159.613281 143.785156 159.820312 143.5625 C 160.046875 143.324219 159.972656 143.050781 159.785156 142.824219 C 159.632812 142.640625 159.453125 142.46875 159.265625 142.320312 C 158.269531 141.527344 157.289062 140.714844 156.265625 139.964844 C 151.011719 136.109375 145.964844 132.007812 141.136719 127.628906 C 138.265625 125.023438 135.320312 122.5 131.960938 120.519531 C 131.550781 120.28125 131.15625 119.976562 130.582031 120.023438 C 130.765625 120.617188 131.242188 120.902344 131.660156 121.21875 Z M 117.394531 174.34375 C 123.152344 173.5625 128.910156 172.746094 134.675781 171.992188 C 139.480469 171.367188 144.332031 171.1875 149.152344 170.710938 C 150.089844 170.617188 151.015625 170.472656 151.925781 170.234375 C 152.199219 170.164062 152.464844 170.019531 152.429688 169.6875 C 152.386719 169.296875 152.078125 169.234375 151.75 169.253906 C 151.570312 169.265625 151.390625 169.300781 151.210938 169.328125 C 145.625 170.273438 140.007812 170.929688 134.359375 171.417969 C 127.816406 171.984375 121.273438 172.652344 114.828125 174.003906 C 114.363281 174.101562 113.867188 174.128906 113.292969 174.601562 C 114.828125 174.6875 116.113281 174.519531 117.394531 174.34375 Z M 180.234375 91.523438 C 180.34375 93.644531 180.628906 95.746094 180.914062 97.84375 C 181.792969 104.351562 182.722656 110.855469 183.585938 117.367188 C 184.089844 121.144531 184.496094 124.9375 184.988281 128.71875 C 185.042969 129.160156 184.984375 129.96875 185.730469 129.832031 C 186.421875 129.707031 186.160156 128.996094 186.078125 128.523438 C 185.644531 125.925781 185.101562 123.34375 184.742188 120.738281 C 183.601562 112.460938 182.535156 104.175781 181.414062 95.898438 C 181.164062 94.050781 180.984375 92.183594 180.425781 90.296875 C 180.121094 90.746094 180.214844 91.144531 180.234375 91.523438 Z M 197.425781 106.34375 C 196.628906 111.339844 196.199219 116.386719 195.214844 121.355469 C 194.734375 123.761719 194.476562 126.203125 194.144531 128.632812 C 194.074219 129.125 193.804688 129.90625 194.519531 130.03125 C 195.277344 130.164062 195.203125 129.328125 195.292969 128.84375 C 195.460938 127.921875 195.574219 126.984375 195.644531 126.050781 C 195.894531 122.878906 196.105469 119.699219 196.722656 116.578125 C 197.503906 112.617188 198.019531 108.625 198.503906 104.628906 C 198.613281 103.714844 198.785156 102.78125 198.4375 101.847656 C 197.875 103.304688 197.664062 104.832031 197.425781 106.34375 Z M 130.398438 188.632812 C 137.179688 185.875 143.96875 183.148438 150.917969 180.828125 C 152.003906 180.464844 153.136719 180.179688 154.105469 179.539062 C 154.382812 179.355469 154.816406 179.125 154.554688 178.6875 C 154.339844 178.324219 153.949219 178.511719 153.648438 178.621094 C 152.28125 179.109375 150.898438 179.566406 149.5625 180.128906 C 144.679688 182.175781 139.710938 184 134.78125 185.929688 C 132.324219 186.890625 130.066406 188.210938 127.847656 189.609375 C 128.710938 189.289062 129.558594 188.972656 130.398438 188.632812 Z M 215.054688 104.96875 C 214.941406 105.179688 214.8125 105.382812 214.714844 105.601562 C 213.203125 109.074219 211.683594 112.542969 210.1875 116.023438 C 209.277344 118.136719 208.441406 120.285156 207.511719 122.390625 C 206.425781 124.859375 205.269531 127.296875 204.164062 129.753906 C 203.828125 130.5 203.554688 131.277344 203.425781 132.089844 C 203.382812 132.367188 203.355469 132.660156 203.695312 132.773438 C 204.023438 132.882812 204.203125 132.660156 204.347656 132.417969 C 204.441406 132.261719 204.511719 132.09375 204.574219 131.925781 C 205.09375 130.53125 205.574219 129.128906 206.132812 127.75 C 207.480469 124.410156 208.746094 121.023438 210.269531 117.757812 C 211.882812 114.292969 213.351562 110.777344 214.644531 107.183594 C 214.898438 106.476562 215.222656 105.800781 215.519531 105.109375 C 215.363281 105.0625 215.210938 105.015625 215.054688 104.96875 Z M 125.992188 156.699219 C 134.285156 158.097656 142.675781 158.855469 150.953125 160.363281 C 151.304688 160.429688 151.675781 160.410156 152.035156 160.394531 C 152.3125 160.378906 152.617188 160.300781 152.617188 159.949219 C 152.617188 159.578125 152.292969 159.566406 152.023438 159.535156 C 150.972656 159.40625 149.921875 159.269531 148.871094 159.15625 C 143.027344 158.539062 137.273438 157.304688 131.429688 156.703125 C 129.339844 156.488281 127.253906 156.105469 124.992188 156.332031 C 125.382812 156.65625 125.699219 156.648438 125.992188 156.699219 Z M 131.730469 142.792969 C 136.296875 144.894531 141.089844 146.4375 145.703125 148.429688 C 148.316406 149.554688 150.945312 150.644531 153.582031 151.707031 C 154 151.875 154.699219 152.285156 154.925781 151.621094 C 155.136719 151.007812 154.347656 150.964844 153.945312 150.808594 C 149.597656 149.121094 145.140625 147.691406 140.953125 145.640625 C 137.765625 144.082031 134.472656 142.980469 130.847656 142.273438 C 131.152344 142.652344 131.46875 142.675781 131.730469 142.792969 Z M 167.511719 110.53125 C 167.769531 111.308594 167.984375 112.101562 168.3125 112.847656 C 170.84375 118.550781 172.964844 124.410156 174.941406 130.324219 C 175.058594 130.664062 175.226562 130.992188 175.402344 131.304688 C 175.523438 131.523438 175.726562 131.695312 176.003906 131.582031 C 176.28125 131.472656 176.308594 131.214844 176.242188 130.96875 C 176.089844 130.382812 175.964844 129.785156 175.746094 129.226562 C 173.628906 123.816406 171.503906 118.40625 169.195312 113.074219 C 168.773438 112.09375 168.269531 111.148438 167.582031 110.175781 C 167.539062 110.382812 167.488281 110.46875 167.511719 110.53125 Z M 154.171875 120.132812 C 155.828125 122.519531 157.742188 124.710938 159.457031 127.050781 C 161.410156 129.707031 163.292969 132.414062 165.210938 135.09375 C 165.472656 135.460938 165.761719 135.816406 166.070312 136.144531 C 166.3125 136.398438 166.59375 136.761719 166.992188 136.484375 C 167.402344 136.195312 167.128906 135.828125 166.953125 135.523438 C 166.804688 135.261719 166.613281 135.023438 166.429688 134.785156 C 163.273438 130.726562 160.128906 126.660156 156.953125 122.621094 C 156.050781 121.472656 155.207031 120.253906 153.914062 119.328125 C 153.832031 119.78125 154.039062 119.945312 154.171875 120.132812 Z M 135.109375 165.820312 C 137.316406 165.816406 139.527344 165.800781 141.734375 165.707031 C 144.640625 165.585938 147.53125 166.082031 150.4375 165.890625 C 150.921875 165.859375 151.410156 165.871094 151.855469 165.628906 C 152.042969 165.527344 152.238281 165.40625 152.1875 165.148438 C 152.140625 164.914062 151.960938 164.792969 151.730469 164.773438 C 151.160156 164.730469 150.582031 164.660156 150.011719 164.675781 C 145.082031 164.777344 140.15625 164.886719 135.226562 165.027344 C 134.585938 165.042969 133.90625 165.015625 133.257812 165.410156 C 133.839844 165.910156 134.503906 165.824219 135.109375 165.820312 Z M 176.332031 113.597656 C 176.765625 115.550781 177.113281 117.523438 177.664062 119.4375 C 178.582031 122.609375 179.003906 125.910156 180.183594 129.007812 C 180.367188 129.5 180.429688 130.398438 181.136719 130.210938 C 181.964844 129.988281 181.539062 129.148438 181.347656 128.652344 C 179.875 124.886719 179.136719 120.914062 178.070312 117.035156 C 177.660156 115.539062 177.058594 114.109375 176.238281 112.742188 C 176.269531 113.027344 176.273438 113.320312 176.332031 113.597656 Z M 240.320312 129.84375 C 239.195312 130.605469 238.039062 131.324219 236.953125 132.136719 C 233 135.097656 228.949219 137.910156 224.777344 140.554688 C 222.886719 141.75 220.980469 142.9375 219.261719 144.390625 C 218.976562 144.632812 218.46875 144.933594 218.738281 145.320312 C 219.066406 145.785156 219.441406 145.265625 219.71875 145.070312 C 221.96875 143.476562 224.171875 141.816406 226.441406 140.257812 C 230.339844 137.589844 234.214844 134.894531 237.996094 132.058594 C 238.847656 131.421875 239.625 130.679688 240.4375 129.984375 C 240.398438 129.9375 240.359375 129.890625 240.320312 129.84375 Z M 189.386719 112.078125 C 189.265625 115.316406 189.503906 118.550781 189.324219 121.789062 C 189.210938 123.777344 189.304688 125.78125 189.316406 127.777344 C 189.316406 128.203125 189.347656 128.628906 189.523438 129.023438 C 189.621094 129.242188 189.730469 129.496094 190.035156 129.441406 C 190.292969 129.394531 190.34375 129.152344 190.351562 128.945312 C 190.382812 128.21875 190.429688 127.492188 190.398438 126.769531 C 190.242188 122.898438 190.015625 119.035156 190.234375 115.15625 C 190.308594 113.835938 190.367188 112.492188 190.082031 111.175781 C 190.039062 110.976562 190.089844 110.640625 189.652344 110.78125 C 189.40625 111.171875 189.402344 111.628906 189.386719 112.078125 Z M 151.242188 129.695312 C 154.433594 132.960938 157.621094 136.222656 160.816406 139.480469 C 161.152344 139.824219 161.5 140.171875 161.945312 140.382812 C 162.214844 140.507812 162.488281 140.519531 162.683594 140.261719 C 162.851562 140.035156 162.769531 139.789062 162.613281 139.59375 C 162.386719 139.308594 162.148438 139.035156 161.890625 138.78125 C 158.617188 135.554688 155.152344 132.539062 151.742188 129.460938 C 151.492188 129.230469 151.261719 128.90625 150.828125 128.949219 C 150.777344 129.316406 151.046875 129.492188 151.242188 129.695312 Z M 143.695312 140.007812 C 147.234375 141.9375 150.5 144.320312 154.023438 146.273438 C 154.816406 146.710938 155.644531 147.089844 156.46875 147.472656 C 156.714844 147.589844 157.03125 147.652344 157.199219 147.351562 C 157.359375 147.058594 157.15625 146.824219 156.929688 146.65625 C 156.660156 146.464844 156.371094 146.289062 156.078125 146.132812 C 152.242188 144.121094 148.515625 141.921875 144.792969 139.710938 C 144.003906 139.242188 143.164062 138.945312 142.023438 138.660156 C 142.621094 139.351562 143.148438 139.710938 143.695312 140.007812 Z M 137.675781 177.992188 C 137.761719 178.347656 138.136719 178.207031 138.378906 178.183594 C 138.886719 178.136719 139.40625 178.070312 139.898438 177.933594 C 142.785156 177.113281 145.714844 176.492188 148.660156 175.929688 C 149.90625 175.691406 151.132812 175.328125 152.355469 174.980469 C 152.710938 174.878906 153.195312 174.738281 153.0625 174.207031 C 152.921875 173.648438 152.429688 173.722656 152.007812 173.796875 C 151.59375 173.871094 151.179688 173.984375 150.78125 174.121094 C 147.917969 175.113281 145 175.917969 142.023438 176.507812 C 140.71875 176.765625 139.417969 177.0625 138.121094 177.5625 C 138.027344 177.730469 137.605469 177.691406 137.675781 177.992188 Z M 227.476562 131.53125 C 227.316406 131.617188 227.144531 131.679688 227.003906 131.785156 C 224.035156 133.984375 221.070312 136.183594 218.113281 138.394531 C 217.242188 139.042969 216.328125 139.65625 215.652344 140.53125 C 215.4375 140.804688 215.089844 141.144531 215.425781 141.484375 C 215.757812 141.828125 216.105469 141.484375 216.382812 141.277344 C 219.078125 139.222656 221.730469 137.109375 224.234375 134.816406 C 225.363281 133.78125 226.464844 132.71875 227.582031 131.671875 C 227.546875 131.625 227.511719 131.578125 227.476562 131.53125 Z M 216.039062 123.5 C 213.804688 126.617188 211.570312 129.738281 209.359375 132.875 C 208.976562 133.414062 208.703125 134.03125 208.394531 134.617188 C 208.265625 134.867188 208.15625 135.15625 208.429688 135.359375 C 208.757812 135.601562 208.988281 135.335938 209.195312 135.117188 C 209.320312 134.988281 209.421875 134.835938 209.527344 134.691406 C 212.089844 131.269531 214.199219 127.566406 216.390625 123.910156 C 216.566406 123.613281 216.796875 123.304688 216.679688 122.898438 C 216.324219 122.957031 216.207031 123.265625 216.039062 123.5 Z M 132.855469 179.382812 C 133.121094 179.894531 133.582031 179.992188 134.085938 179.742188 C 134.527344 179.523438 134.695312 179.148438 134.453125 178.691406 C 134.179688 178.179688 133.71875 178.136719 133.222656 178.292969 C 132.789062 178.566406 132.628906 178.941406 132.855469 179.382812 Z M 129.308594 164.582031 C 128.882812 164.824219 128.746094 165.246094 128.992188 165.671875 C 129.253906 166.125 129.695312 166.242188 130.164062 165.992188 C 130.613281 165.75 130.671875 165.355469 130.46875 164.882812 C 130.175781 164.464844 129.769531 164.320312 129.308594 164.582031 Z M 175.125 108.164062 C 174.703125 108.394531 174.636719 108.84375 174.816406 109.265625 C 175.019531 109.742188 175.425781 109.949219 175.910156 109.710938 C 176.359375 109.488281 176.40625 109.074219 176.21875 108.601562 C 175.957031 108.242188 175.628906 107.886719 175.125 108.164062 Z M 233.691406 125.050781 C 233.257812 125.320312 233.066406 125.722656 233.335938 126.195312 C 233.589844 126.640625 234.011719 126.671875 234.421875 126.421875 C 234.863281 126.15625 235.015625 125.765625 234.773438 125.246094 C 234.488281 124.871094 234.109375 124.789062 233.691406 125.050781 Z M 174.285156 103.414062 C 173.808594 103.707031 173.726562 104.183594 173.988281 104.667969 C 174.207031 105.070312 174.589844 105.171875 174.984375 104.953125 C 175.480469 104.679688 175.449219 104.242188 175.222656 103.738281 C 175.003906 103.445312 174.710938 103.144531 174.285156 103.414062 Z M 219.21875 119.355469 C 219 118.949219 218.621094 118.851562 218.21875 119.074219 C 217.792969 119.308594 217.613281 119.695312 217.875 120.132812 C 218.109375 120.527344 218.503906 120.546875 218.910156 120.363281 C 219.265625 120.105469 219.4375 119.761719 219.21875 119.355469 Z M 145.226562 124.140625 C 145.429688 124.542969 145.78125 124.71875 146.203125 124.535156 C 146.65625 124.335938 146.800781 123.949219 146.601562 123.492188 C 146.398438 123.03125 146.023438 122.914062 145.519531 123.074219 C 145.160156 123.335938 145.003906 123.695312 145.226562 124.140625 Z M 138.558594 137.597656 C 138.808594 138.035156 139.207031 138.128906 139.636719 137.898438 C 140.011719 137.695312 140.09375 137.335938 139.890625 136.972656 C 139.644531 136.539062 139.257812 136.464844 138.816406 136.652344 C 138.476562 136.910156 138.347656 137.226562 138.558594 137.597656 Z M 229.925781 129.1875 C 230.117188 129.554688 230.460938 129.664062 230.839844 129.476562 C 231.246094 129.269531 231.378906 128.910156 231.195312 128.496094 C 231.011719 128.085938 230.652344 128.089844 230.273438 128.222656 C 229.898438 128.449219 229.703125 128.765625 229.925781 129.1875 Z M 128.925781 179.539062 C 128.5625 179.769531 128.46875 180.109375 128.699219 180.472656 C 128.933594 180.835938 129.289062 180.863281 129.648438 180.667969 C 130.023438 180.464844 130.128906 180.148438 129.949219 179.757812 C 129.667969 179.382812 129.320312 179.292969 128.925781 179.539062 Z M 220.59375 115.609375 C 220.191406 115.832031 220.058594 116.199219 220.300781 116.605469 C 220.5 116.9375 220.839844 116.984375 221.171875 116.796875 C 221.546875 116.582031 221.617188 116.25 221.460938 115.867188 C 221.238281 115.542969 220.9375 115.425781 220.59375 115.609375 Z M 148.128906 125.972656 C 147.761719 126.1875 147.679688 126.53125 147.886719 126.902344 C 148.074219 127.242188 148.386719 127.332031 148.730469 127.152344 C 149.105469 126.957031 149.195312 126.632812 149.039062 126.199219 C 148.8125 125.910156 148.5 125.753906 148.128906 125.972656 Z M 189.246094 107.210938 C 188.910156 107.394531 188.777344 107.6875 188.941406 108.050781 C 189.105469 108.414062 189.410156 108.539062 189.761719 108.378906 C 190.15625 108.203125 190.230469 107.859375 190.089844 107.433594 C 189.878906 107.148438 189.597656 107.019531 189.246094 107.210938 Z M 189.246094 107.210938 " fill-opacity="1" fill-rule="nonzero"/></g></g></g></svg>