<svg xmlns="http://www.w3.org/2000/svg" xmlns:xlink="http://www.w3.org/1999/xlink" width="500" zoomAndPan="magnify" viewBox="0 0 375 374.999991" height="500" preserveAspectRatio="xMidYMid meet" version="1.0"><defs><g/></defs><rect x="-37.5" width="450" fill="#ffffff" y="-37.499999" height="449.999989" fill-opacity="1"/><rect x="-37.5" width="450" fill="#f4ead9" y="-37.499999" height="449.999989" fill-opacity="1"/><path stroke-linecap="butt" transform="matrix(0.540469, 0, 0, 0.540469, 84.961077, 151.018348)" fill="none" stroke-linejoin="miter" d="M 41.673635 54.765123 C 41.464036 54.765123 41.276121 54.837398 41.109888 54.996403 C 38.833218 57.273073 35.624199 60.836241 32.321221 64.63069 C 32.248946 64.702965 32.205581 64.724648 32.111623 64.724648 C 29.271207 64.609008 26.322378 64.609008 23.438597 64.702965 L 23.366321 64.702965 C 23.388004 64.702965 23.416914 64.681283 23.438597 64.6596 C 25.830906 61.913142 28.122031 59.405192 29.813271 57.721179 C 29.950594 57.554946 30.044552 57.367031 30.044552 57.157432 C 30.044552 56.731009 29.719313 56.384088 29.300117 56.384088 C 29.061609 56.384088 28.873693 56.478045 28.73637 56.615368 C 26.813849 58.559572 24.139666 61.493946 21.371525 64.681283 C 21.306478 64.775241 21.255885 64.796923 21.140245 64.818606 C 17.97459 64.984839 15.257042 65.310077 13.009282 65.801549 C 12.633451 65.873824 12.37326 66.17738 12.37326 66.553211 C 12.37326 66.979635 12.727409 67.304873 13.146605 67.304873 C 13.218881 67.304873 13.262246 67.304873 13.312838 67.283191 C 15.163084 66.90736 17.345796 66.625486 19.853746 66.415888 L 19.897111 66.415888 C 19.897111 66.415888 19.875428 66.415888 19.875428 66.437571 C 18.401014 68.172176 16.948282 69.906781 15.560598 71.590794 C 15.49555 71.684752 15.444957 71.713662 15.329317 71.713662 C 12.582859 71.92326 10.219459 72.205133 8.224663 72.646012 C 7.877742 72.718287 7.617551 73.043526 7.617551 73.397674 C 7.617551 73.816871 7.942789 74.171019 8.369213 74.171019 C 8.434261 74.171019 8.484854 74.171019 8.557129 74.149337 C 10.125501 73.795188 11.997429 73.542225 14.107866 73.325399 L 14.158458 73.325399 C 14.129548 73.325399 14.129548 73.354309 14.107866 73.375992 C 11.975747 76.021265 10.407374 78.088336 9.612347 79.30256 C 9.518389 79.44711 9.467797 79.562751 9.467797 79.750666 C 9.467797 80.169862 9.821945 80.502328 10.241141 80.502328 C 10.501332 80.502328 10.732613 80.357778 10.877163 80.14818 C 11.809514 78.738813 13.760945 76.20918 16.146027 73.303717 C 16.218302 73.209759 16.268895 73.166394 16.384535 73.166394 C 19.080401 73.000161 22.079822 72.949568 25.194884 73.043526 L 25.26716 73.043526 C 25.245477 73.043526 25.216567 73.072436 25.194884 73.094118 C 22.02923 76.93916 19.383957 80.357778 18.162506 82.208024 C 18.068548 82.352574 18.0035 82.489897 18.0035 82.65613 C 18.0035 83.075326 18.372104 83.407792 18.776845 83.407792 C 19.029808 83.407792 19.268316 83.292152 19.427322 83.075326 C 20.721048 81.10944 23.648195 77.358356 27.066813 73.209759 C 27.139088 73.115801 27.189681 73.094118 27.305321 73.094118 C 29.740996 73.188076 32.133306 73.354309 34.222059 73.563907 L 34.316017 73.563907 C 34.735213 73.563907 35.089362 73.231441 35.089362 72.812245 C 35.089362 72.414731 34.778579 72.089493 34.381065 72.0389 C 32.552502 71.872667 30.564933 71.735344 28.454497 71.619704 L 28.382222 71.619704 L 28.432814 71.569111 C 29.885546 69.834506 31.359961 68.078218 32.834375 66.394205 C 32.884968 66.32193 32.928333 66.300248 33.043973 66.300248 C 35.089362 66.394205 37.127523 66.553211 39.021134 66.719444 L 39.093409 66.719444 C 39.512606 66.719444 39.845072 66.394205 39.845072 65.946099 C 39.845072 65.570268 39.541516 65.245029 39.165684 65.194437 C 37.568402 65.057114 35.906072 64.912563 34.222059 64.840288 L 34.171467 64.840288 C 34.193149 64.840288 34.193149 64.818606 34.222059 64.796923 C 37.221481 61.327713 40.098035 58.162058 42.208471 56.051621 C 42.353022 55.935981 42.446979 55.726383 42.446979 55.516785 C 42.446979 55.090361 42.092831 54.765123 41.673635 54.765123 Z M 30.911854 66.249655 C 29.459122 67.962578 27.984708 69.718866 26.553659 71.453471 C 26.481383 71.525746 26.438018 71.525746 26.34406 71.525746 C 23.460279 71.453471 20.460858 71.453471 17.598759 71.569111 L 17.533711 71.569111 C 17.555394 71.569111 17.555394 71.547429 17.577076 71.525746 C 18.986443 69.834506 20.460858 68.099901 21.935272 66.394205 C 21.985865 66.300248 22.05814 66.271338 22.17378 66.271338 C 24.869646 66.155697 27.840158 66.134015 30.890172 66.20629 C 31.005812 66.20629 31.005812 66.17738 30.911854 66.249655 Z M 30.875717 90.953325 C 31.208183 90.953325 31.461146 90.76541 31.576786 90.483536 C 31.743019 90.129388 31.981528 89.688509 32.306766 89.124762 C 32.379041 88.958529 32.472999 88.915164 32.632005 88.893481 C 33.455942 88.842889 34.207604 88.821206 34.814716 88.821206 C 37.185343 88.821206 38.775398 89.009122 39.505378 89.33436 C 39.621018 89.406636 39.736659 89.428318 39.852299 89.428318 C 40.278723 89.428318 40.603961 89.10308 40.603961 88.676656 C 40.603961 88.3731 40.437728 88.091227 40.155855 87.975586 C 39.223505 87.534707 37.416624 87.296199 34.814716 87.296199 C 34.460568 87.296199 34.063054 87.296199 33.593265 87.317882 C 33.405349 87.346792 33.405349 87.296199 33.477625 87.129966 C 37.980371 80.104815 48.734924 65.736501 57.313992 56.239537 C 57.458543 56.102214 57.501908 56.080532 57.711506 56.102214 C 59.258196 56.311812 60.971118 56.687643 62.655131 57.157432 C 62.749089 57.179115 62.821364 57.200797 62.893639 57.200797 C 63.312835 57.200797 63.666984 56.853876 63.666984 56.427453 C 63.666984 56.102214 63.428476 55.776976 63.081555 55.7047 C 61.766146 55.328869 60.385689 55.025313 58.95464 54.74344 C 58.788407 54.721757 58.766724 54.692847 58.860682 54.577207 L 59.684619 53.709904 C 59.80026 53.572581 59.894218 53.384666 59.894218 53.19675 C 59.894218 52.770327 59.540069 52.423405 59.120873 52.423405 C 58.911275 52.423405 58.723359 52.517363 58.578809 52.654686 C 58.36921 52.864284 58.181295 53.0522 57.993379 53.269026 C 57.689823 53.594264 57.364585 53.919503 57.032119 54.295334 C 56.938161 54.410974 56.822521 54.461567 56.656288 54.439884 C 55.62998 54.345926 54.690402 54.273651 53.866464 54.273651 C 50.917635 54.273651 48.359092 54.555524 47.470107 54.953038 C 47.238827 55.068679 47.029228 55.350552 47.029228 55.654108 C 47.029228 56.080532 47.376149 56.40577 47.802573 56.40577 C 47.918214 56.40577 48.033854 56.384088 48.127812 56.333495 C 48.785516 56.029939 51.242874 55.798658 53.866464 55.798658 C 54.336253 55.798658 54.827725 55.820341 55.369789 55.863706 C 55.579387 55.892616 55.579387 55.914299 55.463747 56.029939 C 46.559439 65.989464 35.682019 80.661334 31.605696 87.296199 C 31.533421 87.44075 31.439463 87.484115 31.27323 87.505797 C 29.141111 87.715395 26.662071 88.091227 24.551635 88.705566 C 24.219169 88.799524 23.987888 89.124762 23.987888 89.450001 C 23.987888 89.876424 24.313127 90.223346 24.739551 90.223346 C 24.833508 90.223346 24.898556 90.201663 24.970831 90.17998 C 26.445246 89.782467 28.273809 89.406636 30.34088 89.124762 C 30.528796 89.124762 30.528796 89.124762 30.45652 89.312678 L 30.174647 89.876424 C 30.124054 89.992065 30.102372 90.086023 30.102372 90.201663 C 30.102372 90.628087 30.45652 90.953325 30.875717 90.953325 Z M 90.748509 62.614211 C 82.98615 62.288973 74.949146 62.310656 67.100057 62.592529 C 72.209915 56.665961 77.341456 50.941763 82.335673 45.463302 C 82.494679 45.340434 82.545272 45.159746 82.545272 44.97183 C 82.545272 44.545406 82.212805 44.198485 81.793609 44.198485 C 81.584011 44.198485 81.374413 44.292443 81.229863 44.451449 C 75.563485 50.594842 70.142844 56.687643 65.011303 62.664804 C 56.482827 63.040635 48.163949 63.720022 40.661782 64.6596 C 40.264268 64.702965 39.982394 65.057114 39.982394 65.432945 C 39.982394 65.852141 40.307633 66.17738 40.734057 66.17738 L 40.849697 66.17738 C 47.860393 65.288395 55.637207 64.609008 63.674212 64.254859 C 51.7488 78.319617 40.191993 93.27336 31.09977 107.663356 C 30.911854 107.923547 30.767304 108.20542 30.680574 108.436701 L 30.680574 108.458384 C 30.442065 109.166681 30.723939 109.607559 31.403326 109.607559 C 31.894797 109.607559 32.501909 109.02213 33.137931 107.966912 C 33.325847 107.641674 33.347529 107.3598 33.231889 107.171885 C 42.396387 92.875846 53.902602 78.059426 65.762965 64.160901 C 74.226394 63.81398 82.711505 63.81398 90.676234 64.139219 L 90.726826 64.139219 C 91.146023 64.139219 91.471261 63.792298 91.471261 63.365874 C 91.471261 62.96836 91.167705 62.614211 90.748509 62.614211 Z M 96.226971 76.397096 C 96.060738 76.397096 95.916187 76.418778 95.778864 76.541646 C 90.408815 80.567376 81.952615 83.754713 78.974876 83.754713 C 77.449869 83.754713 76.842757 83.313834 76.842757 82.208024 C 76.842757 80.430053 78.338854 78.225659 79.466347 76.635604 C 80.145734 75.645434 80.56493 75.016639 80.56493 74.525168 C 80.56493 74.004786 80.167417 73.636183 79.654263 73.636183 C 79.184474 73.636183 78.454494 74.077061 76.069412 75.811667 C 75.505665 74.872089 74.73232 74.503485 73.373546 74.503485 C 70.019976 74.503485 61.209627 80.010857 61.209627 83.38611 C 61.209627 84.4341 61.961289 85.120715 63.132147 85.120715 C 65.893061 85.120715 71.942497 80.661334 75.997137 77.75587 C 76.300693 77.546272 76.604248 77.314991 76.864439 77.098166 C 77.218588 76.866885 77.355911 77.004208 77.146313 77.358356 C 76.185052 78.883363 75.296067 80.617969 75.296067 82.208024 C 75.296067 84.20282 76.604248 85.27972 78.974876 85.27972 C 82.415176 85.27972 91.305028 81.622594 96.667849 77.78478 C 96.877448 77.64023 97.000316 77.408949 97.000316 77.148758 C 97.000316 76.751244 96.646167 76.397096 96.226971 76.397096 Z M 74.826278 76.700652 C 69.477912 80.567376 65.170309 83.566798 63.132147 83.566798 C 62.871957 83.566798 62.734634 83.480067 62.734634 83.219877 C 62.734634 81.246763 70.207891 76.021265 73.373546 76.021265 C 74.240849 76.021265 74.493812 76.165815 74.826278 76.700652 Z M 141.05929 37.679261 C 141.05929 36.320486 140.148622 35.525459 138.674207 35.525459 C 130.58661 35.525459 91.232753 75.038322 91.232753 86.450579 C 91.232753 88.51765 92.338564 89.478911 94.658598 89.478911 C 98.453047 89.478911 109.330468 83.480067 117.504795 77.828145 C 117.721621 77.690822 117.837261 77.452314 117.837261 77.192123 C 117.837261 76.772927 117.504795 76.418778 117.085599 76.418778 C 116.897684 76.418778 116.760361 76.469371 116.637493 76.585011 C 107.523588 82.887411 97.701385 87.953904 94.658598 87.953904 C 93.155274 87.953904 92.75776 87.621438 92.75776 86.450579 C 92.75776 84.672609 93.885254 81.904468 96.11133 78.297934 C 112.44553 68.403457 141.05929 43.352865 141.05929 37.679261 Z M 138.674207 37.050466 C 139.353594 37.050466 139.54151 37.209472 139.54151 37.679261 C 139.54151 42.037456 115.213671 64.066943 98.192857 75.153962 C 109.12087 59.61479 133.043968 37.050466 138.674207 37.050466 Z M 121.920811 72.862838 C 122.152092 72.862838 122.3906 72.76888 122.527923 72.580964 C 122.600198 72.458096 122.715839 72.320774 122.860389 72.132858 C 123.163945 71.735344 123.539776 71.19328 123.749374 70.983682 C 123.843332 70.846359 123.90838 70.658443 123.90838 70.49221 C 123.90838 70.073014 123.561459 69.740548 123.135035 69.740548 C 122.903754 69.740548 122.694156 69.834506 122.549606 70.000739 L 121.306472 71.641386 C 121.219742 71.757027 121.147466 71.944942 121.147466 72.111175 C 121.147466 72.530372 121.494388 72.862838 121.920811 72.862838 Z M 115.755735 85.771192 C 118.986437 85.771192 129.162788 81.066075 134.294329 77.806463 C 134.503927 77.690822 134.67016 77.408949 134.67016 77.148758 C 134.67016 76.751244 134.294329 76.397096 133.896815 76.397096 C 133.781175 76.397096 133.636625 76.418778 133.499302 76.491054 C 128.432809 79.700073 118.639516 84.224502 115.755735 84.224502 C 114.816157 84.224502 114.440326 83.899264 114.440326 83.075326 C 114.440326 81.767145 116.666403 78.623173 119.926015 75.298513 L 119.947698 75.27683 C 120.070566 75.110597 120.135613 74.944364 120.135613 74.756448 C 120.135613 74.358935 119.759782 73.983104 119.362269 73.983104 C 119.15267 73.983104 118.964755 74.077061 118.827432 74.221612 C 115.076348 78.088336 112.922546 81.319038 112.922546 83.075326 C 112.922546 84.766566 113.970537 85.771192 115.755735 85.771192 Z M 161.917918 76.397096 C 161.758913 76.397096 161.614362 76.418778 161.477039 76.541646 C 156.10699 80.567376 147.643562 83.754713 144.673051 83.754713 C 143.148043 83.754713 142.533704 83.313834 142.533704 82.208024 C 142.533704 80.430053 144.037029 78.225659 145.164522 76.635604 C 145.843909 75.645434 146.263105 75.016639 146.263105 74.525168 C 146.263105 74.004786 145.865592 73.636183 145.352438 73.636183 C 144.882649 73.636183 144.152669 74.077061 141.760359 75.811667 C 141.20384 74.872089 140.430495 74.503485 139.071721 74.503485 C 135.718151 74.503485 126.907802 80.010857 126.907802 83.38611 C 126.907802 84.4341 127.652236 85.120715 128.823095 85.120715 C 131.591236 85.120715 137.640672 80.661334 141.695312 77.75587 C 141.998867 77.546272 142.302423 77.314991 142.562614 77.098166 C 142.909535 76.866885 143.054086 77.004208 142.844488 77.358356 C 141.883227 78.883363 140.987014 80.617969 140.987014 82.208024 C 140.987014 84.20282 142.302423 85.27972 144.673051 85.27972 C 148.113351 85.27972 156.995976 81.622594 162.366024 77.78478 C 162.575623 77.64023 162.691263 77.408949 162.691263 77.148758 C 162.691263 76.751244 162.344342 76.397096 161.917918 76.397096 Z M 140.524453 76.700652 C 135.176087 80.567376 130.868484 83.566798 128.823095 83.566798 C 128.570132 83.566798 128.425581 83.480067 128.425581 83.219877 C 128.425581 81.246763 135.906066 76.021265 139.071721 76.021265 C 139.939024 76.021265 140.191987 76.165815 140.524453 76.700652 Z M 209.142547 76.375413 C 208.983541 76.375413 208.817308 76.418778 208.701668 76.491054 C 202.348676 80.849249 194.051481 83.754713 190.654546 83.754713 C 189.107856 83.754713 188.522427 83.313834 188.522427 82.208024 C 188.522427 81.506954 189.223496 79.981947 190.603953 77.75587 C 190.726821 77.994378 190.958101 78.110019 191.239975 78.110019 C 191.637489 78.110019 191.991637 77.78478 191.991637 77.380039 C 192.035002 76.888567 191.991637 76.418778 191.774811 75.956217 C 192.295193 75.182872 192.880622 74.337252 193.487734 73.46995 C 207.812683 60.135171 227.587183 39.623464 227.587183 36.999874 C 227.587183 36.060296 227.030664 35.525459 225.997128 35.525459 C 222.412277 35.525459 202.579957 58.190968 192.671024 72.111175 L 192.714389 72.089493 C 191.825404 72.906203 190.979784 73.70123 190.206439 74.43121 C 189.714968 74.243294 189.201814 74.149337 188.638067 74.149337 C 184.229278 74.149337 177.435408 79.866306 177.435408 83.595708 C 177.435408 84.528058 178.064202 85.120715 179.076055 85.120715 C 180.058998 85.120715 183.152378 82.77177 188.189961 78.319617 C 188.493516 78.016061 188.681432 78.153384 188.471834 78.529215 C 187.488891 80.26382 186.997419 81.528637 186.997419 82.208024 C 186.997419 84.20282 188.283918 85.27972 190.654546 85.27972 C 194.311672 85.27972 202.955788 82.258616 209.540061 77.78478 C 209.778569 77.618547 209.894209 77.380039 209.894209 77.127076 C 209.894209 76.700652 209.568971 76.375413 209.142547 76.375413 Z M 225.997128 37.050466 C 226.091086 37.050466 226.091086 37.093831 226.091086 37.166107 C 226.091086 38.777844 207.342894 57.95246 199.233614 65.852141 C 210.313405 51.693426 223.886692 37.050466 225.997128 37.050466 Z M 179.170013 83.566798 C 179.076055 83.566798 178.960415 83.545115 178.960415 83.38611 C 178.960415 80.733609 185.096581 75.674344 188.638067 75.674344 L 188.847665 75.674344 C 183.318611 80.733609 179.777125 83.566798 179.170013 83.566798 Z M 237.13474 76.397096 C 236.975734 76.397096 236.831184 76.418778 236.693861 76.541646 C 231.323812 80.567376 222.867611 83.754713 219.889872 83.754713 C 218.364865 83.754713 217.757753 83.313834 217.757753 82.208024 C 217.757753 80.430053 219.25385 78.225659 220.381344 76.635604 C 221.060731 75.645434 221.479927 75.016639 221.479927 74.525168 C 221.479927 74.004786 221.082413 73.636183 220.569259 73.636183 C 220.09947 73.636183 219.36949 74.077061 216.984408 75.811667 C 216.420661 74.872089 215.647317 74.503485 214.288542 74.503485 C 210.934972 74.503485 202.124623 80.010857 202.124623 83.38611 C 202.124623 84.4341 202.869058 85.120715 204.047144 85.120715 C 206.808057 85.120715 212.857493 80.661334 216.912133 77.75587 C 217.215689 77.546272 217.519245 77.314991 217.779436 77.098166 C 218.133584 76.866885 218.270907 77.004208 218.061309 77.358356 C 217.100049 78.883363 216.211063 80.617969 216.211063 82.208024 C 216.211063 84.20282 217.519245 85.27972 219.889872 85.27972 C 223.330172 85.27972 232.212797 81.622594 237.582846 77.78478 C 237.792444 77.64023 237.908084 77.408949 237.908084 77.148758 C 237.908084 76.751244 237.561163 76.397096 237.13474 76.397096 Z M 215.741274 76.700652 C 210.392908 80.567376 206.085305 83.566798 204.047144 83.566798 C 203.786953 83.566798 203.64963 83.480067 203.64963 83.219877 C 203.64963 81.246763 211.122888 76.021265 214.288542 76.021265 C 215.155845 76.021265 215.408808 76.165815 215.741274 76.700652 Z M 283.990765 76.397096 C 283.867897 76.397096 283.708891 76.418778 283.593251 76.512736 C 279.350695 79.114644 273.792731 80.220455 269.058704 80.899842 C 270.186198 79.425428 270.793309 77.965468 270.793309 76.751244 C 270.793309 75.551476 270.09224 74.850406 268.921381 74.850406 C 267.186776 74.850406 264.274085 76.375413 260.060439 79.512158 C 258.578797 80.617969 257.220023 81.767145 256.099757 82.728405 C 255.297502 83.451157 255.232455 83.075326 255.651651 82.395939 C 256.475588 81.066075 257.595854 79.44711 258.983539 77.546272 C 278.902589 64.609008 298.192845 42.767436 298.192845 37.823811 C 298.192845 36.696318 297.672464 36.060296 296.3426 36.060296 C 292.049452 36.060296 268.567233 61.840867 257.877728 76.447689 L 257.950003 76.397096 C 257.89941 76.418778 257.856045 76.469371 257.856045 76.541646 C 254.386835 81.275673 252.579954 84.4341 252.579954 85.771192 C 252.579954 86.313256 253.006378 86.732452 253.562897 86.732452 C 253.967638 86.732452 254.480792 86.262663 254.972264 85.771192 L 255.297502 85.518229 C 256.540636 84.369053 258.607707 82.489897 260.971107 80.733609 C 264.816149 77.87151 267.490332 76.303138 268.849106 76.303138 C 269.174345 76.303138 269.268302 76.469371 269.268302 76.751244 C 269.268302 77.922103 268.328724 79.606116 266.810945 81.203398 L 266.319473 81.275673 C 261.585446 81.904468 259.099179 82.280299 259.099179 83.942629 C 259.099179 85.070122 260.009847 85.86515 261.303573 85.86515 C 263.081543 85.86515 265.452171 84.650926 267.490332 82.65613 C 272.57128 81.998425 279.350695 80.921525 284.366596 77.806463 C 284.597876 77.690822 284.764109 77.408949 284.764109 77.148758 C 284.764109 76.729562 284.409961 76.397096 283.990765 76.397096 Z M 296.3426 37.585303 C 296.595563 37.585303 296.667838 37.700943 296.667838 37.961134 C 296.667838 41.900133 280.189088 60.836241 261.860092 73.751823 C 273.207302 59.267869 293.155263 37.585303 296.3426 37.585303 Z M 260.624186 84.036587 C 260.624186 83.754713 262.264833 83.407792 264.584868 83.075326 C 263.363417 83.899264 262.214241 84.340143 261.303573 84.340143 C 260.855467 84.340143 260.624186 84.181137 260.624186 84.036587 Z M 303.700217 76.397096 C 303.533984 76.397096 303.367751 76.418778 303.252111 76.541646 C 296.646156 81.340721 287.763531 83.971539 285.017073 83.971539 C 282.863271 83.971539 281.808053 83.38611 281.808053 82.330891 C 281.808053 81.297356 282.581398 79.822941 283.846214 78.435257 C 284.482236 78.695448 285.183306 78.811088 286.187931 78.811088 C 288.161045 78.811088 290.387122 77.242716 290.387122 75.833349 C 290.387122 74.828724 289.613777 74.149337 288.421236 74.149337 C 285.111031 74.149337 280.283046 78.999004 280.283046 82.330891 C 280.283046 84.340143 281.995969 85.489319 285.017073 85.489319 C 287.973129 85.489319 297.325543 82.750088 304.141096 77.75587 C 304.329012 77.64023 304.451879 77.380039 304.451879 77.148758 C 304.451879 76.729562 304.119413 76.397096 303.700217 76.397096 Z M 288.862114 75.833349 C 288.862114 76.303138 287.785214 77.286081 286.187931 77.286081 C 285.747052 77.286081 285.414586 77.264399 285.111031 77.221033 C 286.332482 76.230863 287.525023 75.674344 288.421236 75.674344 C 288.818749 75.674344 288.862114 75.739391 288.862114 75.833349 Z M 302.746184 95.571712 C 308.629387 95.571712 325.368328 84.715974 334.952022 77.75587 C 335.139938 77.64023 335.277261 77.408949 335.277261 77.148758 C 335.277261 76.729562 334.93034 76.397096 334.503916 76.397096 C 334.34491 76.397096 334.178677 76.418778 334.063037 76.541646 C 324.501025 83.451157 308.159598 94.025022 302.746184 94.025022 C 301.813834 94.025022 301.481368 93.743149 301.481368 92.854164 C 301.481368 90.129388 306.28767 85.424271 311.000014 80.784202 C 315.148612 76.678969 319.275527 72.624329 319.275527 70.188655 C 319.275527 69.299669 318.45159 68.56969 317.396371 67.608429 C 317.071133 67.348238 316.738667 67.073593 316.413428 66.741127 C 320.352428 62.520254 322.694145 59.267869 322.694145 57.95246 C 322.694145 57.10684 322.202673 56.593686 321.378736 56.593686 C 318.285356 56.593686 311.513168 61.797501 311.513168 64.211494 C 311.513168 65.057114 312.14919 65.736501 314.115076 67.023 C 310.927739 70.325977 307.039332 73.867463 303.237656 76.541646 C 303.028058 76.678969 302.912417 76.917478 302.912417 77.170441 C 302.912417 77.596865 303.237656 77.943786 303.664079 77.943786 C 303.851995 77.943786 303.989318 77.90042 304.104958 77.78478 C 307.603079 75.320195 311.816724 71.496836 315.35821 67.846937 C 317.092815 69.017796 317.75052 69.64659 317.75052 70.188655 C 317.75052 71.966625 314.071711 75.602069 309.894203 79.700073 C 305.210769 84.340143 299.956361 89.500593 299.956361 92.854164 C 299.956361 94.588769 300.968214 95.571712 302.746184 95.571712 Z M 315.148612 65.895506 C 313.789838 64.984839 313.038176 64.377727 313.038176 64.211494 C 313.038176 62.831037 318.429907 58.704122 320.634301 58.234333 C 320.916175 58.190968 321.07518 58.306608 321.010132 58.559572 C 320.417475 59.947256 317.165091 63.741705 315.148612 65.895506 Z M 354.213368 76.397096 C 354.047135 76.397096 353.880902 76.418778 353.765262 76.541646 C 347.159307 81.340721 338.276682 83.971539 335.530224 83.971539 C 333.376422 83.971539 332.321204 83.38611 332.321204 82.330891 C 332.321204 81.297356 333.094549 79.822941 334.359365 78.435257 C 334.995387 78.695448 335.696457 78.811088 336.701083 78.811088 C 338.674196 78.811088 340.900273 77.242716 340.900273 75.833349 C 340.900273 74.828724 340.126928 74.149337 338.934387 74.149337 C 335.624182 74.149337 330.796197 78.999004 330.796197 82.330891 C 330.796197 84.340143 332.50912 85.489319 335.530224 85.489319 C 338.48628 85.489319 347.838694 82.750088 354.654247 77.75587 C 354.842163 77.64023 354.965031 77.380039 354.965031 77.148758 C 354.965031 76.729562 354.632565 76.397096 354.213368 76.397096 Z M 339.375266 75.833349 C 339.375266 76.303138 338.298365 77.286081 336.701083 77.286081 C 336.260204 77.286081 335.927738 77.264399 335.624182 77.221033 C 336.845633 76.230863 338.038174 75.674344 338.934387 75.674344 C 339.331901 75.674344 339.375266 75.739391 339.375266 75.833349 Z M 339.375266 75.833349 " stroke="#2a4b7e" stroke-width="1.8" stroke-opacity="1" stroke-miterlimit="4"/><g fill="#2a4b7e" fill-opacity="1"><g transform="translate(84.961077, 196.958195)"><g><path d="M 22.519531 -16.34375 C 22.40625 -16.34375 22.304688 -16.296875 22.222656 -16.21875 C 20.984375 -14.980469 19.253906 -13.066406 17.46875 -11.003906 C 17.433594 -10.96875 17.410156 -10.957031 17.351562 -10.957031 C 15.816406 -11.015625 14.222656 -11.027344 12.664062 -10.96875 L 12.628906 -10.96875 C 12.640625 -10.96875 12.652344 -10.980469 12.664062 -10.992188 C 13.960938 -12.480469 15.199219 -13.832031 16.113281 -14.75 C 16.195312 -14.832031 16.242188 -14.933594 16.242188 -15.046875 C 16.242188 -15.277344 16.058594 -15.460938 15.828125 -15.460938 C 15.714844 -15.460938 15.609375 -15.414062 15.53125 -15.335938 C 14.488281 -14.292969 13.042969 -12.699219 11.554688 -10.980469 C 11.519531 -10.933594 11.484375 -10.921875 11.425781 -10.910156 C 9.71875 -10.820312 8.242188 -10.636719 7.027344 -10.371094 C 6.832031 -10.339844 6.695312 -10.167969 6.695312 -9.972656 C 6.695312 -9.742188 6.875 -9.558594 7.105469 -9.558594 C 7.140625 -9.558594 7.175781 -9.558594 7.199219 -9.570312 C 8.195312 -9.777344 9.375 -9.9375 10.726562 -10.039062 L 10.75 -10.039062 C 10.75 -10.039062 10.738281 -10.039062 10.738281 -10.027344 C 9.949219 -9.101562 9.15625 -8.160156 8.414062 -7.242188 C 8.378906 -7.199219 8.34375 -7.1875 8.285156 -7.1875 C 6.808594 -7.070312 5.523438 -6.910156 4.445312 -6.671875 C 4.253906 -6.636719 4.113281 -6.464844 4.113281 -6.269531 C 4.113281 -6.039062 4.296875 -5.855469 4.527344 -5.855469 C 4.5625 -5.855469 4.585938 -5.855469 4.617188 -5.867188 C 5.476562 -6.050781 6.488281 -6.199219 7.621094 -6.304688 L 7.644531 -6.304688 C 7.632812 -6.304688 7.632812 -6.292969 7.621094 -6.28125 C 6.476562 -4.847656 5.628906 -3.738281 5.191406 -3.082031 C 5.144531 -3.003906 5.125 -2.933594 5.125 -2.84375 C 5.125 -2.613281 5.304688 -2.429688 5.535156 -2.429688 C 5.671875 -2.429688 5.800781 -2.511719 5.878906 -2.625 C 6.382812 -3.382812 7.4375 -4.757812 8.722656 -6.328125 C 8.769531 -6.371094 8.789062 -6.394531 8.847656 -6.394531 C 10.316406 -6.488281 11.929688 -6.511719 13.617188 -6.464844 L 13.648438 -6.464844 C 13.640625 -6.464844 13.628906 -6.453125 13.617188 -6.441406 C 11.910156 -4.355469 10.476562 -2.511719 9.8125 -1.5 C 9.765625 -1.433594 9.730469 -1.351562 9.730469 -1.273438 C 9.730469 -1.042969 9.925781 -0.859375 10.144531 -0.859375 C 10.28125 -0.859375 10.417969 -0.929688 10.5 -1.042969 C 11.199219 -2.109375 12.777344 -4.125 14.636719 -6.371094 C 14.671875 -6.417969 14.691406 -6.429688 14.761719 -6.429688 C 16.082031 -6.382812 17.363281 -6.292969 18.5 -6.175781 L 18.542969 -6.175781 C 18.773438 -6.175781 18.957031 -6.359375 18.957031 -6.589844 C 18.957031 -6.808594 18.796875 -6.980469 18.578125 -7.003906 C 17.59375 -7.09375 16.515625 -7.175781 15.382812 -7.230469 L 15.335938 -7.230469 L 15.371094 -7.253906 C 16.148438 -8.195312 16.949219 -9.144531 17.742188 -10.050781 C 17.777344 -10.097656 17.800781 -10.109375 17.855469 -10.109375 C 18.96875 -10.050781 20.070312 -9.972656 21.089844 -9.878906 L 21.125 -9.878906 C 21.351562 -9.878906 21.535156 -10.0625 21.535156 -10.292969 C 21.535156 -10.5 21.375 -10.683594 21.167969 -10.703125 C 20.308594 -10.785156 19.402344 -10.855469 18.5 -10.898438 L 18.464844 -10.898438 C 18.476562 -10.898438 18.488281 -10.910156 18.5 -10.921875 C 20.113281 -12.789062 21.671875 -14.5 22.808594 -15.644531 C 22.886719 -15.714844 22.933594 -15.816406 22.933594 -15.929688 C 22.933594 -16.160156 22.75 -16.34375 22.519531 -16.34375 Z M 16.710938 -10.132812 C 15.917969 -9.203125 15.128906 -8.261719 14.347656 -7.324219 C 14.316406 -7.289062 14.292969 -7.277344 14.234375 -7.277344 C 12.675781 -7.324219 11.058594 -7.324219 9.511719 -7.253906 L 9.476562 -7.253906 C 9.488281 -7.253906 9.488281 -7.265625 9.5 -7.277344 C 10.257812 -8.195312 11.058594 -9.132812 11.851562 -10.0625 C 11.886719 -10.109375 11.917969 -10.121094 11.976562 -10.121094 C 13.445312 -10.1875 15.046875 -10.199219 16.699219 -10.15625 C 16.757812 -10.15625 16.757812 -10.175781 16.710938 -10.132812 Z M 16.710938 -10.132812 "/></g></g></g><g fill="#2a4b7e" fill-opacity="1"><g transform="translate(101.52259, 196.958195)"><g><path d="M 0.125 3.21875 C 0.296875 3.21875 0.445312 3.117188 0.503906 2.96875 C 0.597656 2.773438 0.722656 2.53125 0.894531 2.222656 C 0.941406 2.144531 0.984375 2.121094 1.078125 2.109375 C 1.523438 2.074219 1.925781 2.0625 2.257812 2.0625 C 3.53125 2.0625 4.402344 2.167969 4.789062 2.347656 C 4.847656 2.382812 4.917969 2.394531 4.972656 2.394531 C 5.203125 2.394531 5.386719 2.210938 5.386719 1.984375 C 5.386719 1.824219 5.296875 1.671875 5.144531 1.605469 C 4.628906 1.363281 3.65625 1.238281 2.257812 1.238281 C 2.0625 1.238281 1.84375 1.238281 1.59375 1.25 C 1.488281 1.261719 1.488281 1.238281 1.535156 1.15625 C 3.964844 -2.648438 9.777344 -10.417969 14.417969 -15.542969 C 14.488281 -15.621094 14.519531 -15.632812 14.625 -15.621094 C 15.460938 -15.507812 16.390625 -15.300781 17.304688 -15.046875 C 17.351562 -15.039062 17.386719 -15.027344 17.433594 -15.027344 C 17.660156 -15.027344 17.84375 -15.210938 17.84375 -15.4375 C 17.84375 -15.621094 17.71875 -15.792969 17.535156 -15.839844 C 16.824219 -16.035156 16.070312 -16.207031 15.300781 -16.355469 C 15.210938 -16.367188 15.199219 -16.378906 15.253906 -16.445312 L 15.691406 -16.90625 C 15.757812 -16.984375 15.804688 -17.089844 15.804688 -17.191406 C 15.804688 -17.421875 15.621094 -17.605469 15.390625 -17.605469 C 15.277344 -17.605469 15.175781 -17.558594 15.09375 -17.476562 C 14.992188 -17.363281 14.886719 -17.261719 14.785156 -17.15625 C 14.613281 -16.972656 14.441406 -16.789062 14.269531 -16.597656 C 14.210938 -16.527344 14.15625 -16.503906 14.0625 -16.515625 C 13.5 -16.574219 12.996094 -16.605469 12.550781 -16.605469 C 10.957031 -16.605469 9.570312 -16.457031 9.101562 -16.242188 C 8.960938 -16.171875 8.859375 -16.023438 8.859375 -15.863281 C 8.859375 -15.632812 9.042969 -15.449219 9.273438 -15.449219 C 9.328125 -15.449219 9.398438 -15.460938 9.457031 -15.496094 C 9.800781 -15.65625 11.128906 -15.78125 12.550781 -15.78125 C 12.800781 -15.78125 13.078125 -15.769531 13.363281 -15.746094 C 13.476562 -15.734375 13.476562 -15.726562 13.410156 -15.65625 C 8.597656 -10.269531 2.726562 -2.347656 0.515625 1.238281 C 0.480469 1.316406 0.433594 1.339844 0.34375 1.351562 C -0.8125 1.46875 -2.15625 1.671875 -3.289062 2.003906 C -3.472656 2.050781 -3.597656 2.222656 -3.597656 2.40625 C -3.597656 2.636719 -3.414062 2.820312 -3.1875 2.820312 C -3.140625 2.820312 -3.105469 2.808594 -3.058594 2.796875 C -2.269531 2.578125 -1.285156 2.382812 -0.160156 2.234375 C -0.0703125 2.222656 -0.0585938 2.234375 -0.101562 2.328125 L -0.253906 2.636719 C -0.273438 2.695312 -0.285156 2.75 -0.285156 2.808594 C -0.285156 3.039062 -0.101562 3.21875 0.125 3.21875 Z M 0.125 3.21875 "/></g></g></g><g fill="#2a4b7e" fill-opacity="1"><g transform="translate(112.903616, 196.958195)"><g><path d="M 21.101562 -12.101562 C 16.90625 -12.273438 12.5625 -12.261719 8.320312 -12.113281 C 11.082031 -15.3125 13.855469 -18.40625 16.5625 -21.363281 C 16.640625 -21.433594 16.675781 -21.535156 16.675781 -21.640625 C 16.675781 -21.867188 16.492188 -22.050781 16.261719 -22.050781 C 16.148438 -22.050781 16.035156 -22.003906 15.964844 -21.914062 C 12.894531 -18.589844 9.972656 -15.300781 7.199219 -12.070312 C 2.589844 -11.875 -1.914062 -11.507812 -5.972656 -10.992188 C -6.175781 -10.96875 -6.339844 -10.785156 -6.339844 -10.578125 C -6.339844 -10.347656 -6.15625 -10.167969 -5.925781 -10.167969 L -5.867188 -10.167969 C -2.074219 -10.660156 2.132812 -11.015625 6.476562 -11.210938 C 0.0234375 -3.609375 -6.222656 4.46875 -11.140625 12.253906 C -11.230469 12.390625 -11.3125 12.539062 -11.359375 12.664062 L -11.359375 12.675781 C -11.484375 13.054688 -11.335938 13.296875 -10.96875 13.296875 C -10.703125 13.296875 -10.371094 12.984375 -10.027344 12.414062 C -9.9375 12.242188 -9.914062 12.082031 -9.984375 11.976562 C -5.03125 4.253906 1.191406 -3.746094 7.597656 -11.253906 C 12.171875 -11.449219 16.757812 -11.449219 21.066406 -11.277344 L 21.089844 -11.277344 C 21.316406 -11.277344 21.5 -11.460938 21.5 -11.691406 C 21.5 -11.910156 21.328125 -12.089844 21.101562 -12.101562 Z M 21.101562 -12.101562 "/></g></g></g><g fill="#2a4b7e" fill-opacity="1"><g transform="translate(120.651429, 196.958195)"><g><path d="M 16.320312 -4.652344 C 16.230469 -4.652344 16.148438 -4.628906 16.082031 -4.574219 C 13.167969 -2.394531 8.597656 -0.675781 6.992188 -0.675781 C 6.167969 -0.675781 5.832031 -0.917969 5.832031 -1.5 C 5.832031 -2.464844 6.648438 -3.65625 7.253906 -4.527344 C 7.621094 -5.054688 7.851562 -5.398438 7.851562 -5.660156 C 7.851562 -5.9375 7.632812 -6.144531 7.359375 -6.144531 C 7.105469 -6.144531 6.714844 -5.902344 5.421875 -4.960938 C 5.113281 -5.46875 4.699219 -5.671875 3.964844 -5.671875 C 2.15625 -5.671875 -2.613281 -2.695312 -2.613281 -0.871094 C -2.613281 -0.308594 -2.199219 0.0585938 -1.570312 0.0585938 C -0.0820312 0.0585938 3.199219 -2.339844 5.386719 -3.917969 C 5.546875 -4.035156 5.707031 -4.148438 5.855469 -4.261719 C 6.039062 -4.402344 6.121094 -4.320312 6.003906 -4.125 C 5.488281 -3.300781 5.007812 -2.371094 5.007812 -1.5 C 5.007812 -0.433594 5.707031 0.148438 6.992188 0.148438 C 8.847656 0.148438 13.648438 -1.824219 16.550781 -3.898438 C 16.664062 -3.976562 16.734375 -4.101562 16.734375 -4.242188 C 16.734375 -4.457031 16.539062 -4.652344 16.320312 -4.652344 Z M 4.746094 -4.480469 C 1.867188 -2.394531 -0.46875 -0.769531 -1.570312 -0.769531 C -1.707031 -0.769531 -1.789062 -0.824219 -1.789062 -0.960938 C -1.789062 -2.027344 2.257812 -4.847656 3.964844 -4.847656 C 4.433594 -4.847656 4.574219 -4.78125 4.746094 -4.480469 Z M 4.746094 -4.480469 "/></g></g></g><g fill="#2a4b7e" fill-opacity="1"><g transform="translate(135.803209, 196.958195)"><g><path d="M 25.398438 -25.570312 C 25.398438 -26.304688 24.90625 -26.738281 24.101562 -26.738281 C 19.734375 -26.738281 -1.535156 -5.386719 -1.535156 0.789062 C -1.535156 1.902344 -0.941406 2.417969 0.320312 2.417969 C 2.371094 2.417969 8.253906 -0.824219 12.664062 -3.875 C 12.777344 -3.953125 12.847656 -4.082031 12.847656 -4.21875 C 12.847656 -4.445312 12.664062 -4.628906 12.433594 -4.628906 C 12.34375 -4.628906 12.261719 -4.605469 12.195312 -4.550781 C 7.265625 -1.144531 1.960938 1.59375 0.320312 1.59375 C -0.492188 1.59375 -0.710938 1.421875 -0.710938 0.789062 C -0.710938 -0.183594 -0.101562 -1.671875 1.101562 -3.621094 C 9.9375 -8.972656 25.398438 -22.511719 25.398438 -25.570312 Z M 24.101562 -25.914062 C 24.46875 -25.914062 24.574219 -25.820312 24.574219 -25.570312 C 24.574219 -23.21875 11.425781 -11.3125 2.234375 -5.316406 C 8.136719 -13.71875 21.066406 -25.914062 24.101562 -25.914062 Z M 24.101562 -25.914062 "/></g></g></g><g fill="#2a4b7e" fill-opacity="1"><g transform="translate(147.092546, 196.958195)"><g><path d="M 3.757812 -6.554688 C 3.886719 -6.554688 4.011719 -6.613281 4.089844 -6.714844 C 4.125 -6.773438 4.195312 -6.855469 4.261719 -6.957031 C 4.433594 -7.175781 4.640625 -7.460938 4.746094 -7.574219 C 4.800781 -7.65625 4.835938 -7.746094 4.835938 -7.839844 C 4.835938 -8.070312 4.652344 -8.253906 4.425781 -8.253906 C 4.296875 -8.253906 4.183594 -8.195312 4.101562 -8.101562 L 3.4375 -7.21875 C 3.382812 -7.152344 3.347656 -7.058594 3.347656 -6.96875 C 3.347656 -6.738281 3.53125 -6.554688 3.757812 -6.554688 Z M 0.433594 0.414062 C 2.175781 0.414062 7.679688 -2.132812 10.453125 -3.886719 C 10.566406 -3.953125 10.648438 -4.101562 10.648438 -4.242188 C 10.648438 -4.457031 10.453125 -4.652344 10.234375 -4.652344 C 10.167969 -4.652344 10.097656 -4.628906 10.015625 -4.597656 C 7.277344 -2.867188 1.996094 -0.414062 0.433594 -0.414062 C -0.0820312 -0.414062 -0.273438 -0.597656 -0.273438 -1.042969 C -0.273438 -1.742188 0.929688 -3.449219 2.683594 -5.25 L 2.695312 -5.261719 C 2.761719 -5.339844 2.796875 -5.433594 2.796875 -5.535156 C 2.796875 -5.753906 2.601562 -5.949219 2.382812 -5.949219 C 2.269531 -5.949219 2.167969 -5.902344 2.085938 -5.824219 C 0.0703125 -3.738281 -1.101562 -1.996094 -1.101562 -1.042969 C -1.101562 -0.125 -0.527344 0.414062 0.433594 0.414062 Z M 0.433594 0.414062 "/></g></g></g><g fill="#2a4b7e" fill-opacity="1"><g transform="translate(156.158403, 196.958195)"><g><path d="M 16.320312 -4.652344 C 16.230469 -4.652344 16.148438 -4.628906 16.082031 -4.574219 C 13.167969 -2.394531 8.597656 -0.675781 6.992188 -0.675781 C 6.167969 -0.675781 5.832031 -0.917969 5.832031 -1.5 C 5.832031 -2.464844 6.648438 -3.65625 7.253906 -4.527344 C 7.621094 -5.054688 7.851562 -5.398438 7.851562 -5.660156 C 7.851562 -5.9375 7.632812 -6.144531 7.359375 -6.144531 C 7.105469 -6.144531 6.714844 -5.902344 5.421875 -4.960938 C 5.113281 -5.46875 4.699219 -5.671875 3.964844 -5.671875 C 2.15625 -5.671875 -2.613281 -2.695312 -2.613281 -0.871094 C -2.613281 -0.308594 -2.199219 0.0585938 -1.570312 0.0585938 C -0.0820312 0.0585938 3.199219 -2.339844 5.386719 -3.917969 C 5.546875 -4.035156 5.707031 -4.148438 5.855469 -4.261719 C 6.039062 -4.402344 6.121094 -4.320312 6.003906 -4.125 C 5.488281 -3.300781 5.007812 -2.371094 5.007812 -1.5 C 5.007812 -0.433594 5.707031 0.148438 6.992188 0.148438 C 8.847656 0.148438 13.648438 -1.824219 16.550781 -3.898438 C 16.664062 -3.976562 16.734375 -4.101562 16.734375 -4.242188 C 16.734375 -4.457031 16.539062 -4.652344 16.320312 -4.652344 Z M 4.746094 -4.480469 C 1.867188 -2.394531 -0.46875 -0.769531 -1.570312 -0.769531 C -1.707031 -0.769531 -1.789062 -0.824219 -1.789062 -0.960938 C -1.789062 -2.027344 2.257812 -4.847656 3.964844 -4.847656 C 4.433594 -4.847656 4.574219 -4.78125 4.746094 -4.480469 Z M 4.746094 -4.480469 "/></g></g></g><g fill="#2a4b7e" fill-opacity="1"><g transform="translate(171.310183, 196.958195)"><g/></g></g><g fill="#2a4b7e" fill-opacity="1"><g transform="translate(182.771443, 196.958195)"><g><path d="M 15.21875 -4.664062 C 15.140625 -4.664062 15.046875 -4.640625 14.992188 -4.597656 C 11.554688 -2.246094 7.070312 -0.675781 5.238281 -0.675781 C 4.402344 -0.675781 4.082031 -0.917969 4.082031 -1.5 C 4.082031 -1.890625 4.457031 -2.703125 5.203125 -3.910156 C 5.273438 -3.792969 5.398438 -3.726562 5.546875 -3.726562 C 5.765625 -3.726562 5.949219 -3.898438 5.960938 -4.113281 C 5.984375 -4.378906 5.949219 -4.640625 5.832031 -4.894531 C 6.121094 -5.304688 6.429688 -5.765625 6.761719 -6.234375 C 14.5 -13.445312 25.191406 -24.527344 25.191406 -25.949219 C 25.191406 -26.453125 24.894531 -26.738281 24.332031 -26.738281 C 22.394531 -26.738281 11.679688 -14.488281 6.328125 -6.96875 L 6.347656 -6.980469 C 5.867188 -6.53125 5.410156 -6.109375 4.984375 -5.707031 C 4.722656 -5.8125 4.445312 -5.867188 4.136719 -5.867188 C 1.765625 -5.867188 -1.914062 -2.773438 -1.914062 -0.757812 C -1.914062 -0.253906 -1.570312 0.0585938 -1.019531 0.0585938 C -0.492188 0.0585938 1.179688 -1.203125 3.898438 -3.609375 C 4.070312 -3.769531 4.171875 -3.703125 4.058594 -3.496094 C 3.519531 -2.554688 3.253906 -1.878906 3.253906 -1.5 C 3.253906 -0.433594 3.953125 0.148438 5.238281 0.148438 C 7.210938 0.148438 11.886719 -1.476562 15.4375 -3.898438 C 15.5625 -3.988281 15.632812 -4.113281 15.632812 -4.253906 C 15.632812 -4.480469 15.449219 -4.664062 15.21875 -4.664062 Z M 24.332031 -25.914062 C 24.378906 -25.914062 24.390625 -25.890625 24.390625 -25.855469 C 24.390625 -24.984375 14.246094 -14.613281 9.867188 -10.347656 C 15.863281 -18.003906 23.199219 -25.914062 24.332031 -25.914062 Z M -0.972656 -0.769531 C -1.03125 -0.769531 -1.089844 -0.78125 -1.089844 -0.871094 C -1.089844 -2.304688 2.234375 -5.042969 4.136719 -5.042969 L 4.253906 -5.042969 C 1.261719 -2.304688 -0.640625 -0.769531 -0.972656 -0.769531 Z M -0.972656 -0.769531 "/></g></g></g><g fill="#2a4b7e" fill-opacity="1"><g transform="translate(196.811484, 196.958195)"><g><path d="M 16.320312 -4.652344 C 16.230469 -4.652344 16.148438 -4.628906 16.082031 -4.574219 C 13.167969 -2.394531 8.597656 -0.675781 6.992188 -0.675781 C 6.167969 -0.675781 5.832031 -0.917969 5.832031 -1.5 C 5.832031 -2.464844 6.648438 -3.65625 7.253906 -4.527344 C 7.621094 -5.054688 7.851562 -5.398438 7.851562 -5.660156 C 7.851562 -5.9375 7.632812 -6.144531 7.359375 -6.144531 C 7.105469 -6.144531 6.714844 -5.902344 5.421875 -4.960938 C 5.113281 -5.46875 4.699219 -5.671875 3.964844 -5.671875 C 2.15625 -5.671875 -2.613281 -2.695312 -2.613281 -0.871094 C -2.613281 -0.308594 -2.199219 0.0585938 -1.570312 0.0585938 C -0.0820312 0.0585938 3.199219 -2.339844 5.386719 -3.917969 C 5.546875 -4.035156 5.707031 -4.148438 5.855469 -4.261719 C 6.039062 -4.402344 6.121094 -4.320312 6.003906 -4.125 C 5.488281 -3.300781 5.007812 -2.371094 5.007812 -1.5 C 5.007812 -0.433594 5.707031 0.148438 6.992188 0.148438 C 8.847656 0.148438 13.648438 -1.824219 16.550781 -3.898438 C 16.664062 -3.976562 16.734375 -4.101562 16.734375 -4.242188 C 16.734375 -4.457031 16.539062 -4.652344 16.320312 -4.652344 Z M 4.746094 -4.480469 C 1.867188 -2.394531 -0.46875 -0.769531 -1.570312 -0.769531 C -1.707031 -0.769531 -1.789062 -0.824219 -1.789062 -0.960938 C -1.789062 -2.027344 2.257812 -4.847656 3.964844 -4.847656 C 4.433594 -4.847656 4.574219 -4.78125 4.746094 -4.480469 Z M 4.746094 -4.480469 "/></g></g></g><g fill="#2a4b7e" fill-opacity="1"><g transform="translate(211.963264, 196.958195)"><g/></g></g><g fill="#2a4b7e" fill-opacity="1"><g transform="translate(223.424532, 196.958195)"><g><path d="M 15.027344 -4.652344 C 14.957031 -4.652344 14.875 -4.628906 14.808594 -4.585938 C 12.515625 -3.175781 9.511719 -2.589844 6.957031 -2.210938 C 7.5625 -3.015625 7.898438 -3.804688 7.898438 -4.457031 C 7.898438 -5.101562 7.507812 -5.488281 6.875 -5.488281 C 5.9375 -5.488281 4.367188 -4.664062 2.085938 -2.96875 C 1.296875 -2.371094 0.5625 -1.753906 -0.046875 -1.226562 C -0.480469 -0.835938 -0.515625 -1.042969 -0.285156 -1.410156 C 0.148438 -2.132812 0.757812 -3.003906 1.511719 -4.035156 C 12.273438 -11.027344 22.703125 -22.832031 22.703125 -25.5 C 22.703125 -26.109375 22.417969 -26.453125 21.695312 -26.453125 C 19.382812 -26.453125 6.695312 -12.515625 0.917969 -4.617188 L 0.953125 -4.652344 C 0.929688 -4.628906 0.90625 -4.605469 0.894531 -4.574219 C -0.972656 -2.015625 -1.949219 -0.308594 -1.949219 0.414062 C -1.949219 0.710938 -1.71875 0.941406 -1.421875 0.941406 C -1.203125 0.941406 -0.929688 0.6875 -0.652344 0.425781 L -0.480469 0.273438 C 0.195312 -0.34375 1.304688 -1.351562 2.589844 -2.304688 C 4.664062 -3.851562 6.109375 -4.699219 6.84375 -4.699219 C 7.015625 -4.699219 7.070312 -4.605469 7.070312 -4.457031 C 7.070312 -3.828125 6.566406 -2.910156 5.742188 -2.050781 L 5.46875 -2.015625 C 2.910156 -1.671875 1.570312 -1.46875 1.570312 -0.574219 C 1.570312 0.0351562 2.0625 0.46875 2.761719 0.46875 C 3.726562 0.46875 5.007812 -0.195312 6.109375 -1.261719 C 8.847656 -1.628906 12.515625 -2.199219 15.230469 -3.886719 C 15.359375 -3.953125 15.4375 -4.101562 15.4375 -4.242188 C 15.4375 -4.46875 15.253906 -4.652344 15.027344 -4.652344 Z M 21.695312 -25.628906 C 21.832031 -25.628906 21.878906 -25.558594 21.878906 -25.421875 C 21.878906 -23.300781 12.972656 -13.066406 3.070312 -6.085938 C 9.191406 -13.914062 19.976562 -25.628906 21.695312 -25.628906 Z M 2.394531 -0.515625 C 2.394531 -0.675781 3.277344 -0.859375 4.539062 -1.042969 C 3.875 -0.597656 3.253906 -0.355469 2.761719 -0.355469 C 2.519531 -0.355469 2.394531 -0.445312 2.394531 -0.515625 Z M 2.394531 -0.515625 "/></g></g></g><g fill="#2a4b7e" fill-opacity="1"><g transform="translate(237.269723, 196.958195)"><g><path d="M 11.828125 -4.652344 C 11.734375 -4.652344 11.65625 -4.628906 11.585938 -4.574219 C 8.023438 -1.972656 3.21875 -0.5625 1.730469 -0.5625 C 0.574219 -0.5625 0 -0.871094 0 -1.445312 C 0 -2.003906 0.414062 -2.796875 1.101562 -3.554688 C 1.445312 -3.402344 1.824219 -3.347656 2.371094 -3.347656 C 3.425781 -3.347656 4.640625 -4.195312 4.640625 -4.953125 C 4.640625 -5.5 4.21875 -5.867188 3.574219 -5.867188 C 1.789062 -5.867188 -0.824219 -3.242188 -0.824219 -1.445312 C -0.824219 -0.355469 0.101562 0.261719 1.730469 0.261719 C 3.335938 0.261719 8.390625 -1.214844 12.070312 -3.910156 C 12.171875 -3.976562 12.242188 -4.113281 12.242188 -4.242188 C 12.242188 -4.46875 12.058594 -4.652344 11.828125 -4.652344 Z M 3.816406 -4.953125 C 3.816406 -4.699219 3.230469 -4.171875 2.371094 -4.171875 C 2.132812 -4.171875 1.949219 -4.183594 1.789062 -4.207031 C 2.441406 -4.734375 3.09375 -5.042969 3.574219 -5.042969 C 3.78125 -5.042969 3.816406 -5.007812 3.816406 -4.953125 Z M 3.816406 -4.953125 "/></g></g></g><g fill="#2a4b7e" fill-opacity="1"><g transform="translate(247.928692, 196.958195)"><g><path d="M 0.664062 5.707031 C 3.839844 5.707031 12.882812 -0.148438 18.0625 -3.910156 C 18.167969 -3.976562 18.234375 -4.101562 18.234375 -4.242188 C 18.234375 -4.46875 18.050781 -4.652344 17.820312 -4.652344 C 17.730469 -4.652344 17.648438 -4.628906 17.582031 -4.574219 C 12.414062 -0.835938 3.585938 4.882812 0.664062 4.882812 C 0.148438 4.882812 -0.0234375 4.722656 -0.0234375 4.242188 C -0.0234375 2.773438 2.566406 0.230469 5.113281 -2.28125 C 7.359375 -4.492188 9.59375 -6.695312 9.59375 -8 C 9.59375 -8.492188 9.144531 -8.882812 8.574219 -9.398438 C 8.402344 -9.535156 8.21875 -9.695312 8.046875 -9.867188 C 10.175781 -12.148438 11.4375 -13.902344 11.4375 -14.613281 C 11.4375 -15.070312 11.175781 -15.347656 10.726562 -15.347656 C 9.054688 -15.347656 5.398438 -12.539062 5.398438 -11.230469 C 5.398438 -10.785156 5.742188 -10.417969 6.796875 -9.71875 C 5.078125 -7.929688 2.980469 -6.015625 0.929688 -4.574219 C 0.8125 -4.492188 0.746094 -4.367188 0.746094 -4.230469 C 0.746094 -4 0.929688 -3.816406 1.15625 -3.816406 C 1.25 -3.816406 1.328125 -3.839844 1.398438 -3.898438 C 3.277344 -5.226562 5.558594 -7.300781 7.472656 -9.273438 C 8.414062 -8.640625 8.769531 -8.296875 8.769531 -8 C 8.769531 -7.046875 6.773438 -5.078125 4.527344 -2.867188 C 1.984375 -0.355469 -0.847656 2.429688 -0.847656 4.242188 C -0.847656 5.179688 -0.308594 5.707031 0.664062 5.707031 Z M 7.359375 -10.328125 C 6.625 -10.820312 6.222656 -11.152344 6.222656 -11.230469 C 6.222656 -11.976562 9.132812 -14.210938 10.328125 -14.464844 C 10.476562 -14.488281 10.566406 -14.429688 10.519531 -14.292969 C 10.210938 -13.546875 8.445312 -11.484375 7.359375 -10.328125 Z M 7.359375 -10.328125 "/></g></g></g><g fill="#2a4b7e" fill-opacity="1"><g transform="translate(264.570439, 196.958195)"><g><path d="M 11.828125 -4.652344 C 11.734375 -4.652344 11.65625 -4.628906 11.585938 -4.574219 C 8.023438 -1.972656 3.21875 -0.5625 1.730469 -0.5625 C 0.574219 -0.5625 0 -0.871094 0 -1.445312 C 0 -2.003906 0.414062 -2.796875 1.101562 -3.554688 C 1.445312 -3.402344 1.824219 -3.347656 2.371094 -3.347656 C 3.425781 -3.347656 4.640625 -4.195312 4.640625 -4.953125 C 4.640625 -5.5 4.21875 -5.867188 3.574219 -5.867188 C 1.789062 -5.867188 -0.824219 -3.242188 -0.824219 -1.445312 C -0.824219 -0.355469 0.101562 0.261719 1.730469 0.261719 C 3.335938 0.261719 8.390625 -1.214844 12.070312 -3.910156 C 12.171875 -3.976562 12.242188 -4.113281 12.242188 -4.242188 C 12.242188 -4.46875 12.058594 -4.652344 11.828125 -4.652344 Z M 3.816406 -4.953125 C 3.816406 -4.699219 3.230469 -4.171875 2.371094 -4.171875 C 2.132812 -4.171875 1.949219 -4.183594 1.789062 -4.207031 C 2.441406 -4.734375 3.09375 -5.042969 3.574219 -5.042969 C 3.78125 -5.042969 3.816406 -5.007812 3.816406 -4.953125 Z M 3.816406 -4.953125 "/></g></g></g></svg>