<svg xmlns="http://www.w3.org/2000/svg" xmlns:xlink="http://www.w3.org/1999/xlink" width="500" zoomAndPan="magnify" viewBox="0 0 375 374.999991" height="500" preserveAspectRatio="xMidYMid meet" version="1.0"><defs><g/><clipPath id="b2c1724ff5"><path d="M 29 124 L 122 124 L 122 197 L 29 197 Z M 29 124 " clip-rule="nonzero"/></clipPath><clipPath id="7fa0e5f6cd"><path d="M 9.046875 150.003906 L 97.191406 103.3125 L 122.117188 150.367188 L 33.972656 197.058594 Z M 9.046875 150.003906 " clip-rule="nonzero"/></clipPath><clipPath id="bfc44f358b"><path d="M 9.046875 150.003906 L 97.191406 103.3125 L 122.117188 150.367188 L 33.972656 197.058594 Z M 9.046875 150.003906 " clip-rule="nonzero"/></clipPath><clipPath id="d2a4731365"><path d="M 318.695312 168.457031 L 326.941406 168.457031 L 326.941406 176.542969 L 318.695312 176.542969 Z M 318.695312 168.457031 " clip-rule="nonzero"/></clipPath></defs><rect x="-37.5" width="450" fill="#ffffff" y="-37.499999" height="449.999989" fill-opacity="1"/><rect x="-37.5" width="450" fill="#f4ead9" y="-37.499999" height="449.999989" fill-opacity="1"/><path stroke-linecap="butt" transform="matrix(0.816078, 0, 0, 0.816078, 56.170525, 126.906846)" fill="none" stroke-linejoin="miter" d="M 25.442492 119.372562 C 30.071145 119.372562 34.115831 118.554052 37.452099 116.912244 C 40.850593 115.332662 43.66512 113.164328 45.833455 110.526905 C 48.00179 107.832043 49.638811 104.902637 50.696652 101.681248 C 51.749706 98.459859 52.276234 95.233683 52.276234 92.012293 C 52.276234 88.55636 51.749706 85.39241 50.754091 82.520444 C 49.701037 79.653264 48.351213 77.13072 46.709405 74.904946 C 45.010158 72.736611 43.196032 70.922485 41.204802 69.515222 C 42.904049 67.346887 44.368752 64.944008 45.541472 62.426251 C 46.709405 59.846267 47.298158 57.036527 47.298158 53.930016 C 47.298158 48.425413 45.187263 43.969079 40.970258 40.513145 C 36.691028 37.057212 31.358743 35.357965 24.858526 35.357965 C 20.521856 35.357965 16.596835 36.35358 13.140902 38.287371 C 9.684969 40.221162 6.927881 42.796359 4.879211 46.022535 C 2.825755 49.243924 1.83014 52.699857 1.83014 56.509999 C 1.83014 60.080811 2.653437 63.306987 4.233019 66.116728 C 5.817387 68.869029 7.808617 70.276293 10.268935 70.276293 C 11.968182 70.276293 13.782308 69.338117 15.778324 67.523991 C 14.955027 66.76292 14.136517 65.882184 13.375446 64.886569 C 12.614375 63.948393 11.910743 62.837899 11.384216 61.488075 C 10.852902 60.143037 10.618358 58.50123 10.618358 56.509999 C 10.618358 54.513983 11.207111 52.522752 12.379831 50.651188 C 13.547764 48.774836 15.189571 47.252694 17.357906 46.022535 C 19.468802 44.792376 21.986559 44.203622 24.858526 44.203622 C 29.195195 44.203622 32.531463 45.141798 34.934342 46.96071 C 37.279781 48.832275 38.447714 51.177715 38.447714 53.930016 C 38.447714 55.748928 38.040852 57.563054 37.279781 59.204861 C 36.456484 60.904108 35.34599 62.603355 33.996166 64.417481 C 32.588902 66.174167 31.009321 68.050519 29.195195 70.099188 L 27.376283 72.210084 L 27.376283 55.686702 C 27.376283 51.646803 28.137354 48.951941 29.602057 47.544677 L 29.602057 46.429397 L 16.362291 49.066819 L 16.362291 50.1821 C 17.123362 50.943171 17.707329 51.938786 18.061538 53.111506 C 18.353521 54.284225 18.530626 55.863807 18.530626 57.912476 L 18.530626 75.08205 C 14.251396 75.900561 10.618358 77.657247 7.688952 80.414335 C 5.640282 82.348126 4.175579 84.688779 3.122525 87.383641 C 2.12691 90.078503 1.595596 92.950469 1.595596 96.05698 C 1.595596 99.101264 2.12691 102.08811 3.122525 104.902637 C 4.175579 107.774604 5.755161 110.292361 7.808617 112.460696 C 12.317605 117.089349 18.176417 119.372562 25.442492 119.372562 Z M 25.442492 110.526905 C 22.043998 110.526905 19.291697 109.880712 17.065923 108.593114 C 14.840149 107.305516 13.198341 105.548829 12.083061 103.380495 C 10.972567 101.21216 10.44604 98.751842 10.44604 96.05698 C 10.44604 89.786519 13.140902 85.804059 18.530626 84.162251 L 18.530626 97.287139 C 18.530626 99.335808 18.353521 100.920177 18.061538 102.08811 C 17.707329 103.260829 17.123362 104.256445 16.362291 105.022302 L 16.362291 106.132796 L 29.602057 106.132796 L 29.602057 105.022302 C 28.783547 104.256445 28.194793 103.260829 27.90281 102.08811 C 27.553388 100.920177 27.376283 99.335808 27.376283 97.287139 L 27.376283 90.9018 C 27.610827 88.790904 28.257019 86.799674 29.310074 84.808444 C 31.06676 86.153482 32.651128 88.206938 34.115831 91.016678 C 36.456484 88.968009 37.686643 86.799674 37.686643 84.454235 C 37.686643 81.993917 36.51871 79.825582 34.173271 77.891791 L 35.518308 76.369649 C 36.810693 77.188159 38.040852 78.360879 39.271011 79.825582 C 40.443731 81.290285 41.496786 82.989532 42.257857 85.042988 C 43.076367 87.091657 43.488016 89.437097 43.488016 92.012293 C 43.488016 94.180628 43.138593 96.348963 42.492401 98.574737 C 41.846208 100.743072 40.850593 102.734302 39.38589 104.553214 C 37.983413 106.309901 36.107062 107.774604 33.819061 108.885097 C 31.535848 110.000378 28.726107 110.526905 25.442492 110.526905 Z M 88.845942 109.880712 L 86.620168 98.809281 L 85.504887 98.809281 C 84.743816 99.627792 83.748201 100.216545 82.575481 100.565967 C 81.402762 100.857951 79.82318 101.035055 77.774511 101.035055 L 69.393155 101.035055 L 69.393155 83.343741 L 76.424686 83.343741 C 78.473356 83.343741 80.115163 83.516059 81.287883 83.870268 C 82.403163 84.219691 83.398779 84.746218 84.15985 85.569515 L 85.270343 85.569515 L 82.632921 72.329749 L 81.522427 72.329749 C 80.761356 73.09082 79.765741 73.674787 78.593021 74.024209 C 77.420301 74.320979 75.84072 74.493297 73.787264 74.493297 L 69.393155 74.493297 L 69.393155 61.253531 L 77.774511 61.253531 C 79.82318 61.253531 81.402762 61.430636 82.575481 61.722619 C 83.748201 62.072041 84.743816 62.660795 85.504887 63.479305 L 86.620168 63.479305 L 88.845942 52.407874 L 58.321723 52.407874 L 58.321723 53.518368 C 59.140234 54.284225 59.666761 55.27984 60.02097 56.390334 C 60.370393 57.563054 60.547497 59.204861 60.547497 61.253531 L 60.547497 101.035055 C 60.547497 103.088511 60.370393 104.668093 60.02097 105.840813 C 59.666761 107.013532 59.140234 108.009148 58.321723 108.770219 L 58.321723 109.880712 Z M 125.181106 109.880712 L 122.955332 98.809281 L 121.840052 98.809281 C 121.078981 99.627792 120.083365 100.216545 118.910646 100.565967 C 117.737926 100.857951 116.158344 101.035055 114.109675 101.035055 L 105.728319 101.035055 L 105.728319 61.253531 C 105.728319 59.204861 105.905424 57.563054 106.197407 56.390334 C 106.551616 55.27984 107.135583 54.284225 107.896654 53.518368 L 107.896654 52.407874 L 94.656888 52.407874 L 94.656888 53.518368 C 95.475398 54.284225 96.001925 55.27984 96.356135 56.390334 C 96.705557 57.563054 96.882662 59.204861 96.882662 61.253531 L 96.882662 101.035055 C 96.882662 103.088511 96.705557 104.668093 96.356135 105.840813 C 96.001925 107.013532 95.475398 108.009148 94.656888 108.770219 L 94.656888 109.880712 Z M 144.231818 109.880712 L 144.231818 108.770219 C 143.470747 108.009148 142.88678 107.013532 142.532571 105.840813 C 142.240588 104.668093 142.063483 103.088511 142.063483 101.035055 C 142.063483 99.22093 142.475132 97.579122 143.236203 96.171858 C 144.054714 94.707156 145.169994 93.362118 146.577258 92.131959 C 147.687751 91.136344 149.449224 89.671641 151.909542 87.73785 C 153.723668 86.330586 155.600019 84.746218 157.471584 82.989532 C 159.347936 81.232845 160.932304 79.241615 162.219902 76.896176 C 163.507501 74.555523 164.153693 71.798435 164.153693 68.696711 C 164.153693 66.46615 163.684605 64.302602 162.68899 62.249146 C 161.693375 60.143037 160.286112 58.381564 158.471986 56.859422 C 154.661844 53.872577 149.621542 52.407874 143.413308 52.407874 L 130.992052 52.407874 L 130.992052 53.518368 C 131.810563 54.284225 132.33709 55.27984 132.691299 56.390334 C 133.040722 57.563054 133.217826 59.204861 133.217826 61.253531 L 133.217826 101.035055 C 133.217826 103.088511 133.040722 104.668093 132.691299 105.840813 C 132.33709 107.013532 131.810563 108.009148 130.992052 108.770219 L 130.992052 109.880712 Z M 142.063483 84.27713 L 142.063483 61.253531 C 144.93545 61.253531 147.218663 61.430636 148.860471 61.842284 C 150.502279 62.249146 151.847316 62.895339 152.905157 63.771288 C 154.542178 65.063673 155.308036 66.700694 155.308036 68.696711 C 155.308036 70.395958 154.896388 71.860661 154.135316 73.205699 C 153.312019 74.555523 152.258965 75.785682 150.913927 77.015841 C 149.564103 78.246 148.041961 79.533599 146.342714 80.821197 C 144.93545 81.879038 143.528186 83.046971 142.063483 84.27713 Z M 206.697092 109.880712 L 206.697092 108.770219 C 205.878582 107.951708 205.11751 106.951307 204.413879 105.783373 C 203.652808 104.553214 203.064054 102.968846 202.657192 101.035055 L 192.342046 52.407874 L 180.801526 52.407874 L 180.801526 53.518368 C 181.739702 54.399104 182.20879 55.629263 182.20879 57.213631 C 182.20879 58.324125 182.031685 59.611723 181.682263 61.138652 L 173.243468 101.035055 C 172.482396 104.37611 171.075133 106.951307 169.141342 108.770219 L 169.141342 109.880712 L 182.912422 109.880712 L 182.912422 108.770219 C 181.916807 107.889482 181.447719 106.601884 181.447719 104.902637 C 181.447719 103.849583 181.562598 102.619424 181.916807 101.092495 C 182.20879 99.627792 182.500773 98.105649 182.792757 96.640946 L 193.107903 96.640946 C 193.399887 98.105649 193.69187 99.627792 193.983853 101.092495 C 194.275836 102.619424 194.395502 103.849583 194.395502 104.902637 C 194.395502 106.601884 193.926414 107.889482 192.930799 108.770219 L 192.930799 109.880712 Z M 191.346431 87.795289 L 184.492004 87.795289 L 187.947937 70.276293 Z M 243.094482 109.880712 L 240.863922 98.809281 L 239.753428 98.809281 C 238.992357 99.627792 237.996742 100.216545 236.824022 100.565967 C 235.651302 100.857951 234.071721 101.035055 232.018264 101.035055 L 223.641695 101.035055 L 223.641695 83.343741 L 230.673227 83.343741 C 232.721896 83.343741 234.363704 83.516059 235.536424 83.870268 C 236.646917 84.219691 237.642532 84.746218 238.403604 85.569515 L 239.518884 85.569515 L 236.881461 72.329749 L 235.770968 72.329749 C 235.00511 73.09082 234.009495 73.674787 232.841562 74.024209 C 231.668842 74.320979 230.084474 74.493297 228.035804 74.493297 L 223.641695 74.493297 L 223.641695 61.253531 L 232.018264 61.253531 C 234.071721 61.253531 235.651302 61.430636 236.824022 61.722619 C 237.996742 62.072041 238.992357 62.660795 239.753428 63.479305 L 240.863922 63.479305 L 243.094482 52.407874 L 212.565477 52.407874 L 212.565477 53.518368 C 213.388774 54.284225 213.915302 55.27984 214.264724 56.390334 C 214.618933 57.563054 214.796038 59.204861 214.796038 61.253531 L 214.796038 101.035055 C 214.796038 103.088511 214.618933 104.668093 214.264724 105.840813 C 213.915302 107.013532 213.388774 108.009148 212.565477 108.770219 L 212.565477 109.880712 Z M 265.543688 110.412026 C 268.530533 110.412026 271.282835 109.708394 273.920257 108.301131 C 276.500241 106.893867 278.60635 104.960076 280.248157 102.499758 C 281.827739 100.03944 282.651036 97.287139 282.651036 94.123189 C 282.651036 89.374871 281.186333 85.512076 278.314366 82.520444 C 275.911488 80.179791 273.216626 78.188561 270.22978 76.604193 L 267.242935 74.847506 C 265.017161 73.559908 263.255688 72.387188 261.96809 71.329347 C 260.503387 70.099188 259.799755 68.462167 259.799755 66.46615 C 259.799755 65.121113 260.326282 63.833514 261.441563 62.660795 C 262.494617 61.430636 264.078985 60.841882 266.185094 60.841882 C 267.769462 60.841882 269.1145 61.373196 270.28722 62.426251 C 271.459939 63.536744 272.043906 64.594585 272.043906 65.705079 L 271.986467 66.174167 L 272.632659 67.054904 L 281.535756 60.549899 C 280.89435 59.611723 279.956174 58.50123 278.663789 57.213631 C 277.43363 55.863807 275.796609 54.691087 273.743153 53.580594 C 271.751923 52.522752 269.349044 51.996225 266.539303 51.996225 C 263.317914 51.996225 260.560826 52.757296 258.220173 54.284225 C 255.932173 55.806368 254.118048 57.677933 252.830449 60.023372 C 251.60029 62.368811 250.954098 64.709464 250.954098 67.169782 C 250.954098 69.92687 251.60029 72.267523 252.830449 74.143875 C 254.060608 76.020226 255.582751 77.657247 257.396876 78.949632 C 259.215788 80.29467 260.972475 81.40995 262.729161 82.405565 L 264.662952 83.578285 C 268.118885 85.569515 270.521764 87.268762 271.871588 88.6138 C 272.512994 89.259992 273.039521 89.963624 273.336291 90.724695 C 273.628274 91.485766 273.805379 92.601047 273.805379 94.123189 C 273.805379 96.291524 272.982082 98.105649 271.4025 99.512913 C 269.818132 100.857951 267.884341 101.561583 265.543688 101.561583 C 260.972475 101.561583 258.277613 99.804896 257.459102 96.229298 L 257.459102 95.702771 C 257.459102 94.472612 257.63142 93.419557 258.043069 92.481381 C 258.454717 91.605432 259.096123 91.193783 260.034299 91.193783 L 260.153964 91.193783 L 260.972475 90.432712 C 258.861579 88.206938 257.396876 86.742235 256.693244 85.918938 C 255.994399 85.157866 254.879119 83.985147 253.414416 82.405565 C 250.073361 85.626954 248.374114 89.551975 248.374114 94.123189 C 248.374114 98.694402 250.073361 102.557198 253.471855 105.721147 C 256.81291 108.827658 260.852809 110.412026 265.543688 110.412026 Z M 319.04364 109.880712 L 316.817866 98.809281 L 315.702585 98.809281 C 314.941514 99.627792 313.945899 100.216545 312.773179 100.565967 C 311.605246 100.857951 310.020878 101.035055 307.972208 101.035055 L 299.590852 101.035055 L 299.590852 83.343741 L 306.622384 83.343741 C 308.67584 83.343741 310.312861 83.516059 311.485581 83.870268 C 312.600861 84.219691 313.596476 84.746218 314.357547 85.569515 L 315.468041 85.569515 L 312.835405 72.329749 L 311.720125 72.329749 C 310.959054 73.09082 309.963439 73.674787 308.790719 74.024209 C 307.617999 74.320979 306.038418 74.493297 303.984961 74.493297 L 299.590852 74.493297 L 299.590852 61.253531 L 307.972208 61.253531 C 310.020878 61.253531 311.605246 61.430636 312.773179 61.722619 C 313.945899 62.072041 314.941514 62.660795 315.702585 63.479305 L 316.817866 63.479305 L 319.04364 52.407874 L 288.519421 52.407874 L 288.519421 53.518368 C 289.337932 54.284225 289.864459 55.27984 290.218668 56.390334 C 290.568091 57.563054 290.745195 59.204861 290.745195 61.253531 L 290.745195 101.035055 C 290.745195 103.088511 290.568091 104.668093 290.218668 105.840813 C 289.864459 107.013532 289.337932 108.009148 288.519421 108.770219 L 288.519421 109.880712 Z M 319.04364 109.880712 " stroke="#2a4b7e" stroke-width="1.799925" stroke-opacity="1" stroke-miterlimit="4"/><g fill="#2a4b7e" fill-opacity="1"><g transform="translate(56.183276, 216.675473)"><g><path d="M 20.75 7.648438 C 24.527344 7.648438 27.828125 6.980469 30.550781 5.640625 C 33.324219 4.351562 35.621094 2.582031 37.390625 0.429688 C 39.160156 -1.769531 40.496094 -4.160156 41.359375 -6.789062 C 42.21875 -9.417969 42.648438 -12.050781 42.648438 -14.679688 C 42.648438 -17.5 42.21875 -20.082031 41.40625 -22.425781 C 40.546875 -24.765625 39.445312 -26.824219 38.105469 -28.640625 C 36.71875 -30.410156 35.238281 -31.890625 33.613281 -33.039062 C 35 -34.808594 36.195312 -36.769531 37.152344 -38.824219 C 38.105469 -40.929688 38.585938 -43.222656 38.585938 -45.757812 C 38.585938 -50.25 36.863281 -53.886719 33.421875 -56.707031 C 29.929688 -59.527344 25.578125 -60.914062 20.273438 -60.914062 C 16.734375 -60.914062 13.53125 -60.101562 10.710938 -58.523438 C 7.890625 -56.945312 5.640625 -54.839844 3.96875 -52.210938 C 2.296875 -49.582031 1.480469 -46.761719 1.480469 -43.652344 C 1.480469 -40.738281 2.152344 -38.105469 3.441406 -35.8125 C 4.734375 -33.566406 6.359375 -32.417969 8.367188 -32.417969 C 9.753906 -32.417969 11.234375 -33.183594 12.863281 -34.664062 C 12.191406 -35.285156 11.523438 -36.003906 10.902344 -36.816406 C 10.28125 -37.582031 9.707031 -38.488281 9.277344 -39.589844 C 8.84375 -40.6875 8.652344 -42.027344 8.652344 -43.652344 C 8.652344 -45.277344 9.132812 -46.90625 10.089844 -48.433594 C 11.042969 -49.964844 12.382812 -51.207031 14.152344 -52.210938 C 15.875 -53.214844 17.929688 -53.695312 20.273438 -53.695312 C 23.8125 -53.695312 26.535156 -52.929688 28.496094 -51.445312 C 30.410156 -49.917969 31.367188 -48.003906 31.367188 -45.757812 C 31.367188 -44.273438 31.03125 -42.792969 30.410156 -41.453125 C 29.738281 -40.066406 28.832031 -38.679688 27.730469 -37.199219 C 26.585938 -35.765625 25.292969 -34.234375 23.8125 -32.5625 L 22.328125 -30.839844 L 22.328125 -44.324219 C 22.328125 -47.621094 22.949219 -49.820312 24.144531 -50.96875 L 24.144531 -51.878906 L 13.339844 -49.726562 L 13.339844 -48.816406 C 13.960938 -48.195312 14.441406 -47.382812 14.726562 -46.425781 C 14.964844 -45.46875 15.109375 -44.179688 15.109375 -42.503906 L 15.109375 -28.496094 C 11.617188 -27.828125 8.652344 -26.394531 6.261719 -24.144531 C 4.589844 -22.566406 3.394531 -20.65625 2.535156 -18.457031 C 1.722656 -16.257812 1.289062 -13.914062 1.289062 -11.378906 C 1.289062 -8.894531 1.722656 -6.453125 2.535156 -4.160156 C 3.394531 -1.816406 4.6875 0.238281 6.359375 2.007812 C 10.039062 5.785156 14.820312 7.648438 20.75 7.648438 Z M 20.75 0.429688 C 17.976562 0.429688 15.730469 -0.09375 13.914062 -1.148438 C 12.097656 -2.199219 10.757812 -3.632812 9.847656 -5.402344 C 8.941406 -7.171875 8.511719 -9.179688 8.511719 -11.378906 C 8.511719 -16.496094 10.710938 -19.746094 15.109375 -21.085938 L 15.109375 -10.375 C 15.109375 -8.703125 14.964844 -7.410156 14.726562 -6.453125 C 14.441406 -5.5 13.960938 -4.6875 13.339844 -4.0625 L 13.339844 -3.15625 L 24.144531 -3.15625 L 24.144531 -4.0625 C 23.476562 -4.6875 23 -5.5 22.757812 -6.453125 C 22.472656 -7.410156 22.328125 -8.703125 22.328125 -10.375 L 22.328125 -15.585938 C 22.519531 -17.308594 23.046875 -18.933594 23.90625 -20.558594 C 25.339844 -19.460938 26.632812 -17.785156 27.828125 -15.492188 C 29.738281 -17.164062 30.742188 -18.933594 30.742188 -20.847656 C 30.742188 -22.855469 29.789062 -24.625 27.875 -26.203125 L 28.976562 -27.445312 C 30.027344 -26.773438 31.03125 -25.820312 32.035156 -24.625 C 32.992188 -23.429688 33.851562 -22.042969 34.472656 -20.367188 C 35.144531 -18.695312 35.476562 -16.78125 35.476562 -14.679688 C 35.476562 -12.910156 35.191406 -11.140625 34.664062 -9.324219 C 34.136719 -7.554688 33.324219 -5.929688 32.128906 -4.445312 C 30.984375 -3.011719 29.453125 -1.816406 27.589844 -0.910156 C 25.722656 0 23.429688 0.429688 20.75 0.429688 Z M 20.75 0.429688 "/></g></g></g><g fill="#2a4b7e" fill-opacity="1"><g transform="translate(102.37836, 216.675473)"><g><path d="M 26.296875 -0.09375 L 24.480469 -9.132812 L 23.570312 -9.132812 C 22.949219 -8.464844 22.136719 -7.984375 21.179688 -7.699219 C 20.226562 -7.457031 18.933594 -7.316406 17.261719 -7.316406 L 10.421875 -7.316406 L 10.421875 -21.753906 L 16.160156 -21.753906 C 17.835938 -21.753906 19.171875 -21.613281 20.128906 -21.324219 C 21.039062 -21.039062 21.851562 -20.609375 22.472656 -19.9375 L 23.378906 -19.9375 L 21.230469 -30.742188 L 20.320312 -30.742188 C 19.699219 -30.121094 18.886719 -29.644531 17.929688 -29.355469 C 16.972656 -29.117188 15.683594 -28.976562 14.007812 -28.976562 L 10.421875 -28.976562 L 10.421875 -39.78125 L 17.261719 -39.78125 C 18.933594 -39.78125 20.226562 -39.636719 21.179688 -39.398438 C 22.136719 -39.109375 22.949219 -38.632812 23.570312 -37.964844 L 24.480469 -37.964844 L 26.296875 -47 L 1.386719 -47 L 1.386719 -46.09375 C 2.054688 -45.46875 2.484375 -44.65625 2.773438 -43.75 C 3.058594 -42.792969 3.203125 -41.453125 3.203125 -39.78125 L 3.203125 -7.316406 C 3.203125 -5.640625 3.058594 -4.351562 2.773438 -3.394531 C 2.484375 -2.4375 2.054688 -1.625 1.386719 -1.003906 L 1.386719 -0.09375 Z M 26.296875 -0.09375 "/></g></g></g><g fill="#2a4b7e" fill-opacity="1"><g transform="translate(132.030883, 216.675473)"><g><path d="M 26.296875 -0.09375 L 24.480469 -9.132812 L 23.570312 -9.132812 C 22.949219 -8.464844 22.136719 -7.984375 21.179688 -7.699219 C 20.226562 -7.457031 18.933594 -7.316406 17.261719 -7.316406 L 10.421875 -7.316406 L 10.421875 -39.78125 C 10.421875 -41.453125 10.566406 -42.792969 10.804688 -43.75 C 11.09375 -44.65625 11.570312 -45.46875 12.191406 -46.09375 L 12.191406 -47 L 1.386719 -47 L 1.386719 -46.09375 C 2.054688 -45.46875 2.484375 -44.65625 2.773438 -43.75 C 3.058594 -42.792969 3.203125 -41.453125 3.203125 -39.78125 L 3.203125 -7.316406 C 3.203125 -5.640625 3.058594 -4.351562 2.773438 -3.394531 C 2.484375 -2.4375 2.054688 -1.625 1.386719 -1.003906 L 1.386719 -0.09375 Z M 26.296875 -0.09375 "/></g></g></g><g fill="#2a4b7e" fill-opacity="1"><g transform="translate(161.683404, 216.675473)"><g><path d="M 12.191406 -0.09375 L 12.191406 -1.003906 C 11.570312 -1.625 11.09375 -2.4375 10.804688 -3.394531 C 10.566406 -4.351562 10.421875 -5.640625 10.421875 -7.316406 C 10.421875 -8.796875 10.757812 -10.136719 11.378906 -11.285156 C 12.050781 -12.480469 12.957031 -13.578125 14.105469 -14.582031 C 15.011719 -15.394531 16.449219 -16.589844 18.457031 -18.167969 C 19.9375 -19.316406 21.46875 -20.609375 23 -22.042969 C 24.527344 -23.476562 25.820312 -25.101562 26.871094 -27.015625 C 27.921875 -28.925781 28.449219 -31.175781 28.449219 -33.707031 C 28.449219 -35.523438 28.066406 -37.292969 27.253906 -38.96875 C 26.441406 -40.6875 25.292969 -42.125 23.8125 -43.367188 C 20.703125 -45.804688 16.589844 -47 11.523438 -47 L 1.386719 -47 L 1.386719 -46.09375 C 2.054688 -45.46875 2.484375 -44.65625 2.773438 -43.75 C 3.058594 -42.792969 3.203125 -41.453125 3.203125 -39.78125 L 3.203125 -7.316406 C 3.203125 -5.640625 3.058594 -4.351562 2.773438 -3.394531 C 2.484375 -2.4375 2.054688 -1.625 1.386719 -1.003906 L 1.386719 -0.09375 Z M 10.421875 -20.988281 L 10.421875 -39.78125 C 12.765625 -39.78125 14.628906 -39.636719 15.96875 -39.300781 C 17.308594 -38.96875 18.40625 -38.441406 19.269531 -37.722656 C 20.609375 -36.671875 21.230469 -35.332031 21.230469 -33.707031 C 21.230469 -32.320312 20.894531 -31.125 20.273438 -30.027344 C 19.601562 -28.925781 18.742188 -27.921875 17.644531 -26.917969 C 16.542969 -25.914062 15.300781 -24.863281 13.914062 -23.8125 C 12.765625 -22.949219 11.617188 -21.992188 10.421875 -20.988281 Z M 10.421875 -20.988281 "/></g></g></g><g fill="#2a4b7e" fill-opacity="1"><g transform="translate(193.248365, 216.675473)"><g><path d="M 31.605469 -0.09375 L 31.605469 -1.003906 C 30.933594 -1.671875 30.3125 -2.484375 29.738281 -3.441406 C 29.117188 -4.445312 28.640625 -5.738281 28.304688 -7.316406 L 19.890625 -47 L 10.472656 -47 L 10.472656 -46.09375 C 11.234375 -45.375 11.617188 -44.371094 11.617188 -43.078125 C 11.617188 -42.171875 11.476562 -41.121094 11.1875 -39.875 L 4.304688 -7.316406 C 3.679688 -4.589844 2.535156 -2.484375 0.957031 -1.003906 L 0.957031 -0.09375 L 12.191406 -0.09375 L 12.191406 -1.003906 C 11.378906 -1.722656 10.996094 -2.773438 10.996094 -4.160156 C 10.996094 -5.019531 11.09375 -6.023438 11.378906 -7.269531 C 11.617188 -8.464844 11.859375 -9.707031 12.097656 -10.902344 L 20.511719 -10.902344 C 20.75 -9.707031 20.988281 -8.464844 21.230469 -7.269531 C 21.46875 -6.023438 21.5625 -5.019531 21.5625 -4.160156 C 21.5625 -2.773438 21.179688 -1.722656 20.367188 -1.003906 L 20.367188 -0.09375 Z M 19.078125 -18.121094 L 13.484375 -18.121094 L 16.304688 -32.417969 Z M 19.078125 -18.121094 "/></g></g></g><g fill="#2a4b7e" fill-opacity="1"><g transform="translate(228.255709, 216.675473)"><g><path d="M 26.296875 -0.09375 L 24.480469 -9.132812 L 23.570312 -9.132812 C 22.949219 -8.464844 22.136719 -7.984375 21.179688 -7.699219 C 20.226562 -7.457031 18.933594 -7.316406 17.261719 -7.316406 L 10.421875 -7.316406 L 10.421875 -21.753906 L 16.160156 -21.753906 C 17.835938 -21.753906 19.171875 -21.613281 20.128906 -21.324219 C 21.039062 -21.039062 21.851562 -20.609375 22.472656 -19.9375 L 23.378906 -19.9375 L 21.230469 -30.742188 L 20.320312 -30.742188 C 19.699219 -30.121094 18.886719 -29.644531 17.929688 -29.355469 C 16.972656 -29.117188 15.683594 -28.976562 14.007812 -28.976562 L 10.421875 -28.976562 L 10.421875 -39.78125 L 17.261719 -39.78125 C 18.933594 -39.78125 20.226562 -39.636719 21.179688 -39.398438 C 22.136719 -39.109375 22.949219 -38.632812 23.570312 -37.964844 L 24.480469 -37.964844 L 26.296875 -47 L 1.386719 -47 L 1.386719 -46.09375 C 2.054688 -45.46875 2.484375 -44.65625 2.773438 -43.75 C 3.058594 -42.792969 3.203125 -41.453125 3.203125 -39.78125 L 3.203125 -7.316406 C 3.203125 -5.640625 3.058594 -4.351562 2.773438 -3.394531 C 2.484375 -2.4375 2.054688 -1.625 1.386719 -1.003906 L 1.386719 -0.09375 Z M 26.296875 -0.09375 "/></g></g></g><g fill="#2a4b7e" fill-opacity="1"><g transform="translate(257.908235, 216.675473)"><g><path d="M 14.964844 0.335938 C 17.402344 0.335938 19.652344 -0.238281 21.804688 -1.386719 C 23.90625 -2.535156 25.628906 -4.113281 26.964844 -6.121094 C 28.257812 -8.128906 28.925781 -10.375 28.925781 -12.957031 C 28.925781 -16.832031 27.730469 -19.984375 25.390625 -22.425781 C 23.429688 -24.335938 21.230469 -25.960938 18.789062 -27.253906 L 16.351562 -28.6875 C 14.535156 -29.738281 13.101562 -30.695312 12.050781 -31.558594 C 10.855469 -32.5625 10.28125 -33.898438 10.28125 -35.523438 C 10.28125 -36.625 10.710938 -37.675781 11.617188 -38.632812 C 12.480469 -39.636719 13.769531 -40.113281 15.492188 -40.113281 C 16.78125 -40.113281 17.882812 -39.683594 18.839844 -38.824219 C 19.792969 -37.914062 20.273438 -37.054688 20.273438 -36.148438 L 20.226562 -35.765625 L 20.75 -35.046875 L 28.019531 -40.355469 C 27.492188 -41.121094 26.726562 -42.027344 25.675781 -43.078125 C 24.671875 -44.179688 23.332031 -45.136719 21.660156 -46.042969 C 20.035156 -46.90625 18.074219 -47.335938 15.777344 -47.335938 C 13.148438 -47.335938 10.902344 -46.714844 8.988281 -45.46875 C 7.125 -44.226562 5.640625 -42.695312 4.589844 -40.785156 C 3.585938 -38.871094 3.058594 -36.960938 3.058594 -34.953125 C 3.058594 -32.703125 3.585938 -30.792969 4.589844 -29.261719 C 5.59375 -27.730469 6.835938 -26.394531 8.320312 -25.339844 C 9.800781 -24.242188 11.234375 -23.332031 12.671875 -22.519531 L 14.25 -21.5625 C 17.070312 -19.9375 19.03125 -18.550781 20.128906 -17.453125 C 20.65625 -16.925781 21.085938 -16.351562 21.324219 -15.730469 C 21.5625 -15.109375 21.707031 -14.199219 21.707031 -12.957031 C 21.707031 -11.1875 21.039062 -9.707031 19.746094 -8.558594 C 18.457031 -7.457031 16.878906 -6.886719 14.964844 -6.886719 C 11.234375 -6.886719 9.035156 -8.320312 8.367188 -11.234375 L 8.367188 -11.667969 C 8.367188 -12.671875 8.511719 -13.53125 8.84375 -14.296875 C 9.179688 -15.011719 9.707031 -15.347656 10.472656 -15.347656 L 10.566406 -15.347656 L 11.234375 -15.96875 C 9.515625 -17.785156 8.320312 -18.980469 7.746094 -19.652344 C 7.171875 -20.273438 6.261719 -21.230469 5.066406 -22.519531 C 2.34375 -19.890625 0.957031 -16.6875 0.957031 -12.957031 C 0.957031 -9.226562 2.34375 -6.070312 5.117188 -3.492188 C 7.839844 -0.957031 11.140625 0.335938 14.964844 0.335938 Z M 14.964844 0.335938 "/></g></g></g><g fill="#2a4b7e" fill-opacity="1"><g transform="translate(290.23817, 216.675473)"><g><path d="M 26.296875 -0.09375 L 24.480469 -9.132812 L 23.570312 -9.132812 C 22.949219 -8.464844 22.136719 -7.984375 21.179688 -7.699219 C 20.226562 -7.457031 18.933594 -7.316406 17.261719 -7.316406 L 10.421875 -7.316406 L 10.421875 -21.753906 L 16.160156 -21.753906 C 17.835938 -21.753906 19.171875 -21.613281 20.128906 -21.324219 C 21.039062 -21.039062 21.851562 -20.609375 22.472656 -19.9375 L 23.378906 -19.9375 L 21.230469 -30.742188 L 20.320312 -30.742188 C 19.699219 -30.121094 18.886719 -29.644531 17.929688 -29.355469 C 16.972656 -29.117188 15.683594 -28.976562 14.007812 -28.976562 L 10.421875 -28.976562 L 10.421875 -39.78125 L 17.261719 -39.78125 C 18.933594 -39.78125 20.226562 -39.636719 21.179688 -39.398438 C 22.136719 -39.109375 22.949219 -38.632812 23.570312 -37.964844 L 24.480469 -37.964844 L 26.296875 -47 L 1.386719 -47 L 1.386719 -46.09375 C 2.054688 -45.46875 2.484375 -44.65625 2.773438 -43.75 C 3.058594 -42.792969 3.203125 -41.453125 3.203125 -39.78125 L 3.203125 -7.316406 C 3.203125 -5.640625 3.058594 -4.351562 2.773438 -3.394531 C 2.484375 -2.4375 2.054688 -1.625 1.386719 -1.003906 L 1.386719 -0.09375 Z M 26.296875 -0.09375 "/></g></g></g><g clip-path="url(#b2c1724ff5)"><g clip-path="url(#7fa0e5f6cd)"><g clip-path="url(#bfc44f358b)"><path fill="#2a4b7e" d="M 91.707031 124.203125 C 91.761719 124.808594 91.609375 125.296875 91.464844 125.773438 C 90.644531 128.507812 89.820312 131.242188 88.929688 133.957031 C 88.03125 136.6875 87.292969 139.46875 86.429688 142.210938 C 85.441406 145.351562 85 148.632812 83.90625 151.746094 C 83.808594 152.027344 83.792969 152.511719 83.382812 152.402344 C 83.007812 152.300781 83.152344 151.839844 83.230469 151.554688 C 83.789062 149.527344 84.339844 147.492188 84.949219 145.480469 C 85.894531 142.347656 86.828125 139.21875 87.667969 136.054688 C 88.210938 134.003906 88.925781 132 89.582031 129.980469 C 90.117188 128.335938 90.679688 126.703125 91.238281 125.066406 C 91.332031 124.785156 91.386719 124.480469 91.707031 124.203125 Z M 29.414062 160.078125 C 30.984375 160.597656 32.558594 161.113281 34.128906 161.632812 C 39.808594 163.527344 45.621094 164.957031 51.332031 166.746094 C 52.386719 167.078125 53.472656 167.328125 54.574219 167.492188 C 54.753906 167.515625 54.988281 167.570312 55.0625 167.339844 C 55.152344 167.0625 54.894531 166.980469 54.714844 166.914062 C 54.199219 166.734375 53.683594 166.542969 53.152344 166.429688 C 46.9375 165.125 41.003906 162.824219 34.863281 161.238281 C 32.957031 160.742188 31.074219 160.144531 29.046875 159.804688 C 29.15625 160.027344 29.296875 160.039062 29.414062 160.078125 Z M 121.140625 149.738281 C 118.675781 150.945312 116.199219 152.128906 113.753906 153.371094 C 111.335938 154.59375 109.023438 156 106.734375 157.449219 C 104.632812 158.777344 102.402344 159.871094 100.230469 161.070312 C 99.144531 161.671875 98.070312 162.296875 97 162.925781 C 96.820312 163.03125 96.484375 163.136719 96.597656 163.378906 C 96.742188 163.6875 97.042969 163.433594 97.238281 163.363281 C 97.910156 163.113281 98.527344 162.742188 99.125 162.351562 C 101.804688 160.605469 104.59375 159.050781 107.449219 157.609375 C 112.085938 155.269531 116.554688 152.628906 121.097656 150.117188 C 121.289062 150.011719 121.507812 149.921875 121.609375 149.667969 C 121.410156 149.59375 121.273438 149.671875 121.140625 149.738281 Z M 52.074219 127.902344 C 52.96875 129.851562 53.925781 131.769531 54.933594 133.664062 C 56.945312 137.449219 59.238281 141.074219 61.28125 144.84375 C 62.742188 147.542969 64.054688 150.3125 65.382812 153.074219 C 65.53125 153.375 65.65625 153.699219 65.941406 153.910156 C 66.035156 153.980469 66.132812 154.042969 66.246094 153.972656 C 66.363281 153.902344 66.359375 153.78125 66.328125 153.671875 C 66.285156 153.527344 66.238281 153.382812 66.167969 153.25 C 65.375 151.671875 64.601562 150.082031 63.78125 148.519531 C 62.425781 145.9375 60.9375 143.433594 59.496094 140.898438 C 57.878906 138.058594 56.371094 135.152344 54.804688 132.28125 C 53.898438 130.617188 53.050781 128.914062 51.949219 127.277344 C 51.902344 127.566406 51.996094 127.734375 52.074219 127.902344 Z M 106.519531 138.632812 C 102.539062 143.144531 98.550781 147.644531 94.589844 152.171875 C 93.523438 153.386719 92.539062 154.671875 91.527344 155.933594 C 91.378906 156.113281 91.144531 156.347656 91.402344 156.566406 C 91.648438 156.777344 91.800781 156.484375 91.949219 156.339844 C 92.507812 155.785156 93.058594 155.21875 93.558594 154.605469 C 97.609375 149.609375 101.804688 144.738281 105.96875 139.839844 C 106.5 139.214844 107.003906 138.566406 107.398438 137.84375 C 107.011719 138.023438 106.777344 138.339844 106.519531 138.632812 Z M 33.953125 196.296875 C 36.902344 194.839844 39.871094 193.417969 42.816406 191.957031 C 46.640625 190.058594 50.371094 187.984375 54.296875 186.289062 C 55.089844 185.945312 55.84375 185.511719 56.523438 184.96875 C 56.6875 184.835938 56.953125 184.6875 56.804688 184.429688 C 56.652344 184.167969 56.382812 184.308594 56.199219 184.410156 C 55.015625 185.066406 53.761719 185.585938 52.605469 186.296875 C 50.824219 187.386719 49 188.410156 47.097656 189.261719 C 43.109375 191.046875 39.222656 193.023438 35.421875 195.171875 C 34.800781 195.523438 34.152344 195.863281 33.65625 196.414062 C 33.753906 196.375 33.855469 196.34375 33.953125 196.296875 Z M 41.371094 146.1875 C 44.324219 148.417969 47.175781 150.785156 50.039062 153.132812 C 52.523438 155.171875 54.964844 157.261719 57.429688 159.324219 C 57.746094 159.589844 58.101562 159.808594 58.441406 160.039062 C 58.570312 160.128906 58.722656 160.195312 58.851562 160.058594 C 58.992188 159.910156 58.945312 159.738281 58.828125 159.597656 C 58.734375 159.484375 58.621094 159.378906 58.507812 159.285156 C 57.886719 158.792969 57.277344 158.289062 56.640625 157.824219 C 53.382812 155.429688 50.25 152.882812 47.253906 150.167969 C 45.46875 148.550781 43.640625 146.980469 41.554688 145.753906 C 41.300781 145.605469 41.054688 145.414062 40.699219 145.445312 C 40.8125 145.8125 41.109375 145.992188 41.371094 146.1875 Z M 32.511719 179.164062 C 36.089844 178.679688 39.664062 178.171875 43.242188 177.707031 C 46.222656 177.316406 49.234375 177.203125 52.226562 176.910156 C 52.808594 176.851562 53.382812 176.761719 53.949219 176.613281 C 54.121094 176.570312 54.285156 176.480469 54.261719 176.273438 C 54.234375 176.03125 54.042969 175.992188 53.839844 176.007812 C 53.730469 176.011719 53.617188 176.03125 53.507812 176.050781 C 50.039062 176.636719 46.550781 177.046875 43.046875 177.347656 C 38.980469 177.703125 34.921875 178.113281 30.921875 178.953125 C 30.628906 179.015625 30.324219 179.03125 29.96875 179.324219 C 30.921875 179.378906 31.71875 179.273438 32.511719 179.164062 Z M 71.523438 127.753906 C 71.589844 129.070312 71.765625 130.375 71.945312 131.675781 C 72.492188 135.714844 73.066406 139.753906 73.605469 143.792969 C 73.917969 146.140625 74.167969 148.496094 74.472656 150.84375 C 74.507812 151.113281 74.472656 151.617188 74.933594 151.535156 C 75.363281 151.453125 75.199219 151.015625 75.152344 150.722656 C 74.882812 149.109375 74.542969 147.503906 74.320312 145.886719 C 73.613281 140.75 72.949219 135.605469 72.253906 130.46875 C 72.097656 129.320312 71.988281 128.160156 71.640625 126.992188 C 71.453125 127.269531 71.511719 127.515625 71.523438 127.753906 Z M 82.191406 136.953125 C 81.699219 140.054688 81.433594 143.1875 80.820312 146.269531 C 80.523438 147.765625 80.363281 149.28125 80.15625 150.789062 C 80.113281 151.09375 79.945312 151.578125 80.390625 151.65625 C 80.859375 151.738281 80.816406 151.21875 80.871094 150.917969 C 80.972656 150.347656 81.042969 149.765625 81.089844 149.1875 C 81.242188 147.21875 81.375 145.242188 81.757812 143.304688 C 82.242188 140.847656 82.5625 138.367188 82.863281 135.886719 C 82.933594 135.320312 83.039062 134.742188 82.824219 134.160156 C 82.472656 135.066406 82.34375 136.011719 82.191406 136.953125 Z M 40.585938 188.035156 C 44.792969 186.324219 49.011719 184.628906 53.324219 183.191406 C 53.996094 182.964844 54.699219 182.789062 55.304688 182.390625 C 55.472656 182.277344 55.746094 182.132812 55.582031 181.859375 C 55.449219 181.636719 55.207031 181.75 55.019531 181.820312 C 54.171875 182.125 53.3125 182.40625 52.480469 182.753906 C 49.449219 184.027344 46.367188 185.160156 43.308594 186.355469 C 41.78125 186.953125 40.378906 187.773438 39.003906 188.640625 C 39.539062 188.441406 40.066406 188.246094 40.585938 188.035156 Z M 93.136719 136.101562 C 93.066406 136.230469 92.988281 136.355469 92.925781 136.492188 C 91.988281 138.648438 91.042969 140.800781 90.117188 142.960938 C 89.550781 144.273438 89.03125 145.605469 88.457031 146.914062 C 87.78125 148.445312 87.066406 149.960938 86.378906 151.484375 C 86.167969 151.949219 86 152.429688 85.917969 152.933594 C 85.890625 153.109375 85.875 153.289062 86.085938 153.359375 C 86.289062 153.425781 86.402344 153.289062 86.492188 153.136719 C 86.546875 153.042969 86.59375 152.9375 86.632812 152.832031 C 86.953125 151.96875 87.253906 151.097656 87.597656 150.242188 C 88.4375 148.167969 89.222656 146.066406 90.167969 144.039062 C 91.167969 141.886719 92.082031 139.703125 92.882812 137.472656 C 93.039062 137.035156 93.242188 136.613281 93.425781 136.1875 C 93.328125 136.15625 93.234375 136.128906 93.136719 136.101562 Z M 37.851562 168.210938 C 43 169.078125 48.207031 169.550781 53.34375 170.488281 C 53.5625 170.527344 53.792969 170.515625 54.015625 170.503906 C 54.1875 170.496094 54.378906 170.445312 54.378906 170.230469 C 54.378906 170 54.179688 169.992188 54.011719 169.972656 C 53.359375 169.890625 52.707031 169.808594 52.050781 169.738281 C 48.425781 169.355469 44.855469 168.585938 41.226562 168.214844 C 39.929688 168.082031 38.632812 167.84375 37.230469 167.984375 C 37.472656 168.183594 37.667969 168.179688 37.851562 168.210938 Z M 41.414062 159.578125 C 44.25 160.882812 47.222656 161.84375 50.085938 163.078125 C 51.707031 163.777344 53.339844 164.453125 54.976562 165.113281 C 55.238281 165.214844 55.671875 165.472656 55.8125 165.058594 C 55.941406 164.679688 55.453125 164.652344 55.203125 164.554688 C 52.503906 163.507812 49.738281 162.621094 47.136719 161.347656 C 45.160156 160.378906 43.117188 159.695312 40.863281 159.257812 C 41.054688 159.492188 41.25 159.503906 41.414062 159.578125 Z M 63.625 139.554688 C 63.785156 140.035156 63.917969 140.527344 64.121094 140.988281 C 65.691406 144.53125 67.011719 148.167969 68.238281 151.835938 C 68.308594 152.050781 68.414062 152.253906 68.523438 152.449219 C 68.597656 152.582031 68.726562 152.6875 68.894531 152.621094 C 69.066406 152.550781 69.085938 152.390625 69.042969 152.238281 C 68.949219 151.875 68.871094 151.503906 68.734375 151.15625 C 67.421875 147.796875 66.105469 144.441406 64.671875 141.128906 C 64.40625 140.523438 64.09375 139.933594 63.667969 139.328125 C 63.640625 139.457031 63.609375 139.511719 63.625 139.554688 Z M 55.34375 145.511719 C 56.371094 146.992188 57.558594 148.355469 58.625 149.804688 C 59.835938 151.457031 61.003906 153.136719 62.195312 154.796875 C 62.359375 155.027344 62.539062 155.25 62.730469 155.453125 C 62.878906 155.609375 63.054688 155.835938 63.300781 155.664062 C 63.558594 155.484375 63.386719 155.257812 63.277344 155.066406 C 63.183594 154.902344 63.066406 154.753906 62.953125 154.605469 C 60.992188 152.089844 59.042969 149.5625 57.070312 147.054688 C 56.507812 146.34375 55.984375 145.585938 55.183594 145.011719 C 55.132812 145.292969 55.261719 145.394531 55.34375 145.511719 Z M 43.511719 173.875 C 44.882812 173.871094 46.253906 173.859375 47.621094 173.804688 C 49.425781 173.726562 51.222656 174.035156 53.027344 173.917969 C 53.324219 173.898438 53.628906 173.90625 53.90625 173.753906 C 54.019531 173.691406 54.144531 173.617188 54.109375 173.457031 C 54.082031 173.3125 53.972656 173.234375 53.828125 173.222656 C 53.472656 173.195312 53.117188 173.15625 52.761719 173.160156 C 49.703125 173.226562 46.640625 173.296875 43.582031 173.378906 C 43.183594 173.390625 42.761719 173.375 42.359375 173.617188 C 42.722656 173.929688 43.136719 173.875 43.511719 173.875 Z M 69.101562 141.457031 C 69.367188 142.667969 69.585938 143.894531 69.929688 145.082031 C 70.496094 147.050781 70.757812 149.097656 71.488281 151.019531 C 71.605469 151.328125 71.644531 151.882812 72.082031 151.769531 C 72.597656 151.632812 72.332031 151.109375 72.214844 150.800781 C 71.296875 148.464844 70.839844 145.996094 70.179688 143.589844 C 69.921875 142.660156 69.550781 141.773438 69.039062 140.925781 C 69.058594 141.101562 69.0625 141.285156 69.101562 141.457031 Z M 108.820312 151.539062 C 108.125 152.011719 107.40625 152.460938 106.730469 152.964844 C 104.277344 154.800781 101.761719 156.546875 99.171875 158.1875 C 98 158.933594 96.816406 159.667969 95.75 160.570312 C 95.570312 160.722656 95.257812 160.910156 95.425781 161.148438 C 95.628906 161.4375 95.863281 161.113281 96.035156 160.992188 C 97.429688 160.003906 98.796875 158.972656 100.207031 158.003906 C 102.625 156.347656 105.03125 154.675781 107.378906 152.917969 C 107.910156 152.519531 108.390625 152.058594 108.894531 151.628906 C 108.871094 151.597656 108.847656 151.570312 108.820312 151.539062 Z M 77.203125 140.511719 C 77.128906 142.519531 77.277344 144.53125 77.164062 146.539062 C 77.097656 147.777344 77.152344 149.019531 77.160156 150.257812 C 77.160156 150.523438 77.179688 150.785156 77.289062 151.03125 C 77.351562 151.167969 77.417969 151.324219 77.609375 151.289062 C 77.765625 151.261719 77.796875 151.109375 77.800781 150.980469 C 77.824219 150.53125 77.851562 150.082031 77.832031 149.632812 C 77.734375 147.230469 77.59375 144.832031 77.730469 142.421875 C 77.777344 141.605469 77.8125 140.769531 77.636719 139.953125 C 77.609375 139.828125 77.640625 139.617188 77.371094 139.707031 C 77.21875 139.949219 77.214844 140.234375 77.203125 140.511719 Z M 53.527344 151.449219 C 55.503906 153.472656 57.484375 155.5 59.46875 157.523438 C 59.679688 157.738281 59.890625 157.953125 60.167969 158.082031 C 60.335938 158.160156 60.507812 158.167969 60.628906 158.007812 C 60.734375 157.867188 60.679688 157.714844 60.582031 157.59375 C 60.441406 157.417969 60.296875 157.246094 60.136719 157.089844 C 58.101562 155.085938 55.953125 153.210938 53.835938 151.300781 C 53.679688 151.160156 53.539062 150.957031 53.265625 150.984375 C 53.238281 151.214844 53.402344 151.320312 53.527344 151.449219 Z M 48.839844 157.851562 C 51.039062 159.046875 53.0625 160.527344 55.25 161.738281 C 55.742188 162.011719 56.257812 162.246094 56.769531 162.484375 C 56.921875 162.554688 57.117188 162.59375 57.222656 162.410156 C 57.324219 162.226562 57.195312 162.082031 57.054688 161.976562 C 56.886719 161.855469 56.710938 161.75 56.527344 161.652344 C 54.148438 160.402344 51.832031 159.039062 49.519531 157.664062 C 49.03125 157.375 48.507812 157.191406 47.800781 157.015625 C 48.175781 157.441406 48.5 157.664062 48.839844 157.851562 Z M 45.105469 181.429688 C 45.15625 181.648438 45.390625 181.5625 45.539062 181.546875 C 45.855469 181.519531 46.175781 181.480469 46.484375 181.390625 C 48.273438 180.882812 50.09375 180.5 51.921875 180.148438 C 52.695312 180 53.457031 179.777344 54.214844 179.5625 C 54.4375 179.496094 54.738281 179.410156 54.652344 179.082031 C 54.566406 178.734375 54.261719 178.777344 54 178.824219 C 53.742188 178.871094 53.488281 178.941406 53.238281 179.027344 C 51.460938 179.640625 49.648438 180.140625 47.804688 180.507812 C 46.992188 180.667969 46.183594 180.851562 45.378906 181.164062 C 45.320312 181.265625 45.058594 181.242188 45.105469 181.429688 Z M 100.847656 152.589844 C 100.75 152.640625 100.644531 152.679688 100.554688 152.746094 C 98.714844 154.109375 96.871094 155.476562 95.035156 156.847656 C 94.496094 157.253906 93.929688 157.632812 93.507812 158.175781 C 93.375 158.34375 93.160156 158.554688 93.367188 158.769531 C 93.574219 158.980469 93.789062 158.765625 93.960938 158.636719 C 95.636719 157.363281 97.28125 156.050781 98.835938 154.628906 C 99.535156 153.984375 100.222656 153.324219 100.914062 152.675781 C 100.894531 152.644531 100.871094 152.617188 100.847656 152.589844 Z M 93.75 147.601562 C 92.363281 149.539062 90.972656 151.476562 89.601562 153.421875 C 89.367188 153.757812 89.195312 154.140625 89.003906 154.503906 C 88.921875 154.65625 88.855469 154.839844 89.023438 154.964844 C 89.226562 155.117188 89.371094 154.949219 89.5 154.816406 C 89.578125 154.734375 89.640625 154.640625 89.707031 154.546875 C 91.296875 152.425781 92.609375 150.125 93.964844 147.855469 C 94.078125 147.671875 94.21875 147.480469 94.148438 147.226562 C 93.925781 147.265625 93.851562 147.457031 93.75 147.601562 Z M 42.109375 182.292969 C 42.277344 182.613281 42.5625 182.671875 42.875 182.515625 C 43.148438 182.378906 43.253906 182.148438 43.101562 181.863281 C 42.933594 181.546875 42.644531 181.519531 42.339844 181.617188 C 42.070312 181.785156 41.96875 182.019531 42.109375 182.292969 Z M 39.910156 173.105469 C 39.644531 173.253906 39.558594 173.515625 39.710938 173.78125 C 39.875 174.0625 40.148438 174.136719 40.441406 173.980469 C 40.71875 173.828125 40.757812 173.585938 40.628906 173.292969 C 40.449219 173.03125 40.195312 172.941406 39.910156 173.105469 Z M 68.351562 138.082031 C 68.089844 138.226562 68.046875 138.503906 68.15625 138.765625 C 68.285156 139.0625 68.539062 139.191406 68.839844 139.042969 C 69.117188 138.902344 69.148438 138.648438 69.027344 138.351562 C 68.867188 138.128906 68.664062 137.910156 68.351562 138.082031 Z M 104.707031 148.566406 C 104.4375 148.734375 104.316406 148.980469 104.488281 149.277344 C 104.644531 149.554688 104.90625 149.570312 105.160156 149.417969 C 105.433594 149.25 105.527344 149.011719 105.378906 148.683594 C 105.199219 148.453125 104.964844 148.402344 104.707031 148.566406 Z M 67.828125 135.132812 C 67.535156 135.316406 67.484375 135.609375 67.644531 135.910156 C 67.78125 136.164062 68.019531 136.222656 68.265625 136.089844 C 68.570312 135.917969 68.554688 135.648438 68.410156 135.335938 C 68.277344 135.152344 68.09375 134.964844 67.828125 135.132812 Z M 95.722656 145.027344 C 95.585938 144.777344 95.351562 144.71875 95.101562 144.855469 C 94.839844 145 94.726562 145.242188 94.886719 145.511719 C 95.035156 145.757812 95.277344 145.769531 95.53125 145.65625 C 95.753906 145.496094 95.859375 145.28125 95.722656 145.027344 Z M 49.792969 148 C 49.917969 148.25 50.132812 148.359375 50.398438 148.246094 C 50.675781 148.121094 50.769531 147.882812 50.644531 147.597656 C 50.519531 147.3125 50.285156 147.238281 49.972656 147.335938 C 49.75 147.5 49.652344 147.722656 49.792969 148 Z M 45.652344 156.355469 C 45.808594 156.625 46.054688 156.683594 46.320312 156.539062 C 46.554688 156.414062 46.605469 156.191406 46.476562 155.964844 C 46.324219 155.695312 46.085938 155.648438 45.8125 155.769531 C 45.601562 155.925781 45.519531 156.121094 45.652344 156.355469 Z M 102.367188 151.132812 C 102.488281 151.363281 102.703125 151.429688 102.9375 151.3125 C 103.191406 151.183594 103.269531 150.960938 103.15625 150.703125 C 103.042969 150.449219 102.820312 150.453125 102.585938 150.535156 C 102.351562 150.675781 102.230469 150.871094 102.367188 151.132812 Z M 39.671875 182.390625 C 39.445312 182.53125 39.386719 182.742188 39.53125 182.96875 C 39.675781 183.195312 39.898438 183.210938 40.121094 183.089844 C 40.351562 182.964844 40.417969 182.769531 40.308594 182.523438 C 40.132812 182.292969 39.917969 182.234375 39.671875 182.390625 Z M 96.578125 142.703125 C 96.328125 142.839844 96.242188 143.070312 96.394531 143.320312 C 96.519531 143.527344 96.730469 143.558594 96.9375 143.441406 C 97.167969 143.308594 97.210938 143.101562 97.113281 142.863281 C 96.976562 142.664062 96.789062 142.589844 96.578125 142.703125 Z M 51.589844 149.136719 C 51.363281 149.269531 51.3125 149.484375 51.441406 149.714844 C 51.558594 149.925781 51.753906 149.980469 51.964844 149.871094 C 52.199219 149.75 52.253906 149.546875 52.15625 149.277344 C 52.015625 149.097656 51.824219 149 51.589844 149.136719 Z M 77.117188 137.492188 C 76.90625 137.605469 76.824219 137.785156 76.929688 138.011719 C 77.027344 138.238281 77.21875 138.3125 77.4375 138.214844 C 77.679688 138.105469 77.726562 137.890625 77.640625 137.628906 C 77.511719 137.449219 77.332031 137.371094 77.117188 137.492188 Z M 77.117188 137.492188 " fill-opacity="1" fill-rule="nonzero"/><path fill="#2a4b7e" d="M 91.707031 124.203125 C 91.761719 124.808594 91.609375 125.296875 91.464844 125.773438 C 90.644531 128.507812 89.820312 131.242188 88.929688 133.957031 C 88.03125 136.6875 87.292969 139.46875 86.429688 142.210938 C 85.441406 145.351562 85 148.632812 83.90625 151.746094 C 83.808594 152.027344 83.792969 152.511719 83.382812 152.402344 C 83.007812 152.300781 83.152344 151.839844 83.230469 151.554688 C 83.789062 149.527344 84.339844 147.492188 84.949219 145.480469 C 85.894531 142.347656 86.828125 139.21875 87.667969 136.054688 C 88.210938 134.003906 88.925781 132 89.582031 129.980469 C 90.117188 128.335938 90.679688 126.703125 91.238281 125.066406 C 91.332031 124.785156 91.386719 124.480469 91.707031 124.203125 Z M 29.414062 160.078125 C 30.984375 160.597656 32.558594 161.113281 34.128906 161.632812 C 39.808594 163.527344 45.621094 164.957031 51.332031 166.746094 C 52.386719 167.078125 53.472656 167.328125 54.574219 167.492188 C 54.753906 167.515625 54.988281 167.570312 55.0625 167.339844 C 55.152344 167.0625 54.894531 166.980469 54.714844 166.914062 C 54.199219 166.734375 53.683594 166.542969 53.152344 166.429688 C 46.9375 165.125 41.003906 162.824219 34.863281 161.238281 C 32.957031 160.742188 31.074219 160.144531 29.046875 159.804688 C 29.15625 160.027344 29.296875 160.039062 29.414062 160.078125 Z M 121.140625 149.738281 C 118.675781 150.945312 116.199219 152.128906 113.753906 153.371094 C 111.335938 154.59375 109.023438 156 106.734375 157.449219 C 104.632812 158.777344 102.402344 159.871094 100.230469 161.070312 C 99.144531 161.671875 98.070312 162.296875 97 162.925781 C 96.820312 163.03125 96.484375 163.136719 96.597656 163.378906 C 96.742188 163.6875 97.042969 163.433594 97.238281 163.363281 C 97.910156 163.113281 98.527344 162.742188 99.125 162.351562 C 101.804688 160.605469 104.59375 159.050781 107.449219 157.609375 C 112.085938 155.269531 116.554688 152.628906 121.097656 150.117188 C 121.289062 150.011719 121.507812 149.921875 121.609375 149.667969 C 121.410156 149.59375 121.273438 149.671875 121.140625 149.738281 Z M 52.074219 127.902344 C 52.96875 129.851562 53.925781 131.769531 54.933594 133.664062 C 56.945312 137.449219 59.238281 141.074219 61.28125 144.84375 C 62.742188 147.542969 64.054688 150.3125 65.382812 153.074219 C 65.53125 153.375 65.65625 153.699219 65.941406 153.910156 C 66.035156 153.980469 66.132812 154.042969 66.246094 153.972656 C 66.363281 153.902344 66.359375 153.78125 66.328125 153.671875 C 66.285156 153.527344 66.238281 153.382812 66.167969 153.25 C 65.375 151.671875 64.601562 150.082031 63.78125 148.519531 C 62.425781 145.9375 60.9375 143.433594 59.496094 140.898438 C 57.878906 138.058594 56.371094 135.152344 54.804688 132.28125 C 53.898438 130.617188 53.050781 128.914062 51.949219 127.277344 C 51.902344 127.566406 51.996094 127.734375 52.074219 127.902344 Z M 106.519531 138.632812 C 102.539062 143.144531 98.550781 147.644531 94.589844 152.171875 C 93.523438 153.386719 92.539062 154.671875 91.527344 155.933594 C 91.378906 156.113281 91.144531 156.347656 91.402344 156.566406 C 91.648438 156.777344 91.800781 156.484375 91.949219 156.339844 C 92.507812 155.785156 93.058594 155.21875 93.558594 154.605469 C 97.609375 149.609375 101.804688 144.738281 105.96875 139.839844 C 106.5 139.214844 107.003906 138.566406 107.398438 137.84375 C 107.011719 138.023438 106.777344 138.339844 106.519531 138.632812 Z M 33.953125 196.296875 C 36.902344 194.839844 39.871094 193.417969 42.816406 191.957031 C 46.640625 190.058594 50.371094 187.984375 54.296875 186.289062 C 55.089844 185.945312 55.84375 185.511719 56.523438 184.96875 C 56.6875 184.835938 56.953125 184.6875 56.804688 184.429688 C 56.652344 184.167969 56.382812 184.308594 56.199219 184.410156 C 55.015625 185.066406 53.761719 185.585938 52.605469 186.296875 C 50.824219 187.386719 49 188.410156 47.097656 189.261719 C 43.109375 191.046875 39.222656 193.023438 35.421875 195.171875 C 34.800781 195.523438 34.152344 195.863281 33.65625 196.414062 C 33.753906 196.375 33.855469 196.34375 33.953125 196.296875 Z M 41.371094 146.1875 C 44.324219 148.417969 47.175781 150.785156 50.039062 153.132812 C 52.523438 155.171875 54.964844 157.261719 57.429688 159.324219 C 57.746094 159.589844 58.101562 159.808594 58.441406 160.039062 C 58.570312 160.128906 58.722656 160.195312 58.851562 160.058594 C 58.992188 159.910156 58.945312 159.738281 58.828125 159.597656 C 58.734375 159.484375 58.621094 159.378906 58.507812 159.285156 C 57.886719 158.792969 57.277344 158.289062 56.640625 157.824219 C 53.382812 155.429688 50.25 152.882812 47.253906 150.167969 C 45.46875 148.550781 43.640625 146.980469 41.554688 145.753906 C 41.300781 145.605469 41.054688 145.414062 40.699219 145.445312 C 40.8125 145.8125 41.109375 145.992188 41.371094 146.1875 Z M 32.511719 179.164062 C 36.089844 178.679688 39.664062 178.171875 43.242188 177.707031 C 46.222656 177.316406 49.234375 177.203125 52.226562 176.910156 C 52.808594 176.851562 53.382812 176.761719 53.949219 176.613281 C 54.121094 176.570312 54.285156 176.480469 54.261719 176.273438 C 54.234375 176.03125 54.042969 175.992188 53.839844 176.007812 C 53.730469 176.011719 53.617188 176.03125 53.507812 176.050781 C 50.039062 176.636719 46.550781 177.046875 43.046875 177.347656 C 38.980469 177.703125 34.921875 178.113281 30.921875 178.953125 C 30.628906 179.015625 30.324219 179.03125 29.96875 179.324219 C 30.921875 179.378906 31.71875 179.273438 32.511719 179.164062 Z M 71.523438 127.753906 C 71.589844 129.070312 71.765625 130.375 71.945312 131.675781 C 72.492188 135.714844 73.066406 139.753906 73.605469 143.792969 C 73.917969 146.140625 74.167969 148.496094 74.472656 150.84375 C 74.507812 151.113281 74.472656 151.617188 74.933594 151.535156 C 75.363281 151.453125 75.199219 151.015625 75.152344 150.722656 C 74.882812 149.109375 74.542969 147.503906 74.320312 145.886719 C 73.613281 140.75 72.949219 135.605469 72.253906 130.46875 C 72.097656 129.320312 71.988281 128.160156 71.640625 126.992188 C 71.453125 127.269531 71.511719 127.515625 71.523438 127.753906 Z M 82.191406 136.953125 C 81.699219 140.054688 81.433594 143.1875 80.820312 146.269531 C 80.523438 147.765625 80.363281 149.28125 80.15625 150.789062 C 80.113281 151.09375 79.945312 151.578125 80.390625 151.65625 C 80.859375 151.738281 80.816406 151.21875 80.871094 150.917969 C 80.972656 150.347656 81.042969 149.765625 81.089844 149.1875 C 81.242188 147.21875 81.375 145.242188 81.757812 143.304688 C 82.242188 140.847656 82.5625 138.367188 82.863281 135.886719 C 82.933594 135.320312 83.039062 134.742188 82.824219 134.160156 C 82.472656 135.066406 82.34375 136.011719 82.191406 136.953125 Z M 40.585938 188.035156 C 44.792969 186.324219 49.011719 184.628906 53.324219 183.191406 C 53.996094 182.964844 54.699219 182.789062 55.304688 182.390625 C 55.472656 182.277344 55.746094 182.132812 55.582031 181.859375 C 55.449219 181.636719 55.207031 181.75 55.019531 181.820312 C 54.171875 182.125 53.3125 182.40625 52.480469 182.753906 C 49.449219 184.027344 46.367188 185.160156 43.308594 186.355469 C 41.78125 186.953125 40.378906 187.773438 39.003906 188.640625 C 39.539062 188.441406 40.066406 188.246094 40.585938 188.035156 Z M 93.136719 136.101562 C 93.066406 136.230469 92.988281 136.355469 92.925781 136.492188 C 91.988281 138.648438 91.042969 140.800781 90.117188 142.960938 C 89.550781 144.273438 89.03125 145.605469 88.457031 146.914062 C 87.78125 148.445312 87.066406 149.960938 86.378906 151.484375 C 86.167969 151.949219 86 152.429688 85.917969 152.933594 C 85.890625 153.109375 85.875 153.289062 86.085938 153.359375 C 86.289062 153.425781 86.402344 153.289062 86.492188 153.136719 C 86.546875 153.042969 86.59375 152.9375 86.632812 152.832031 C 86.953125 151.96875 87.253906 151.097656 87.597656 150.242188 C 88.4375 148.167969 89.222656 146.066406 90.167969 144.039062 C 91.167969 141.886719 92.082031 139.703125 92.882812 137.472656 C 93.039062 137.035156 93.242188 136.613281 93.425781 136.1875 C 93.328125 136.15625 93.234375 136.128906 93.136719 136.101562 Z M 37.851562 168.210938 C 43 169.078125 48.207031 169.550781 53.34375 170.488281 C 53.5625 170.527344 53.792969 170.515625 54.015625 170.503906 C 54.1875 170.496094 54.378906 170.445312 54.378906 170.230469 C 54.378906 170 54.179688 169.992188 54.011719 169.972656 C 53.359375 169.890625 52.707031 169.808594 52.050781 169.738281 C 48.425781 169.355469 44.855469 168.585938 41.226562 168.214844 C 39.929688 168.082031 38.632812 167.84375 37.230469 167.984375 C 37.472656 168.183594 37.667969 168.179688 37.851562 168.210938 Z M 41.414062 159.578125 C 44.25 160.882812 47.222656 161.84375 50.085938 163.078125 C 51.707031 163.777344 53.339844 164.453125 54.976562 165.113281 C 55.238281 165.214844 55.671875 165.472656 55.8125 165.058594 C 55.941406 164.679688 55.453125 164.652344 55.203125 164.554688 C 52.503906 163.507812 49.738281 162.621094 47.136719 161.347656 C 45.160156 160.378906 43.117188 159.695312 40.863281 159.257812 C 41.054688 159.492188 41.25 159.503906 41.414062 159.578125 Z M 63.625 139.554688 C 63.785156 140.035156 63.917969 140.527344 64.121094 140.988281 C 65.691406 144.53125 67.011719 148.167969 68.238281 151.835938 C 68.308594 152.050781 68.414062 152.253906 68.523438 152.449219 C 68.597656 152.582031 68.726562 152.6875 68.894531 152.621094 C 69.066406 152.550781 69.085938 152.390625 69.042969 152.238281 C 68.949219 151.875 68.871094 151.503906 68.734375 151.15625 C 67.421875 147.796875 66.105469 144.441406 64.671875 141.128906 C 64.40625 140.523438 64.09375 139.933594 63.667969 139.328125 C 63.640625 139.457031 63.609375 139.511719 63.625 139.554688 Z M 55.34375 145.511719 C 56.371094 146.992188 57.558594 148.355469 58.625 149.804688 C 59.835938 151.457031 61.003906 153.136719 62.195312 154.796875 C 62.359375 155.027344 62.539062 155.25 62.730469 155.453125 C 62.878906 155.609375 63.054688 155.835938 63.300781 155.664062 C 63.558594 155.484375 63.386719 155.257812 63.277344 155.066406 C 63.183594 154.902344 63.066406 154.753906 62.953125 154.605469 C 60.992188 152.089844 59.042969 149.5625 57.070312 147.054688 C 56.507812 146.34375 55.984375 145.585938 55.183594 145.011719 C 55.132812 145.292969 55.261719 145.394531 55.34375 145.511719 Z M 43.511719 173.875 C 44.882812 173.871094 46.253906 173.859375 47.621094 173.804688 C 49.425781 173.726562 51.222656 174.035156 53.027344 173.917969 C 53.324219 173.898438 53.628906 173.90625 53.90625 173.753906 C 54.019531 173.691406 54.144531 173.617188 54.109375 173.457031 C 54.082031 173.3125 53.972656 173.234375 53.828125 173.222656 C 53.472656 173.195312 53.117188 173.15625 52.761719 173.160156 C 49.703125 173.226562 46.640625 173.296875 43.582031 173.378906 C 43.183594 173.390625 42.761719 173.375 42.359375 173.617188 C 42.722656 173.929688 43.136719 173.875 43.511719 173.875 Z M 69.101562 141.457031 C 69.367188 142.667969 69.585938 143.894531 69.929688 145.082031 C 70.496094 147.050781 70.757812 149.097656 71.488281 151.019531 C 71.605469 151.328125 71.644531 151.882812 72.082031 151.769531 C 72.597656 151.632812 72.332031 151.109375 72.214844 150.800781 C 71.296875 148.464844 70.839844 145.996094 70.179688 143.589844 C 69.921875 142.660156 69.550781 141.773438 69.039062 140.925781 C 69.058594 141.101562 69.0625 141.285156 69.101562 141.457031 Z M 108.820312 151.539062 C 108.125 152.011719 107.40625 152.460938 106.730469 152.964844 C 104.277344 154.800781 101.761719 156.546875 99.171875 158.1875 C 98 158.933594 96.816406 159.667969 95.75 160.570312 C 95.570312 160.722656 95.257812 160.910156 95.425781 161.148438 C 95.628906 161.4375 95.863281 161.113281 96.035156 160.992188 C 97.429688 160.003906 98.796875 158.972656 100.207031 158.003906 C 102.625 156.347656 105.03125 154.675781 107.378906 152.917969 C 107.910156 152.519531 108.390625 152.058594 108.894531 151.628906 C 108.871094 151.597656 108.847656 151.570312 108.820312 151.539062 Z M 77.203125 140.511719 C 77.128906 142.519531 77.277344 144.53125 77.164062 146.539062 C 77.097656 147.777344 77.152344 149.019531 77.160156 150.257812 C 77.160156 150.523438 77.179688 150.785156 77.289062 151.03125 C 77.351562 151.167969 77.417969 151.324219 77.609375 151.289062 C 77.765625 151.261719 77.796875 151.109375 77.800781 150.980469 C 77.824219 150.53125 77.851562 150.082031 77.832031 149.632812 C 77.734375 147.230469 77.59375 144.832031 77.730469 142.421875 C 77.777344 141.605469 77.8125 140.769531 77.636719 139.953125 C 77.609375 139.828125 77.640625 139.617188 77.371094 139.707031 C 77.21875 139.949219 77.214844 140.234375 77.203125 140.511719 Z M 53.527344 151.449219 C 55.503906 153.472656 57.484375 155.5 59.46875 157.523438 C 59.679688 157.738281 59.890625 157.953125 60.167969 158.082031 C 60.335938 158.160156 60.507812 158.167969 60.628906 158.007812 C 60.734375 157.867188 60.679688 157.714844 60.582031 157.59375 C 60.441406 157.417969 60.296875 157.246094 60.136719 157.089844 C 58.101562 155.085938 55.953125 153.210938 53.835938 151.300781 C 53.679688 151.160156 53.539062 150.957031 53.265625 150.984375 C 53.238281 151.214844 53.402344 151.320312 53.527344 151.449219 Z M 48.839844 157.851562 C 51.039062 159.046875 53.0625 160.527344 55.25 161.738281 C 55.742188 162.011719 56.257812 162.246094 56.769531 162.484375 C 56.921875 162.554688 57.117188 162.59375 57.222656 162.410156 C 57.324219 162.226562 57.195312 162.082031 57.054688 161.976562 C 56.886719 161.855469 56.710938 161.75 56.527344 161.652344 C 54.148438 160.402344 51.832031 159.039062 49.519531 157.664062 C 49.03125 157.375 48.507812 157.191406 47.800781 157.015625 C 48.175781 157.441406 48.5 157.664062 48.839844 157.851562 Z M 45.105469 181.429688 C 45.15625 181.648438 45.390625 181.5625 45.539062 181.546875 C 45.855469 181.519531 46.175781 181.480469 46.484375 181.390625 C 48.273438 180.882812 50.09375 180.5 51.921875 180.148438 C 52.695312 180 53.457031 179.777344 54.214844 179.5625 C 54.4375 179.496094 54.738281 179.410156 54.652344 179.082031 C 54.566406 178.734375 54.261719 178.777344 54 178.824219 C 53.742188 178.871094 53.488281 178.941406 53.238281 179.027344 C 51.460938 179.640625 49.648438 180.140625 47.804688 180.507812 C 46.992188 180.667969 46.183594 180.851562 45.378906 181.164062 C 45.320312 181.265625 45.058594 181.242188 45.105469 181.429688 Z M 100.847656 152.589844 C 100.75 152.640625 100.644531 152.679688 100.554688 152.746094 C 98.714844 154.109375 96.871094 155.476562 95.035156 156.847656 C 94.496094 157.253906 93.929688 157.632812 93.507812 158.175781 C 93.375 158.34375 93.160156 158.554688 93.367188 158.769531 C 93.574219 158.980469 93.789062 158.765625 93.960938 158.636719 C 95.636719 157.363281 97.28125 156.050781 98.835938 154.628906 C 99.535156 153.984375 100.222656 153.324219 100.914062 152.675781 C 100.894531 152.644531 100.871094 152.617188 100.847656 152.589844 Z M 93.75 147.601562 C 92.363281 149.539062 90.972656 151.476562 89.601562 153.421875 C 89.367188 153.757812 89.195312 154.140625 89.003906 154.503906 C 88.921875 154.65625 88.855469 154.839844 89.023438 154.964844 C 89.226562 155.117188 89.371094 154.949219 89.5 154.816406 C 89.578125 154.734375 89.640625 154.640625 89.707031 154.546875 C 91.296875 152.425781 92.609375 150.125 93.964844 147.855469 C 94.078125 147.671875 94.21875 147.480469 94.148438 147.226562 C 93.925781 147.265625 93.851562 147.457031 93.75 147.601562 Z M 42.109375 182.292969 C 42.277344 182.613281 42.5625 182.671875 42.875 182.515625 C 43.148438 182.378906 43.253906 182.148438 43.101562 181.863281 C 42.933594 181.546875 42.644531 181.519531 42.339844 181.617188 C 42.070312 181.785156 41.96875 182.019531 42.109375 182.292969 Z M 39.910156 173.105469 C 39.644531 173.253906 39.558594 173.515625 39.710938 173.78125 C 39.875 174.0625 40.148438 174.136719 40.441406 173.980469 C 40.71875 173.828125 40.757812 173.585938 40.628906 173.292969 C 40.449219 173.03125 40.195312 172.941406 39.910156 173.105469 Z M 68.351562 138.082031 C 68.089844 138.226562 68.046875 138.503906 68.15625 138.765625 C 68.285156 139.0625 68.539062 139.191406 68.839844 139.042969 C 69.117188 138.902344 69.148438 138.648438 69.027344 138.351562 C 68.867188 138.128906 68.664062 137.910156 68.351562 138.082031 Z M 104.707031 148.566406 C 104.4375 148.734375 104.316406 148.980469 104.488281 149.277344 C 104.644531 149.554688 104.90625 149.570312 105.160156 149.417969 C 105.433594 149.25 105.527344 149.011719 105.378906 148.683594 C 105.199219 148.453125 104.964844 148.402344 104.707031 148.566406 Z M 67.828125 135.132812 C 67.535156 135.316406 67.484375 135.609375 67.644531 135.910156 C 67.78125 136.164062 68.019531 136.222656 68.265625 136.089844 C 68.570312 135.917969 68.554688 135.648438 68.410156 135.335938 C 68.277344 135.152344 68.09375 134.964844 67.828125 135.132812 Z M 95.722656 145.027344 C 95.585938 144.777344 95.351562 144.71875 95.101562 144.855469 C 94.839844 145 94.726562 145.242188 94.886719 145.511719 C 95.035156 145.757812 95.277344 145.769531 95.53125 145.65625 C 95.753906 145.496094 95.859375 145.28125 95.722656 145.027344 Z M 49.792969 148 C 49.917969 148.25 50.132812 148.359375 50.398438 148.246094 C 50.675781 148.121094 50.769531 147.882812 50.644531 147.597656 C 50.519531 147.3125 50.285156 147.238281 49.972656 147.335938 C 49.75 147.5 49.652344 147.722656 49.792969 148 Z M 45.652344 156.355469 C 45.808594 156.625 46.054688 156.683594 46.320312 156.539062 C 46.554688 156.414062 46.605469 156.191406 46.476562 155.964844 C 46.324219 155.695312 46.085938 155.648438 45.8125 155.769531 C 45.601562 155.925781 45.519531 156.121094 45.652344 156.355469 Z M 102.367188 151.132812 C 102.488281 151.363281 102.703125 151.429688 102.9375 151.3125 C 103.191406 151.183594 103.269531 150.960938 103.15625 150.703125 C 103.042969 150.449219 102.820312 150.453125 102.585938 150.535156 C 102.351562 150.675781 102.230469 150.871094 102.367188 151.132812 Z M 39.671875 182.390625 C 39.445312 182.53125 39.386719 182.742188 39.53125 182.96875 C 39.675781 183.195312 39.898438 183.210938 40.121094 183.089844 C 40.351562 182.964844 40.417969 182.769531 40.308594 182.523438 C 40.132812 182.292969 39.917969 182.234375 39.671875 182.390625 Z M 96.578125 142.703125 C 96.328125 142.839844 96.242188 143.070312 96.394531 143.320312 C 96.519531 143.527344 96.730469 143.558594 96.9375 143.441406 C 97.167969 143.308594 97.210938 143.101562 97.113281 142.863281 C 96.976562 142.664062 96.789062 142.589844 96.578125 142.703125 Z M 51.589844 149.136719 C 51.363281 149.269531 51.3125 149.484375 51.441406 149.714844 C 51.558594 149.925781 51.753906 149.980469 51.964844 149.871094 C 52.199219 149.75 52.253906 149.546875 52.15625 149.277344 C 52.015625 149.097656 51.824219 149 51.589844 149.136719 Z M 77.117188 137.492188 C 76.90625 137.605469 76.824219 137.785156 76.929688 138.011719 C 77.027344 138.238281 77.21875 138.3125 77.4375 138.214844 C 77.679688 138.105469 77.726562 137.890625 77.640625 137.628906 C 77.511719 137.449219 77.332031 137.371094 77.117188 137.492188 Z M 77.117188 137.492188 " fill-opacity="1" fill-rule="nonzero"/></g></g></g><g clip-path="url(#d2a4731365)"><path fill="#2a4b7e" d="M 322.234375 172.316406 L 322.675781 172.316406 C 323.191406 172.316406 323.609375 172.144531 323.609375 171.726562 C 323.609375 171.355469 323.339844 171.109375 322.75 171.109375 C 322.503906 171.109375 322.332031 171.136719 322.234375 171.160156 Z M 322.207031 174.578125 L 321.273438 174.578125 L 321.273438 170.546875 C 321.644531 170.496094 322.160156 170.421875 322.824219 170.421875 C 323.585938 170.421875 323.929688 170.546875 324.199219 170.742188 C 324.445312 170.914062 324.617188 171.210938 324.617188 171.601562 C 324.617188 172.09375 324.25 172.414062 323.78125 172.5625 L 323.78125 172.609375 C 324.175781 172.734375 324.371094 173.050781 324.496094 173.59375 C 324.617188 174.207031 324.714844 174.429688 324.789062 174.578125 L 323.804688 174.578125 C 323.683594 174.429688 323.609375 174.085938 323.488281 173.59375 C 323.414062 173.175781 323.167969 172.980469 322.652344 172.980469 L 322.207031 172.980469 Z M 319.726562 172.488281 C 319.726562 174.28125 321.078125 175.707031 322.871094 175.707031 C 324.617188 175.730469 325.945312 174.28125 325.945312 172.511719 C 325.945312 170.71875 324.617188 169.269531 322.824219 169.269531 C 321.078125 169.269531 319.726562 170.71875 319.726562 172.488281 Z M 326.976562 172.488281 C 326.976562 174.75 325.15625 176.542969 322.847656 176.542969 C 320.539062 176.542969 318.695312 174.75 318.695312 172.488281 C 318.695312 170.226562 320.539062 168.457031 322.871094 168.457031 C 325.15625 168.457031 326.976562 170.226562 326.976562 172.488281 " fill-opacity="1" fill-rule="nonzero"/></g></svg>